<svg xmlns="http://www.w3.org/2000/svg" xmlns:svg="http://www.w3.org/2000/svg" xmlns:xlink="http://www.w3.org/1999/xlink" id="svg8" width="881.214" height="569.519" version="1.1" viewBox="0 0 233.154 150.685"><defs id="defs2"><marker style="overflow:visible" id="TriangleOutL" orient="auto" refX="0" refY="0"><path style="fill:#000;fill-opacity:1;fill-rule:evenodd;stroke:#000;stroke-width:1pt;stroke-opacity:1" id="path1269" d="M 5.77,0 -2.88,5 V -5 Z" transform="scale(0.8)"/></marker><marker style="overflow:visible" id="TriangleInL" orient="auto" refX="0" refY="0"><path style="fill:#000;fill-opacity:1;fill-rule:evenodd;stroke:#000;stroke-width:1pt;stroke-opacity:1" id="path1260" d="M 5.77,0 -2.88,5 V -5 Z" transform="scale(-0.8)"/></marker><rect id="rect906" width="67.15" height="37.504" x="20.312" y="125.502"/><rect id="rect914" width="67.15" height="37.504" x="20.312" y="125.502"/><path id="a" d="M 1.253,280.732 2.858,277.601 102.211,89.083 58.061,5.608 C 54.392,-1.283 45.074,0.474 43.87,8.188 Z"/><filter id="b" width="2" height="2" x="-.5" y="-.5" filterUnits="objectBoundingBox"><feGaussianBlur id="feGaussianBlur917" in="SourceAlpha" result="shadowBlurInner1" stdDeviation="17.5"/><feOffset id="feOffset919" in="shadowBlurInner1" result="shadowOffsetInner1"/><feComposite id="feComposite921" in="shadowOffsetInner1" in2="SourceAlpha" k1="0" k2="-1" k3="1" k4="0" operator="arithmetic" result="shadowInnerInner1"/><feColorMatrix id="feColorMatrix923" in="shadowInnerInner1" values="0 0 0 0 0 0 0 0 0 0 0 0 0 0 0 0 0 0 0.06 0"/></filter><path id="c" d="m 134.417,148.974 32.039,-32.812 -32.039,-61.007 c -3.042,-5.791 -10.433,-6.398 -13.443,-0.59 l -17.705,34.109 -0.53,1.744 z"/><filter id="d" width="2" height="2" x="-.5" y="-.5" filterUnits="objectBoundingBox"><feGaussianBlur id="feGaussianBlur927" in="SourceAlpha" result="shadowBlurInner1" stdDeviation="3.5"/><feOffset id="feOffset929" dx="1" dy="-9" in="shadowBlurInner1" result="shadowOffsetInner1"/><feComposite id="feComposite931" in="shadowOffsetInner1" in2="SourceAlpha" k1="0" k2="-1" k3="1" k4="0" operator="arithmetic" result="shadowInnerInner1"/><feColorMatrix id="feColorMatrix933" in="shadowInnerInner1" values="0 0 0 0 0 0 0 0 0 0 0 0 0 0 0 0 0 0 0.09 0"/></filter><rect id="rect992" width="104.691" height="36.188" x="20.312" y="125.502"/><rect id="rect1043" width="104.691" height="36.188" x="20.312" y="125.502"/><rect id="rect1081" width="67.15" height="37.504" x="20.312" y="125.502"/><rect id="rect1123" width="67.15" height="37.504" x="20.312" y="125.502"/><rect id="rect2384" width="85.951" height="94.85" x="-105.178" y="-816.669"/><rect id="rect1966" width="312.949" height="193.911" x="-387.085" y="-396.852"/><linearGradient id="linearGradient1910"><stop style="stop-color:#3256bb;stop-opacity:1" id="stop1906" offset="0"/><stop style="stop-color:#3157c0;stop-opacity:0" id="stop1908" offset="1"/></linearGradient><clipPath id="clipPath933" clipPathUnits="userSpaceOnUse"><circle style="fill:none;stroke:#000;stroke-width:1.55765;stroke-linecap:round;stroke-linejoin:round;paint-order:stroke fill markers" id="circle935" cx="104.321" cy="-120.073" r="22.719"/></clipPath><clipPath id="clipPath1087" clipPathUnits="userSpaceOnUse"><circle style="fill:none;stroke:#000;stroke-width:1.33847;stroke-linecap:round;stroke-linejoin:round;paint-order:stroke fill markers" id="circle1089" cx="120.117" cy="-243.652" r="189.387"/></clipPath><clipPath id="clipPath1142" clipPathUnits="userSpaceOnUse"><path style="fill:none;fill-opacity:1;stroke:#ffcd40;stroke-width:1.33001;stroke-linecap:round;stroke-linejoin:round;stroke-miterlimit:4;stroke-dasharray:none;stroke-opacity:1;paint-order:stroke fill markers" id="path1144" d="m -200.74589,-420.11079 a 73.492783,41.546574 0 0 0 -63.38583,20.55792 73.492783,41.546574 0 0 0 63.42512,20.55844 73.492783,41.546574 0 0 0 63.42515,-20.55844 73.492783,41.546574 0 0 0 -63.42515,-20.55792 73.492783,41.546574 0 0 0 -0.0393,0 z"/></clipPath><linearGradient id="linearGradient1912" x1="-664.019" x2="-538.492" y1="-1531.701" y2="-1398.739" gradientUnits="userSpaceOnUse" xlink:href="#linearGradient1910"/><clipPath id="clipPath1935" clipPathUnits="userSpaceOnUse"><circle id="circle1937" cx="-200.707" cy="-410.485" r="62.799" style="fill:#3860c9;fill-opacity:1;stroke:none;stroke-width:1.5;stroke-linecap:round;stroke-linejoin:round;paint-order:stroke fill markers"/></clipPath><clipPath id="clipPath2023" clipPathUnits="userSpaceOnUse"><path id="path2025" d="m -273.09501,-746.55699 c 0,0 9.81817,51.01667 29.4545,51.01667 19.63633,0 14.38718,-51.01667 34.02351,-51.01667 19.63633,0 14.38715,51.01667 34.02348,51.01667 19.63633,0 24.88555,-51.01667 24.88555,-51.01667 h 27.27773 v 149.95068 h -182.40574 l 2.35739,-162.14387 z" style="fill:none;stroke:#fff;stroke-width:10;stroke-linecap:butt;stroke-linejoin:miter;stroke-miterlimit:4;stroke-dasharray:none;stroke-opacity:1"/></clipPath><clipPath id="clipPath2334" clipPathUnits="userSpaceOnUse"><circle id="circle2336" cx="-211.9" cy="-721.049" r="62.799" style="fill:#3860c9;fill-opacity:1;stroke:none;stroke-width:1.5;stroke-linecap:round;stroke-linejoin:round;paint-order:stroke fill markers"/></clipPath><filter style="color-interpolation-filters:sRGB" id="filter3171" width="1.05" height="1.102" x="-.025" y="-.051"><feGaussianBlur id="feGaussianBlur3173" stdDeviation="4.913"/></filter></defs><metadata id="metadata5"/><g id="layer1" transform="translate(7.0077824,-59.385347)"><g style="font-style:normal;font-weight:400;font-size:10.5833px;line-height:1.25;font-family:sans-serif;white-space:pre;shape-inside:url(#rect914);fill:#333;fill-opacity:1;stroke:none" id="text912" aria-label="App" transform="matrix(0.67830257,0,0,0.67830257,148.15321,58.597821)"><path id="path1658" d="m 49.841444,134.87928 -0.940509,-2.40295 h -3.028229 l -0.930173,2.40295 h -0.888831 l 2.986888,-7.58608 h 0.73897 l 2.971386,7.58608 z m -1.214393,-3.1936 -0.878496,-2.34093 q -0.170532,-0.44442 -0.351399,-1.09037 -0.113688,0.49609 -0.32556,1.09037 l -0.888832,2.34093 z" style="font-style:normal;font-variant:normal;font-weight:400;font-stretch:normal;font-family:'Open Sans';-inkscape-font-specification:'Open Sans';text-align:center;text-anchor:middle;fill:#333"/><path id="path1660" d="m 54.295938,134.98263 q -0.552936,0 -1.012855,-0.20154 -0.454751,-0.2067 -0.764809,-0.63045 h -0.06201 q 0.06201,0.49609 0.06201,0.94051 v 2.3306 h -0.857826 v -8.20619 h 0.69763 l 0.118855,0.77514 h 0.04134 q 0.330728,-0.46509 0.769976,-0.67179 0.439249,-0.20671 1.007688,-0.20671 1.126542,0 1.736322,0.76998 0.614948,0.76998 0.614948,2.16007 0,1.39526 -0.625283,2.1704 -0.620115,0.76998 -1.725987,0.76998 z m -0.124023,-5.14179 q -0.868162,0 -1.255734,0.48059 -0.387572,0.48059 -0.397907,1.52962 v 0.1912 q 0,1.19372 0.397907,1.71048 0.397908,0.5116 1.276404,0.5116 0.733803,0 1.147213,-0.59428 0.418578,-0.59428 0.418578,-1.63814 0,-1.05936 -0.418578,-1.62263 -0.41341,-0.56844 -1.167883,-0.56844 z" style="font-style:normal;font-variant:normal;font-weight:400;font-stretch:normal;font-family:'Open Sans';-inkscape-font-specification:'Open Sans';text-align:center;text-anchor:middle;fill:#333"/><path id="path1662" d="m 60.781309,134.98263 q -0.552936,0 -1.012855,-0.20154 -0.454751,-0.2067 -0.764809,-0.63045 h -0.06201 q 0.06201,0.49609 0.06201,0.94051 v 2.3306 h -0.857826 v -8.20619 h 0.69763 l 0.118855,0.77514 h 0.04134 q 0.330728,-0.46509 0.769977,-0.67179 0.439248,-0.20671 1.007687,-0.20671 1.126542,0 1.736322,0.76998 0.614948,0.76998 0.614948,2.16007 0,1.39526 -0.625283,2.1704 -0.620115,0.76998 -1.725987,0.76998 z m -0.124023,-5.14179 q -0.868162,0 -1.255734,0.48059 -0.387572,0.48059 -0.397907,1.52962 v 0.1912 q 0,1.19372 0.397907,1.71048 0.397908,0.5116 1.276404,0.5116 0.733803,0 1.147213,-0.59428 0.418578,-0.59428 0.418578,-1.63814 0,-1.05936 -0.418578,-1.62263 -0.41341,-0.56844 -1.167883,-0.56844 z" style="font-style:normal;font-variant:normal;font-weight:400;font-stretch:normal;font-family:'Open Sans';-inkscape-font-specification:'Open Sans';text-align:center;text-anchor:middle;fill:#333"/></g><rect id="rect1075" width="107.887" height="98.392" x="13.142" y="79.535" style="fill:none;fill-opacity:1;stroke:#000;stroke-width:.3;stroke-linecap:round;stroke-linejoin:round;stroke-miterlimit:4;stroke-dasharray:1.2,1.2;stroke-dashoffset:0;stroke-opacity:1;paint-order:stroke fill markers"/><g id="g1117" transform="translate(7.3602243,3.2024963)"><g style="font-style:normal;font-weight:400;font-size:10.5833px;line-height:1.25;font-family:sans-serif;white-space:pre;shape-inside:url(#rect906);fill:#1a1a1a;fill-opacity:1;stroke:none" id="text904" aria-label="Content Management" transform="matrix(0.29958024,0,0,0.29958024,43.459408,64.796661)"><path id="path1680" d="m 38.426156,128.00116 q -1.245398,0 -1.968866,0.83199 -0.7183,0.82682 -0.7183,2.26859 0,1.48311 0.692462,2.29443 0.69763,0.80615 1.984369,0.80615 0.790647,0 1.803501,-0.28422 v 0.76997 q -0.785479,0.29456 -1.93786,0.29456 -1.669143,0 -2.578645,-1.01286 -0.904335,-1.01285 -0.904335,-2.87836 0,-1.16789 0.434081,-2.04638 0.439248,-0.8785 1.260901,-1.35392 0.82682,-0.47542 1.943027,-0.47542 1.188554,0 2.077386,0.43408 l -0.372069,0.75447 q -0.857826,-0.40308 -1.715652,-0.40308 z" style="font-style:normal;font-variant:normal;font-weight:400;font-stretch:normal;font-family:'Open Sans';-inkscape-font-specification:'Open Sans';text-align:center;text-anchor:middle;fill:#1a1a1a;fill-opacity:1"/><path id="path1682" d="m 46.62718,132.04225 q 0,1.38492 -0.69763,2.16523 -0.69763,0.77515 -1.927525,0.77515 -0.759641,0 -1.34875,-0.35657 -0.58911,-0.35656 -0.909503,-1.02319 -0.320393,-0.66662 -0.320393,-1.56062 0,-1.38493 0.692462,-2.1549 0.692462,-0.77515 1.922358,-0.77515 1.188554,0 1.886183,0.79065 0.702798,0.79065 0.702798,2.1394 z m -4.314969,0 q 0,1.0852 0.434081,1.65364 0.434081,0.56844 1.276404,0.56844 0.842323,0 1.276404,-0.56327 0.439248,-0.56844 0.439248,-1.65881 0,-1.08004 -0.439248,-1.63814 -0.434081,-0.56327 -1.286739,-0.56327 -0.842324,0 -1.271237,0.55294 -0.428913,0.55293 -0.428913,1.64847 z" style="font-style:normal;font-variant:normal;font-weight:400;font-stretch:normal;font-family:'Open Sans';-inkscape-font-specification:'Open Sans';text-align:center;text-anchor:middle;fill:#1a1a1a;fill-opacity:1"/><path id="path1684" d="m 52.006679,134.87928 v -3.66385 q 0,-0.69246 -0.315225,-1.03353 -0.315226,-0.34106 -0.987017,-0.34106 -0.888832,0 -1.302242,0.48059 -0.41341,0.48059 -0.41341,1.58646 v 2.97139 h -0.857826 v -5.66372 h 0.697629 l 0.139526,0.77514 h 0.04134 q 0.263549,-0.41858 0.738971,-0.64595 0.475422,-0.23255 1.059363,-0.23255 1.023191,0 1.539953,0.4961 0.516763,0.49092 0.516763,1.57612 v 3.69486 z" style="font-style:normal;font-variant:normal;font-weight:400;font-stretch:normal;font-family:'Open Sans';-inkscape-font-specification:'Open Sans';text-align:center;text-anchor:middle;fill:#1a1a1a;fill-opacity:1"/><path id="path1686" d="m 56.456007,134.27466 q 0.227376,0 0.439248,-0.031 0.211873,-0.0362 0.335896,-0.0724 v 0.65629 q -0.139526,0.0672 -0.41341,0.10852 -0.268717,0.0465 -0.485757,0.0465 -1.643305,0 -1.643305,-1.73116 v -3.36929 h -0.811318 v -0.41341 l 0.811318,-0.35657 0.361734,-1.20922 h 0.496092 v 1.31258 h 1.643305 v 0.66662 h -1.643305 v 3.33312 q 0,0.51159 0.242878,0.78548 0.242879,0.27388 0.666624,0.27388 z" style="font-style:normal;font-variant:normal;font-weight:400;font-stretch:normal;font-family:'Open Sans';-inkscape-font-specification:'Open Sans';text-align:center;text-anchor:middle;fill:#1a1a1a;fill-opacity:1"/><path id="path1688" d="m 60.755471,134.98263 q -1.255733,0 -1.984369,-0.76481 -0.723467,-0.76481 -0.723467,-2.1239 0,-1.36942 0.671791,-2.17557 0.676959,-0.80615 1.813837,-0.80615 1.064531,0 1.684646,0.7028 0.620116,0.69763 0.620116,1.84484 v 0.54261 h -3.901559 q 0.02584,0.99735 0.50126,1.51411 0.48059,0.51676 1.348751,0.51676 0.91467,0 1.808669,-0.3824 v 0.76481 q -0.454751,0.19637 -0.862993,0.27905 -0.403075,0.0879 -0.976682,0.0879 z m -0.232543,-5.15213 q -0.682127,0 -1.090369,0.44442 -0.403075,0.44442 -0.475422,1.2299 h 2.96105 q 0,-0.81132 -0.361734,-1.24023 -0.361734,-0.43409 -1.033525,-0.43409 z" style="font-style:normal;font-variant:normal;font-weight:400;font-stretch:normal;font-family:'Open Sans';-inkscape-font-specification:'Open Sans';text-align:center;text-anchor:middle;fill:#1a1a1a;fill-opacity:1"/><path id="path1690" d="m 68.176183,134.87928 v -3.66385 q 0,-0.69246 -0.315225,-1.03353 -0.315225,-0.34106 -0.987017,-0.34106 -0.888832,0 -1.302242,0.48059 -0.41341,0.48059 -0.41341,1.58646 v 2.97139 h -0.857826 v -5.66372 h 0.69763 l 0.139525,0.77514 h 0.04134 q 0.263549,-0.41858 0.738971,-0.64595 0.475422,-0.23255 1.059364,-0.23255 1.02319,0 1.539952,0.4961 0.516763,0.49092 0.516763,1.57612 v 3.69486 z" style="font-style:normal;font-variant:normal;font-weight:400;font-stretch:normal;font-family:'Open Sans';-inkscape-font-specification:'Open Sans';text-align:center;text-anchor:middle;fill:#1a1a1a;fill-opacity:1"/><path id="path1692" d="m 72.625509,134.27466 q 0.227376,0 0.439249,-0.031 0.211872,-0.0362 0.335895,-0.0724 v 0.65629 q -0.139526,0.0672 -0.41341,0.10852 -0.268716,0.0465 -0.485757,0.0465 -1.643305,0 -1.643305,-1.73116 v -3.36929 h -0.811317 v -0.41341 l 0.811317,-0.35657 0.361734,-1.20922 h 0.496092 v 1.31258 h 1.643305 v 0.66662 h -1.643305 v 3.33312 q 0,0.51159 0.242878,0.78548 0.242879,0.27388 0.666624,0.27388 z" style="font-style:normal;font-variant:normal;font-weight:400;font-stretch:normal;font-family:'Open Sans';-inkscape-font-specification:'Open Sans';text-align:center;text-anchor:middle;fill:#1a1a1a;fill-opacity:1"/><path id="path1694" d="m 25.483835,148.12198 -2.563143,-6.69724 h -0.04134 q 0.07235,0.79581 0.07235,1.89135 v 4.80589 H 22.14038 v -7.55507 h 1.322913 l 2.392611,6.23216 h 0.04134 l 2.413282,-6.23216 h 1.312577 v 7.55507 h -0.878497 v -4.8679 q 0,-0.83716 0.07235,-1.81901 h -0.04134 l -2.583813,6.68691 z" style="font-style:normal;font-variant:normal;font-weight:400;font-stretch:normal;font-family:'Open Sans';-inkscape-font-specification:'Open Sans';text-align:center;text-anchor:middle;fill:#1a1a1a;fill-opacity:1"/><path id="path1696" d="m 35.049112,148.12198 -0.170532,-0.80615 h -0.04134 q -0.423745,0.53227 -0.84749,0.72347 -0.418578,0.18603 -1.049029,0.18603 -0.842323,0 -1.322912,-0.43408 -0.475422,-0.43408 -0.475422,-1.23506 0,-1.71565 2.74401,-1.79833 l 0.961179,-0.031 v -0.3514 q 0,-0.66662 -0.289387,-0.98185 -0.28422,-0.32039 -0.91467,-0.32039 -0.707965,0 -1.601965,0.43408 l -0.26355,-0.6563 q 0.418578,-0.22737 0.91467,-0.35656 0.50126,-0.12919 1.00252,-0.12919 1.012855,0 1.498612,0.44958 0.490924,0.44958 0.490924,1.44177 v 3.86538 z m -1.93786,-0.60461 q 0.800982,0 1.255733,-0.43925 0.459919,-0.43925 0.459919,-1.22989 v -0.5116 l -0.857826,0.0362 q -1.02319,0.0362 -1.477941,0.3204 -0.449584,0.27905 -0.449584,0.87333 0,0.46508 0.279052,0.70796 0.28422,0.24288 0.790647,0.24288 z" style="font-style:normal;font-variant:normal;font-weight:400;font-stretch:normal;font-family:'Open Sans';-inkscape-font-specification:'Open Sans';text-align:center;text-anchor:middle;fill:#1a1a1a;fill-opacity:1"/><path id="path1698" d="m 41.327778,148.12198 v -3.66385 q 0,-0.69246 -0.315225,-1.03352 -0.315225,-0.34106 -0.987017,-0.34106 -0.888832,0 -1.302242,0.48059 -0.41341,0.48058 -0.41341,1.58646 v 2.97138 h -0.857826 v -5.66372 h 0.69763 l 0.139525,0.77515 h 0.04134 q 0.263549,-0.41858 0.738971,-0.64596 0.475422,-0.23254 1.059364,-0.23254 1.02319,0 1.539952,0.49609 0.516763,0.49093 0.516763,1.57613 v 3.69485 z" style="font-style:normal;font-variant:normal;font-weight:400;font-stretch:normal;font-family:'Open Sans';-inkscape-font-specification:'Open Sans';text-align:center;text-anchor:middle;fill:#1a1a1a;fill-opacity:1"/><path id="path1700" d="m 47.430747,148.12198 -0.170532,-0.80615 h -0.04134 q -0.423745,0.53227 -0.847491,0.72347 -0.418577,0.18603 -1.049028,0.18603 -0.842323,0 -1.322912,-0.43408 -0.475422,-0.43408 -0.475422,-1.23506 0,-1.71565 2.74401,-1.79833 l 0.961178,-0.031 v -0.3514 q 0,-0.66662 -0.289387,-0.98185 -0.284219,-0.32039 -0.91467,-0.32039 -0.707965,0 -1.601964,0.43408 l -0.26355,-0.6563 q 0.418578,-0.22737 0.91467,-0.35656 0.50126,-0.12919 1.00252,-0.12919 1.012854,0 1.498611,0.44958 0.490925,0.44958 0.490925,1.44177 v 3.86538 z m -1.93786,-0.60461 q 0.800982,0 1.255733,-0.43925 0.459919,-0.43925 0.459919,-1.22989 v -0.5116 l -0.857826,0.0362 q -1.02319,0.0362 -1.477941,0.3204 -0.449584,0.27905 -0.449584,0.87333 0,0.46508 0.279052,0.70796 0.284219,0.24288 0.790647,0.24288 z" style="font-style:normal;font-variant:normal;font-weight:400;font-stretch:normal;font-family:'Open Sans';-inkscape-font-specification:'Open Sans';text-align:center;text-anchor:middle;fill:#1a1a1a;fill-opacity:1"/><path id="path1702" d="m 54.469053,142.45826 v 0.5426 l -1.049028,0.12403 q 0.144693,0.18086 0.258381,0.47542 0.113688,0.28939 0.113688,0.65629 0,0.83199 -0.568439,1.32808 -0.568439,0.49609 -1.560623,0.49609 -0.253214,0 -0.475422,-0.0413 -0.547769,0.28939 -0.547769,0.72863 0,0.23255 0.191203,0.34623 0.191202,0.10852 0.656288,0.10852 h 1.00252 q 0.919837,0 1.410762,0.38758 0.496092,0.38757 0.496092,1.12654 0,0.94051 -0.754473,1.43143 -0.754474,0.49609 -2.201409,0.49609 -1.11104,0 -1.715652,-0.41341 -0.599445,-0.41341 -0.599445,-1.16788 0,-0.51676 0.330728,-0.894 0.330728,-0.37724 0.930173,-0.51159 -0.217041,-0.0982 -0.366902,-0.30489 -0.144693,-0.20671 -0.144693,-0.48059 0,-0.31006 0.165364,-0.5426 0.165364,-0.23255 0.52193,-0.44959 -0.439248,-0.18086 -0.7183,-0.61495 -0.273884,-0.43408 -0.273884,-0.99218 0,-0.93017 0.558103,-1.43143 0.558104,-0.50643 1.581294,-0.50643 0.444416,0 0.800982,0.10335 z m -4.516506,6.61457 q 0,0.45991 0.387572,0.69762 0.387572,0.23772 1.11104,0.23772 1.080034,0 1.596797,-0.32556 0.52193,-0.3204 0.52193,-0.87333 0,-0.45992 -0.28422,-0.64079 -0.284219,-0.1757 -1.069698,-0.1757 H 51.18761 q -0.583942,0 -0.909502,0.27905 -0.325561,0.27906 -0.325561,0.80099 z m 0.465087,-4.80073 q 0,0.59428 0.335895,0.89917 0.335896,0.30489 0.935341,0.30489 1.255733,0 1.255733,-1.21956 0,-1.27641 -1.271236,-1.27641 -0.604613,0 -0.930173,0.32556 -0.32556,0.32556 -0.32556,0.96635 z" style="font-style:normal;font-variant:normal;font-weight:400;font-stretch:normal;font-family:'Open Sans';-inkscape-font-specification:'Open Sans';text-align:center;text-anchor:middle;fill:#1a1a1a;fill-opacity:1"/><path id="path1704" d="m 58.02438,148.22533 q -1.255734,0 -1.984369,-0.7648 -0.723468,-0.76481 -0.723468,-2.1239 0,-1.36942 0.671792,-2.17557 0.676959,-0.80615 1.813837,-0.80615 1.064531,0 1.684646,0.7028 0.620115,0.69763 0.620115,1.84484 v 0.5426 h -3.901558 q 0.02584,0.99735 0.50126,1.51412 0.480589,0.51676 1.34875,0.51676 0.91467,0 1.80867,-0.38241 v 0.76481 q -0.454752,0.19637 -0.862994,0.27905 -0.403075,0.0879 -0.976681,0.0879 z m -0.232544,-5.15212 q -0.682126,0 -1.090369,0.44442 -0.403075,0.44441 -0.475422,1.22989 h 2.961051 q 0,-0.81132 -0.361734,-1.24023 -0.361734,-0.43408 -1.033526,-0.43408 z" style="font-style:normal;font-variant:normal;font-weight:400;font-stretch:normal;font-family:'Open Sans';-inkscape-font-specification:'Open Sans';text-align:center;text-anchor:middle;fill:#1a1a1a;fill-opacity:1"/><path id="path1706" d="m 68.788546,148.12198 v -3.68452 q 0,-0.67695 -0.289387,-1.01285 -0.289387,-0.34106 -0.899167,-0.34106 -0.800982,0 -1.183387,0.45991 -0.382404,0.45992 -0.382404,1.41593 v 3.16259 h -0.857826 v -3.68452 q 0,-0.67695 -0.289387,-1.01285 -0.289387,-0.34106 -0.904335,-0.34106 -0.80615,0 -1.183387,0.48575 -0.372069,0.48059 -0.372069,1.5813 v 2.97138 h -0.857826 v -5.66372 h 0.69763 l 0.139526,0.77515 h 0.04134 q 0.242878,-0.41341 0.682127,-0.64596 0.444415,-0.23254 0.992184,-0.23254 1.32808,0 1.736323,0.96118 h 0.04134 q 0.253213,-0.44442 0.733803,-0.7028 0.480589,-0.25838 1.095536,-0.25838 0.961179,0 1.436601,0.49609 0.480589,0.49093 0.480589,1.57613 v 3.69485 z" style="font-style:normal;font-variant:normal;font-weight:400;font-stretch:normal;font-family:'Open Sans';-inkscape-font-specification:'Open Sans';text-align:center;text-anchor:middle;fill:#1a1a1a;fill-opacity:1"/><path id="path1708" d="m 73.806312,148.22533 q -1.255733,0 -1.984368,-0.7648 -0.723468,-0.76481 -0.723468,-2.1239 0,-1.36942 0.671791,-2.17557 0.676959,-0.80615 1.813837,-0.80615 1.064532,0 1.684647,0.7028 0.620115,0.69763 0.620115,1.84484 v 0.5426 h -3.901558 q 0.02584,0.99735 0.50126,1.51412 0.480589,0.51676 1.34875,0.51676 0.91467,0 1.808669,-0.38241 v 0.76481 q -0.454751,0.19637 -0.862993,0.27905 -0.403075,0.0879 -0.976682,0.0879 z m -0.232543,-5.15212 q -0.682127,0 -1.090369,0.44442 -0.403075,0.44441 -0.475422,1.22989 h 2.96105 q 0,-0.81132 -0.361734,-1.24023 -0.361733,-0.43408 -1.033525,-0.43408 z" style="font-style:normal;font-variant:normal;font-weight:400;font-stretch:normal;font-family:'Open Sans';-inkscape-font-specification:'Open Sans';text-align:center;text-anchor:middle;fill:#1a1a1a;fill-opacity:1"/><path id="path1710" d="m 81.227024,148.12198 v -3.66385 q 0,-0.69246 -0.315225,-1.03352 -0.315225,-0.34106 -0.987017,-0.34106 -0.888832,0 -1.302242,0.48059 -0.41341,0.48058 -0.41341,1.58646 v 2.97138 h -0.857826 v -5.66372 h 0.69763 l 0.139526,0.77515 h 0.04134 q 0.263549,-0.41858 0.73897,-0.64596 0.475422,-0.23254 1.059364,-0.23254 1.02319,0 1.539953,0.49609 0.516762,0.49093 0.516762,1.57613 v 3.69485 z" style="font-style:normal;font-variant:normal;font-weight:400;font-stretch:normal;font-family:'Open Sans';-inkscape-font-specification:'Open Sans';text-align:center;text-anchor:middle;fill:#1a1a1a;fill-opacity:1"/><path id="path1712" d="m 85.676352,147.51737 q 0.227376,0 0.439249,-0.031 0.211872,-0.0362 0.335896,-0.0723 v 0.65629 q -0.139526,0.0672 -0.413411,0.10852 -0.268716,0.0465 -0.485757,0.0465 -1.643305,0 -1.643305,-1.73115 v -3.36929 h -0.811317 v -0.41341 l 0.811317,-0.35657 0.361734,-1.20922 h 0.496092 v 1.31257 h 1.643305 v 0.66663 H 84.76685 v 3.33312 q 0,0.51159 0.242879,0.78548 0.242878,0.27388 0.666623,0.27388 z" style="font-style:normal;font-variant:normal;font-weight:400;font-stretch:normal;font-family:'Open Sans';-inkscape-font-specification:'Open Sans';text-align:center;text-anchor:middle;fill:#1a1a1a;fill-opacity:1"/></g><g style="font-style:normal;font-weight:400;font-size:10.5833px;line-height:1.25;font-family:sans-serif;white-space:pre;shape-inside:url(#rect992);fill:#1a1a1a;fill-opacity:1;stroke:none" id="text990" aria-label="Authentication and Cloud Messaging" transform="matrix(0.29958024,0,0,0.29958024,37.958437,118.04894)"><path id="path1715" d="m 31.389536,134.87928 -0.940508,-2.40295 h -3.02823 l -0.930172,2.40295 h -0.888832 l 2.986888,-7.58608 h 0.738971 l 2.971385,7.58608 z m -1.214393,-3.1936 -0.878496,-2.34093 q -0.170532,-0.44442 -0.351399,-1.09037 -0.113688,0.49609 -0.32556,1.09037 l -0.888832,2.34093 z" style="font-style:normal;font-variant:normal;font-weight:400;font-stretch:normal;font-family:'Open Sans';-inkscape-font-specification:'Open Sans';text-align:center;text-anchor:middle;fill:#1a1a1a;fill-opacity:1"/><path id="path1717" d="m 34.01469,129.21556 v 3.67418 q 0,0.69246 0.315225,1.03352 0.315225,0.34107 0.987017,0.34107 0.888832,0 1.297074,-0.48576 0.41341,-0.48576 0.41341,-1.58646 v -2.97655 h 0.857826 v 5.66372 h -0.707964 l -0.124023,-0.75965 h -0.04651 q -0.263549,0.41858 -0.733803,0.64079 -0.465087,0.22221 -1.064531,0.22221 -1.033526,0 -1.550288,-0.49093 -0.511595,-0.49092 -0.511595,-1.57095 v -3.70519 z" style="font-style:normal;font-variant:normal;font-weight:400;font-stretch:normal;font-family:'Open Sans';-inkscape-font-specification:'Open Sans';text-align:center;text-anchor:middle;fill:#1a1a1a;fill-opacity:1"/><path id="path1719" d="m 41.533587,134.27466 q 0.227376,0 0.439248,-0.031 0.211873,-0.0362 0.335896,-0.0724 v 0.65629 q -0.139526,0.0672 -0.41341,0.10852 -0.268717,0.0465 -0.485757,0.0465 -1.643305,0 -1.643305,-1.73116 v -3.36929 h -0.811318 v -0.41341 l 0.811318,-0.35657 0.361734,-1.20922 h 0.496092 v 1.31258 h 1.643305 v 0.66662 h -1.643305 v 3.33312 q 0,0.51159 0.242878,0.78548 0.242879,0.27388 0.666624,0.27388 z" style="font-style:normal;font-variant:normal;font-weight:400;font-stretch:normal;font-family:'Open Sans';-inkscape-font-specification:'Open Sans';text-align:center;text-anchor:middle;fill:#1a1a1a;fill-opacity:1"/><path id="path1721" d="m 47.316162,134.87928 v -3.66385 q 0,-0.69246 -0.315225,-1.03353 -0.315226,-0.34106 -0.987017,-0.34106 -0.893999,0 -1.30741,0.48576 -0.408242,0.48575 -0.408242,1.59163 v 2.96105 h -0.857826 v -8.04083 h 0.857826 v 2.43395 q 0,0.43925 -0.04134,0.72864 h 0.05168 q 0.253214,-0.40825 0.7183,-0.64079 0.470254,-0.23771 1.069699,-0.23771 1.038693,0 1.555456,0.49609 0.52193,0.49093 0.52193,1.56579 v 3.69486 z" style="font-style:normal;font-variant:normal;font-weight:400;font-stretch:normal;font-family:'Open Sans';-inkscape-font-specification:'Open Sans';text-align:center;text-anchor:middle;fill:#1a1a1a;fill-opacity:1"/><path id="path1723" d="m 52.32876,134.98263 q -1.255734,0 -1.984369,-0.76481 -0.723468,-0.76481 -0.723468,-2.1239 0,-1.36942 0.671792,-2.17557 0.676959,-0.80615 1.813837,-0.80615 1.064531,0 1.684646,0.7028 0.620115,0.69763 0.620115,1.84484 v 0.54261 h -3.901558 q 0.02584,0.99735 0.50126,1.51411 0.480589,0.51676 1.34875,0.51676 0.91467,0 1.80867,-0.3824 v 0.76481 q -0.454751,0.19637 -0.862994,0.27905 -0.403075,0.0879 -0.976681,0.0879 z m -0.232544,-5.15213 q -0.682126,0 -1.090369,0.44442 -0.403075,0.44442 -0.475422,1.2299 h 2.961051 q 0,-0.81132 -0.361734,-1.24023 -0.361734,-0.43409 -1.033526,-0.43409 z" style="font-style:normal;font-variant:normal;font-weight:400;font-stretch:normal;font-family:'Open Sans';-inkscape-font-specification:'Open Sans';text-align:center;text-anchor:middle;fill:#1a1a1a;fill-opacity:1"/><path id="path1725" d="m 59.749471,134.87928 v -3.66385 q 0,-0.69246 -0.315225,-1.03353 -0.315225,-0.34106 -0.987016,-0.34106 -0.888832,0 -1.302242,0.48059 -0.413411,0.48059 -0.413411,1.58646 v 2.97139 h -0.857826 v -5.66372 h 0.69763 l 0.139526,0.77514 h 0.04134 q 0.263549,-0.41858 0.738971,-0.64595 0.475421,-0.23255 1.059363,-0.23255 1.02319,0 1.539953,0.4961 0.516763,0.49092 0.516763,1.57612 v 3.69486 z" style="font-style:normal;font-variant:normal;font-weight:400;font-stretch:normal;font-family:'Open Sans';-inkscape-font-specification:'Open Sans';text-align:center;text-anchor:middle;fill:#1a1a1a;fill-opacity:1"/><path id="path1727" d="m 64.198798,134.27466 q 0.227375,0 0.439248,-0.031 0.211873,-0.0362 0.335896,-0.0724 v 0.65629 q -0.139526,0.0672 -0.41341,0.10852 -0.268717,0.0465 -0.485757,0.0465 -1.643306,0 -1.643306,-1.73116 v -3.36929 h -0.811317 v -0.41341 l 0.811317,-0.35657 0.361734,-1.20922 h 0.496093 v 1.31258 h 1.643305 v 0.66662 h -1.643305 v 3.33312 q 0,0.51159 0.242878,0.78548 0.242878,0.27388 0.666624,0.27388 z" style="font-style:normal;font-variant:normal;font-weight:400;font-stretch:normal;font-family:'Open Sans';-inkscape-font-specification:'Open Sans';text-align:center;text-anchor:middle;fill:#1a1a1a;fill-opacity:1"/><path id="path1729" d="m 66.963479,134.87928 h -0.857826 v -5.66372 h 0.857826 z m -0.930173,-7.19851 q 0,-0.29455 0.144693,-0.42891 0.144694,-0.13953 0.361734,-0.13953 0.206705,0 0.356566,0.13953 0.149862,0.13952 0.149862,0.42891 0,0.28939 -0.149862,0.43408 -0.149861,0.13953 -0.356566,0.13953 -0.21704,0 -0.361734,-0.13953 -0.144693,-0.14469 -0.144693,-0.43408 z" style="font-style:normal;font-variant:normal;font-weight:400;font-stretch:normal;font-family:'Open Sans';-inkscape-font-specification:'Open Sans';text-align:center;text-anchor:middle;fill:#1a1a1a;fill-opacity:1"/><path id="path1731" d="m 71.045903,134.98263 q -1.229895,0 -1.906854,-0.75448 -0.671791,-0.75964 -0.671791,-2.14456 0,-1.4211 0.682126,-2.19624 0.687295,-0.77515 1.953363,-0.77515 0.408243,0 0.816485,0.0879 0.408243,0.0879 0.640786,0.20671 l -0.263549,0.72863 q -0.284219,-0.11368 -0.620115,-0.18603 -0.335896,-0.0775 -0.594277,-0.0775 -1.725988,0 -1.725988,2.2014 0,1.04387 0.418578,1.60197 0.423746,0.5581 1.250566,0.5581 0.707965,0 1.452103,-0.30489 v 0.75964 q -0.568439,0.29456 -1.431433,0.29456 z" style="font-style:normal;font-variant:normal;font-weight:400;font-stretch:normal;font-family:'Open Sans';-inkscape-font-specification:'Open Sans';text-align:center;text-anchor:middle;fill:#1a1a1a;fill-opacity:1"/><path id="path1733" d="m 77.3039,134.87928 -0.170532,-0.80615 h -0.04134 q -0.423745,0.53226 -0.84749,0.72346 -0.418578,0.18604 -1.049029,0.18604 -0.842323,0 -1.322912,-0.43408 -0.475422,-0.43408 -0.475422,-1.23507 0,-1.71565 2.74401,-1.79833 l 0.961179,-0.031 v -0.35139 q 0,-0.66663 -0.289387,-0.98185 -0.28422,-0.3204 -0.91467,-0.3204 -0.707965,0 -1.601965,0.43409 l -0.263549,-0.65629 q 0.418578,-0.22738 0.91467,-0.35657 0.50126,-0.12919 1.00252,-0.12919 1.012855,0 1.498612,0.44958 0.490924,0.44959 0.490924,1.44177 v 3.86539 z m -1.93786,-0.60462 q 0.800982,0 1.255733,-0.43924 0.459919,-0.43925 0.459919,-1.2299 v -0.5116 l -0.857826,0.0362 q -1.02319,0.0362 -1.477941,0.32039 -0.449584,0.27905 -0.449584,0.87333 0,0.46509 0.279052,0.70796 0.28422,0.24288 0.790647,0.24288 z" style="font-style:normal;font-variant:normal;font-weight:400;font-stretch:normal;font-family:'Open Sans';-inkscape-font-specification:'Open Sans';text-align:center;text-anchor:middle;fill:#1a1a1a;fill-opacity:1"/><path id="path1735" d="m 81.536185,134.27466 q 0.227375,0 0.439248,-0.031 0.211873,-0.0362 0.335896,-0.0724 v 0.65629 q -0.139526,0.0672 -0.41341,0.10852 -0.268717,0.0465 -0.485757,0.0465 -1.643305,0 -1.643305,-1.73116 v -3.36929 h -0.811318 v -0.41341 l 0.811318,-0.35657 0.361733,-1.20922 h 0.496093 v 1.31258 h 1.643305 v 0.66662 h -1.643305 v 3.33312 q 0,0.51159 0.242878,0.78548 0.242879,0.27388 0.666624,0.27388 z" style="font-style:normal;font-variant:normal;font-weight:400;font-stretch:normal;font-family:'Open Sans';-inkscape-font-specification:'Open Sans';text-align:center;text-anchor:middle;fill:#1a1a1a;fill-opacity:1"/><path id="path1737" d="M 84.300866,134.87928 H 83.44304 v -5.66372 h 0.857826 z m -0.930173,-7.19851 q 0,-0.29455 0.144693,-0.42891 0.144694,-0.13953 0.361734,-0.13953 0.206705,0 0.356567,0.13953 0.149861,0.13952 0.149861,0.42891 0,0.28939 -0.149861,0.43408 -0.149862,0.13953 -0.356567,0.13953 -0.21704,0 -0.361734,-0.13953 -0.144693,-0.14469 -0.144693,-0.43408 z" style="font-style:normal;font-variant:normal;font-weight:400;font-stretch:normal;font-family:'Open Sans';-inkscape-font-specification:'Open Sans';text-align:center;text-anchor:middle;fill:#1a1a1a;fill-opacity:1"/><path id="path1739" d="m 91.008445,132.04225 q 0,1.38492 -0.69763,2.16523 -0.697629,0.77515 -1.927525,0.77515 -0.759641,0 -1.34875,-0.35657 -0.58911,-0.35656 -0.909502,-1.02319 -0.320393,-0.66662 -0.320393,-1.56062 0,-1.38493 0.692462,-2.1549 0.692462,-0.77515 1.922357,-0.77515 1.188554,0 1.886184,0.79065 0.702797,0.79065 0.702797,2.1394 z m -4.314968,0 q 0,1.0852 0.43408,1.65364 0.434081,0.56844 1.276404,0.56844 0.842323,0 1.276404,-0.56327 0.439248,-0.56844 0.439248,-1.65881 0,-1.08004 -0.439248,-1.63814 -0.434081,-0.56327 -1.286739,-0.56327 -0.842323,0 -1.271236,0.55294 -0.428913,0.55293 -0.428913,1.64847 z" style="font-style:normal;font-variant:normal;font-weight:400;font-stretch:normal;font-family:'Open Sans';-inkscape-font-specification:'Open Sans';text-align:center;text-anchor:middle;fill:#1a1a1a;fill-opacity:1"/><path id="path1741" d="m 96.387947,134.87928 v -3.66385 q 0,-0.69246 -0.315225,-1.03353 -0.315226,-0.34106 -0.987017,-0.34106 -0.888832,0 -1.302242,0.48059 -0.41341,0.48059 -0.41341,1.58646 v 2.97139 h -0.857826 v -5.66372 h 0.697629 l 0.139526,0.77514 h 0.04134 q 0.263549,-0.41858 0.738971,-0.64595 0.475422,-0.23255 1.059363,-0.23255 1.023191,0 1.539953,0.4961 0.516763,0.49092 0.516763,1.57612 v 3.69486 z" style="font-style:normal;font-variant:normal;font-weight:400;font-stretch:normal;font-family:'Open Sans';-inkscape-font-specification:'Open Sans';text-align:center;text-anchor:middle;fill:#1a1a1a;fill-opacity:1"/><path id="path1743" d="m 105.24009,134.87928 -0.17053,-0.80615 h -0.0413 q -0.42375,0.53226 -0.8475,0.72346 -0.41857,0.18604 -1.04902,0.18604 -0.84233,0 -1.32292,-0.43408 -0.47542,-0.43408 -0.47542,-1.23507 0,-1.71565 2.74401,-1.79833 l 0.96118,-0.031 v -0.35139 q 0,-0.66663 -0.28939,-0.98185 -0.28422,-0.3204 -0.91467,-0.3204 -0.70796,0 -1.60196,0.43409 l -0.26355,-0.65629 q 0.41858,-0.22738 0.91467,-0.35657 0.50126,-0.12919 1.00252,-0.12919 1.01285,0 1.49861,0.44958 0.49093,0.44959 0.49093,1.44177 v 3.86539 z m -1.93786,-0.60462 q 0.80098,0 1.25573,-0.43924 0.45992,-0.43925 0.45992,-1.2299 v -0.5116 l -0.85783,0.0362 q -1.02319,0.0362 -1.47794,0.32039 -0.44958,0.27905 -0.44958,0.87333 0,0.46509 0.27905,0.70796 0.28422,0.24288 0.79065,0.24288 z" style="font-style:normal;font-variant:normal;font-weight:400;font-stretch:normal;font-family:'Open Sans';-inkscape-font-specification:'Open Sans';text-align:center;text-anchor:middle;fill:#1a1a1a;fill-opacity:1"/><path id="path1745" d="m 111.51876,134.87928 v -3.66385 q 0,-0.69246 -0.31522,-1.03353 -0.31523,-0.34106 -0.98702,-0.34106 -0.88883,0 -1.30224,0.48059 -0.41341,0.48059 -0.41341,1.58646 v 2.97139 h -0.85783 v -5.66372 h 0.69763 l 0.13953,0.77514 h 0.0413 q 0.26355,-0.41858 0.73897,-0.64595 0.47542,-0.23255 1.05936,-0.23255 1.02319,0 1.53995,0.4961 0.51677,0.49092 0.51677,1.57612 v 3.69486 z" style="font-style:normal;font-variant:normal;font-weight:400;font-stretch:normal;font-family:'Open Sans';-inkscape-font-specification:'Open Sans';text-align:center;text-anchor:middle;fill:#1a1a1a;fill-opacity:1"/><path id="path1747" d="m 117.99379,134.11963 h -0.0465 q -0.59428,0.863 -1.77767,0.863 -1.11104,0 -1.73115,-0.75964 -0.61495,-0.75964 -0.61495,-2.16007 0,-1.40043 0.62012,-2.17557 0.62011,-0.77515 1.72598,-0.77515 1.15238,0 1.76733,0.83716 h 0.0672 l -0.0362,-0.40824 -0.0207,-0.39791 v -2.30476 h 0.85782 v 8.04083 h -0.69763 z m -1.71565,0.1447 q 0.8785,0 1.27124,-0.47542 0.39791,-0.48059 0.39791,-1.54512 v -0.18087 q 0,-1.20406 -0.40308,-1.71565 -0.39791,-0.51677 -1.2764,-0.51677 -0.75448,0 -1.15755,0.58911 -0.39791,0.58395 -0.39791,1.65364 0,1.08521 0.39791,1.63814 0.39791,0.55294 1.16788,0.55294 z" style="font-style:normal;font-variant:normal;font-weight:400;font-stretch:normal;font-family:'Open Sans';-inkscape-font-specification:'Open Sans';text-align:center;text-anchor:middle;fill:#1a1a1a;fill-opacity:1"/><path id="path1749" d="m 35.07147,141.24387 q -1.245398,0 -1.968866,0.83199 -0.7183,0.82682 -0.7183,2.26859 0,1.48311 0.692462,2.29442 0.697629,0.80615 1.984369,0.80615 0.790646,0 1.803501,-0.28422 v 0.76998 q -0.785479,0.29455 -1.93786,0.29455 -1.669143,0 -2.578646,-1.01285 -0.904334,-1.01286 -0.904334,-2.87837 0,-1.16788 0.43408,-2.04638 0.439249,-0.8785 1.260901,-1.35392 0.826821,-0.47542 1.943028,-0.47542 1.188554,0 2.077386,0.43408 l -0.372069,0.75448 q -0.857826,-0.40308 -1.715652,-0.40308 z" style="font-style:normal;font-variant:normal;font-weight:400;font-stretch:normal;font-family:'Open Sans';-inkscape-font-specification:'Open Sans';text-align:center;text-anchor:middle;fill:#1a1a1a;fill-opacity:1"/><path id="path1751" d="m 39.241745,148.12198 h -0.857827 v -8.04083 h 0.857827 z" style="font-style:normal;font-variant:normal;font-weight:400;font-stretch:normal;font-family:'Open Sans';-inkscape-font-specification:'Open Sans';text-align:center;text-anchor:middle;fill:#1a1a1a;fill-opacity:1"/><path id="path1753" d="m 45.949325,145.28495 q 0,1.38493 -0.69763,2.16524 -0.69763,0.77514 -1.927525,0.77514 -0.759641,0 -1.34875,-0.35656 -0.58911,-0.35657 -0.909503,-1.02319 -0.320392,-0.66663 -0.320392,-1.56063 0,-1.38492 0.692461,-2.1549 0.692462,-0.77514 1.922358,-0.77514 1.188554,0 1.886183,0.79065 0.702798,0.79064 0.702798,2.13939 z m -4.314969,0 q 0,1.08521 0.434081,1.65365 0.434081,0.56843 1.276404,0.56843 0.842323,0 1.276404,-0.56327 0.439248,-0.56844 0.439248,-1.65881 0,-1.08003 -0.439248,-1.63813 -0.434081,-0.56327 -1.286739,-0.56327 -0.842324,0 -1.271237,0.55293 -0.428913,0.55294 -0.428913,1.64847 z" style="font-style:normal;font-variant:normal;font-weight:400;font-stretch:normal;font-family:'Open Sans';-inkscape-font-specification:'Open Sans';text-align:center;text-anchor:middle;fill:#1a1a1a;fill-opacity:1"/><path id="path1755" d="m 48.259254,142.45826 v 3.67419 q 0,0.69246 0.315225,1.03352 0.315225,0.34106 0.987016,0.34106 0.888832,0 1.297075,-0.48575 0.41341,-0.48576 0.41341,-1.58646 v -2.97656 h 0.857826 v 5.66372 h -0.707965 l -0.124023,-0.75964 h -0.04651 q -0.263549,0.41858 -0.733803,0.64079 -0.465086,0.2222 -1.064531,0.2222 -1.033525,0 -1.550288,-0.49092 -0.511595,-0.49092 -0.511595,-1.57096 v -3.70519 z" style="font-style:normal;font-variant:normal;font-weight:400;font-stretch:normal;font-family:'Open Sans';-inkscape-font-specification:'Open Sans';text-align:center;text-anchor:middle;fill:#1a1a1a;fill-opacity:1"/><path id="path1757" d="m 57.803861,147.36234 h -0.04651 q -0.594277,0.86299 -1.777663,0.86299 -1.11104,0 -1.731155,-0.75964 -0.614948,-0.75964 -0.614948,-2.16006 0,-1.40043 0.620115,-2.17558 0.620115,-0.77514 1.725988,-0.77514 1.15238,0 1.767328,0.83716 h 0.06718 l -0.03617,-0.40825 -0.02067,-0.3979 v -2.30477 h 0.857826 v 8.04083 h -0.697629 z m -1.715652,0.14469 q 0.878496,0 1.271236,-0.47542 0.397907,-0.48059 0.397907,-1.54512 v -0.18086 q 0,-1.20406 -0.403075,-1.71566 -0.397907,-0.51676 -1.276404,-0.51676 -0.754473,0 -1.157548,0.58911 -0.397907,0.58394 -0.397907,1.65364 0,1.0852 0.397907,1.63814 0.397907,0.55293 1.167884,0.55293 z" style="font-style:normal;font-variant:normal;font-weight:400;font-stretch:normal;font-family:'Open Sans';-inkscape-font-specification:'Open Sans';text-align:center;text-anchor:middle;fill:#1a1a1a;fill-opacity:1"/><path id="path1759" d="m 66.656005,148.12198 -2.563143,-6.69724 h -0.04134 q 0.07235,0.79581 0.07235,1.89135 v 4.80589 h -0.811317 v -7.55507 h 1.322912 l 2.392611,6.23216 h 0.04134 l 2.413282,-6.23216 h 1.312577 v 7.55507 h -0.878496 v -4.8679 q 0,-0.83716 0.07235,-1.81901 h -0.04134 l -2.583813,6.68691 z" style="font-style:normal;font-variant:normal;font-weight:400;font-stretch:normal;font-family:'Open Sans';-inkscape-font-specification:'Open Sans';text-align:center;text-anchor:middle;fill:#1a1a1a;fill-opacity:1"/><path id="path1761" d="m 75.130912,148.22533 q -1.255733,0 -1.984368,-0.7648 -0.723468,-0.76481 -0.723468,-2.1239 0,-1.36942 0.671791,-2.17557 0.676959,-0.80615 1.813837,-0.80615 1.064531,0 1.684647,0.7028 0.620115,0.69763 0.620115,1.84484 v 0.5426 h -3.901558 q 0.02584,0.99735 0.501259,1.51412 0.48059,0.51676 1.348751,0.51676 0.91467,0 1.808669,-0.38241 v 0.76481 q -0.454751,0.19637 -0.862993,0.27905 -0.403075,0.0879 -0.976682,0.0879 z m -0.232543,-5.15212 q -0.682127,0 -1.090369,0.44442 -0.403075,0.44441 -0.475422,1.22989 h 2.96105 q 0,-0.81132 -0.361734,-1.24023 -0.361734,-0.43408 -1.033525,-0.43408 z" style="font-style:normal;font-variant:normal;font-weight:400;font-stretch:normal;font-family:'Open Sans';-inkscape-font-specification:'Open Sans';text-align:center;text-anchor:middle;fill:#1a1a1a;fill-opacity:1"/><path id="path1763" d="m 82.329416,146.57686 q 0,0.79065 -0.589109,1.21956 -0.58911,0.42891 -1.653641,0.42891 -1.126543,0 -1.756993,-0.35656 v -0.79582 q 0.408243,0.20671 0.873329,0.32556 0.470254,0.11886 0.904335,0.11886 0.671791,0 1.033525,-0.21187 0.361734,-0.21704 0.361734,-0.65629 0,-0.33073 -0.289387,-0.56327 -0.28422,-0.23771 -1.116208,-0.55811 -0.790647,-0.29455 -1.126542,-0.51159 -0.330728,-0.22221 -0.496092,-0.50126 -0.160197,-0.27905 -0.160197,-0.66663 0,-0.69246 0.563271,-1.09036 0.563272,-0.40308 1.545121,-0.40308 0.91467,0 1.787999,0.37207 l -0.30489,0.69763 q -0.852659,-0.3514 -1.545121,-0.3514 -0.60978,0 -0.919837,0.1912 -0.310058,0.19121 -0.310058,0.5271 0,0.22738 0.113688,0.38757 0.118855,0.1602 0.377237,0.30489 0.258381,0.1447 0.992184,0.41858 1.007687,0.3669 1.359086,0.73897 0.356566,0.37207 0.356566,0.93534 z" style="font-style:normal;font-variant:normal;font-weight:400;font-stretch:normal;font-family:'Open Sans';-inkscape-font-specification:'Open Sans';text-align:center;text-anchor:middle;fill:#1a1a1a;fill-opacity:1"/><path id="path1765" d="m 87.378187,146.57686 q 0,0.79065 -0.589109,1.21956 -0.58911,0.42891 -1.653641,0.42891 -1.126543,0 -1.756993,-0.35656 v -0.79582 q 0.408242,0.20671 0.873329,0.32556 0.470254,0.11886 0.904335,0.11886 0.671791,0 1.033525,-0.21187 0.361734,-0.21704 0.361734,-0.65629 0,-0.33073 -0.289387,-0.56327 -0.28422,-0.23771 -1.116208,-0.55811 -0.790647,-0.29455 -1.126542,-0.51159 -0.330728,-0.22221 -0.496093,-0.50126 -0.160196,-0.27905 -0.160196,-0.66663 0,-0.69246 0.563271,-1.09036 0.563272,-0.40308 1.545121,-0.40308 0.91467,0 1.787999,0.37207 l -0.30489,0.69763 q -0.852659,-0.3514 -1.545121,-0.3514 -0.60978,0 -0.919837,0.1912 -0.310058,0.19121 -0.310058,0.5271 0,0.22738 0.113688,0.38757 0.118855,0.1602 0.377237,0.30489 0.258381,0.1447 0.992184,0.41858 1.007687,0.3669 1.359086,0.73897 0.356566,0.37207 0.356566,0.93534 z" style="font-style:normal;font-variant:normal;font-weight:400;font-stretch:normal;font-family:'Open Sans';-inkscape-font-specification:'Open Sans';text-align:center;text-anchor:middle;fill:#1a1a1a;fill-opacity:1"/><path id="path1767" d="m 92.256426,148.12198 -0.170531,-0.80615 h -0.04134 q -0.423746,0.53227 -0.847491,0.72347 -0.418578,0.18603 -1.049028,0.18603 -0.842324,0 -1.322913,-0.43408 -0.475422,-0.43408 -0.475422,-1.23506 0,-1.71565 2.74401,-1.79833 l 0.961179,-0.031 v -0.3514 q 0,-0.66662 -0.289387,-0.98185 -0.28422,-0.32039 -0.91467,-0.32039 -0.707965,0 -1.601965,0.43408 l -0.263549,-0.6563 q 0.418577,-0.22737 0.914669,-0.35656 0.50126,-0.12919 1.00252,-0.12919 1.012855,0 1.498612,0.44958 0.490924,0.44958 0.490924,1.44177 v 3.86538 z m -1.93786,-0.60461 q 0.800982,0 1.255734,-0.43925 0.459918,-0.43925 0.459918,-1.22989 v -0.5116 l -0.857826,0.0362 q -1.02319,0.0362 -1.477941,0.3204 -0.449584,0.27905 -0.449584,0.87333 0,0.46508 0.279052,0.70796 0.28422,0.24288 0.790647,0.24288 z" style="font-style:normal;font-variant:normal;font-weight:400;font-stretch:normal;font-family:'Open Sans';-inkscape-font-specification:'Open Sans';text-align:center;text-anchor:middle;fill:#1a1a1a;fill-opacity:1"/><path id="path1769" d="m 99.294736,142.45826 v 0.5426 l -1.049028,0.12403 q 0.144693,0.18086 0.258381,0.47542 0.113688,0.28939 0.113688,0.65629 0,0.83199 -0.568439,1.32808 -0.568439,0.49609 -1.560623,0.49609 -0.253214,0 -0.475422,-0.0413 -0.547768,0.28939 -0.547768,0.72863 0,0.23255 0.191202,0.34623 0.191202,0.10852 0.656288,0.10852 h 1.00252 q 0.919838,0 1.410762,0.38758 0.496092,0.38757 0.496092,1.12654 0,0.94051 -0.754473,1.43143 -0.754474,0.49609 -2.201409,0.49609 -1.11104,0 -1.715652,-0.41341 -0.599445,-0.41341 -0.599445,-1.16788 0,-0.51676 0.330728,-0.894 0.330728,-0.37724 0.930173,-0.51159 -0.21704,-0.0982 -0.366902,-0.30489 -0.144693,-0.20671 -0.144693,-0.48059 0,-0.31006 0.165364,-0.5426 0.165364,-0.23255 0.52193,-0.44959 -0.439248,-0.18086 -0.7183,-0.61495 -0.273884,-0.43408 -0.273884,-0.99218 0,-0.93017 0.558104,-1.43143 0.558103,-0.50643 1.581293,-0.50643 0.444416,0 0.800983,0.10335 z m -4.516506,6.61457 q 0,0.45991 0.387572,0.69762 0.387572,0.23772 1.11104,0.23772 1.080034,0 1.596797,-0.32556 0.52193,-0.3204 0.52193,-0.87333 0,-0.45992 -0.284219,-0.64079 -0.28422,-0.1757 -1.069699,-0.1757 h -1.028358 q -0.583942,0 -0.909502,0.27905 -0.325561,0.27906 -0.325561,0.80099 z m 0.465087,-4.80073 q 0,0.59428 0.335895,0.89917 0.335896,0.30489 0.935341,0.30489 1.255733,0 1.255733,-1.21956 0,-1.27641 -1.271236,-1.27641 -0.604612,0 -0.930173,0.32556 -0.32556,0.32556 -0.32556,0.96635 z" style="font-style:normal;font-variant:normal;font-weight:400;font-stretch:normal;font-family:'Open Sans';-inkscape-font-specification:'Open Sans';text-align:center;text-anchor:middle;fill:#1a1a1a;fill-opacity:1"/><path id="path1771" d="m 101.31528,148.12198 h -0.85783 v -5.66372 h 0.85783 z m -0.93018,-7.1985 q 0,-0.29456 0.1447,-0.42892 0.14469,-0.13952 0.36173,-0.13952 0.20671,0 0.35657,0.13952 0.14986,0.13953 0.14986,0.42892 0,0.28939 -0.14986,0.43408 -0.14986,0.13952 -0.35657,0.13952 -0.21704,0 -0.36173,-0.13952 -0.1447,-0.14469 -0.1447,-0.43408 z" style="font-style:normal;font-variant:normal;font-weight:400;font-stretch:normal;font-family:'Open Sans';-inkscape-font-specification:'Open Sans';text-align:center;text-anchor:middle;fill:#1a1a1a;fill-opacity:1"/><path id="path1773" d="m 107.01001,148.12198 v -3.66385 q 0,-0.69246 -0.31523,-1.03352 -0.31522,-0.34106 -0.98702,-0.34106 -0.88883,0 -1.30224,0.48059 -0.41341,0.48058 -0.41341,1.58646 v 2.97138 h -0.85782 v -5.66372 h 0.69763 l 0.13952,0.77515 h 0.0413 q 0.26355,-0.41858 0.73897,-0.64596 0.47542,-0.23254 1.05937,-0.23254 1.02319,0 1.53995,0.49609 0.51676,0.49093 0.51676,1.57613 v 3.69485 z" style="font-style:normal;font-variant:normal;font-weight:400;font-stretch:normal;font-family:'Open Sans';-inkscape-font-specification:'Open Sans';text-align:center;text-anchor:middle;fill:#1a1a1a;fill-opacity:1"/><path id="path1775" d="m 114.26535,142.45826 v 0.5426 l -1.04903,0.12403 q 0.1447,0.18086 0.25838,0.47542 0.11369,0.28939 0.11369,0.65629 0,0.83199 -0.56844,1.32808 -0.56844,0.49609 -1.56062,0.49609 -0.25321,0 -0.47542,-0.0413 -0.54777,0.28939 -0.54777,0.72863 0,0.23255 0.1912,0.34623 0.1912,0.10852 0.65629,0.10852 h 1.00252 q 0.91984,0 1.41076,0.38758 0.49609,0.38757 0.49609,1.12654 0,0.94051 -0.75447,1.43143 -0.75447,0.49609 -2.20141,0.49609 -1.11104,0 -1.71565,-0.41341 -0.59944,-0.41341 -0.59944,-1.16788 0,-0.51676 0.33072,-0.894 0.33073,-0.37724 0.93018,-0.51159 -0.21704,-0.0982 -0.36691,-0.30489 -0.14469,-0.20671 -0.14469,-0.48059 0,-0.31006 0.16537,-0.5426 0.16536,-0.23255 0.52193,-0.44959 -0.43925,-0.18086 -0.7183,-0.61495 -0.27389,-0.43408 -0.27389,-0.99218 0,-0.93017 0.55811,-1.43143 0.5581,-0.50643 1.58129,-0.50643 0.44441,0 0.80098,0.10335 z m -4.5165,6.61457 q 0,0.45991 0.38757,0.69762 0.38757,0.23772 1.11104,0.23772 1.08003,0 1.59679,-0.32556 0.52193,-0.3204 0.52193,-0.87333 0,-0.45992 -0.28422,-0.64079 -0.28421,-0.1757 -1.06969,-0.1757 h -1.02836 q -0.58394,0 -0.9095,0.27905 -0.32556,0.27906 -0.32556,0.80099 z m 0.46508,-4.80073 q 0,0.59428 0.3359,0.89917 0.33589,0.30489 0.93534,0.30489 1.25573,0 1.25573,-1.21956 0,-1.27641 -1.27123,-1.27641 -0.60462,0 -0.93018,0.32556 -0.32556,0.32556 -0.32556,0.96635 z" style="font-style:normal;font-variant:normal;font-weight:400;font-stretch:normal;font-family:'Open Sans';-inkscape-font-specification:'Open Sans';text-align:center;text-anchor:middle;fill:#1a1a1a;fill-opacity:1"/></g><g id="g1073" transform="translate(-7.009764)"><g id="g853" transform="matrix(0.26458333,0,0,0.26458333,26.062703,87.872366)" style="fill:none"><path id="path835" fill="#8e75ff" fill-rule="evenodd" d="M 25.979,4.727 H 8.751 v 8.638 h 8.477 c 0.302,0 0.547,0.245 0.547,0.547 v 8.36 h 8.751 V 5.275 A 0.547,0.547 0 0 0 25.979,4.727 Z" clip-rule="evenodd"/><path id="path837" fill="#8e75ff" fill-rule="evenodd" d="m 8.75,4.727 v 8.638 H 0.668 A 0.274,0.274 0 0 1 0.476,12.896 Z m 9.491,25.723 a 0.274,0.274 0 0 1 -0.466,-0.195 v -7.983 h 8.751 l -8.285,8.177 z" clip-rule="evenodd" opacity=".405"/><path id="path839" fill="#8e75ff" d="m 8.75,13.365 h 8.752 c 0.15,0 0.273,0.122 0.273,0.273 v 8.634 H 9.298 A 0.547,0.547 0 0 1 8.751,21.725 v -8.36 z" opacity=".405"/><path style="fill:#2f2e8b;fill-opacity:1" id="path841" fill="#fff" fill-rule="evenodd" d="m 114.771,4.182 c 0.489,0.484 1.066,0.725 1.732,0.725 0.687,0 1.275,-0.241 1.764,-0.725 C 118.756,3.698 119,3.128 119,2.469 119,1.811 118.756,1.235 118.267,0.741 A 2.393,2.393 0 0 0 116.503,0 c -0.666,0 -1.243,0.247 -1.732,0.74 -0.489,0.495 -0.733,1.07 -0.733,1.73 0,0.658 0.244,1.228 0.733,1.712 z m -53.06,6.312 c 0,0.05 -0.042,0.092 -0.093,0.092 h -3.435 v 6.42 c 0,0.535 0.136,0.926 0.406,1.173 0.27,0.247 0.666,0.385 1.186,0.416 0.476,0.029 1.056,0.027 1.741,-0.005 l 0.097,-0.005 a 0.092,0.092 0 0 1 0.097,0.092 v 3.431 A 0.092,0.092 0 0 1 61.628,22.2 l -0.063,0.007 c -2.69,0.283 -4.593,0.02 -5.707,-0.788 -1.134,-0.823 -1.7,-2.294 -1.7,-4.413 v -6.42 H 51.534 A 0.092,0.092 0 0 1 51.442,10.494 V 6.851 c 0,-0.05 0.041,-0.092 0.092,-0.092 h 2.623 V 4.212 c 0,-0.074 0.044,-0.14 0.111,-0.17 l 3.786,-1.647 a 0.092,0.092 0 0 1 0.13,0.084 v 4.28 h 3.434 c 0.05,0 0.092,0.041 0.092,0.092 v 3.643 z m 7.3,-1.08 c 0.374,-0.988 0.993,-1.729 1.856,-2.223 a 5.65,5.65 0 0 1 2.794,-0.74 c 0.051,0 0.093,0.041 0.093,0.093 v 4.185 a 0.15,0.15 0 0 1 -0.165,0.149 c -1.161,-0.104 -2.204,0.149 -3.128,0.758 -0.967,0.637 -1.45,1.697 -1.45,3.179 v 7.284 a 0.092,0.092 0 0 1 -0.093,0.092 H 65.076 A 0.092,0.092 0 0 1 64.984,22.099 V 6.85 c 0,-0.05 0.041,-0.092 0.092,-0.092 h 3.842 c 0.05,0 0.092,0.041 0.092,0.092 V 9.412 Z M 88.047,6.759 a 0.092,0.092 0 0 0 -0.093,0.092 v 1.73 C 86.748,7.078 85.052,6.327 82.867,6.327 c -2.08,0 -3.865,0.787 -5.352,2.361 -1.488,1.574 -2.232,3.503 -2.232,5.787 0,2.284 0.744,4.213 2.232,5.787 1.487,1.574 3.272,2.361 5.352,2.361 2.185,0 3.88,-0.751 5.087,-2.253 v 1.729 c 0,0.05 0.042,0.092 0.093,0.092 h 3.841 c 0.051,0 0.093,-0.041 0.093,-0.092 V 6.85 A 0.092,0.092 0 0 0 91.888,6.758 h -3.841 z m -7.52,10.864 c 0.811,0.803 1.84,1.204 3.09,1.204 1.248,0 2.283,-0.407 3.105,-1.22 0.822,-0.812 1.232,-1.856 1.232,-3.132 0,-1.276 -0.41,-2.32 -1.232,-3.133 -0.822,-0.812 -1.857,-1.219 -3.106,-1.219 -1.248,0 -2.278,0.407 -3.09,1.22 -0.81,0.812 -1.217,1.856 -1.217,3.132 0,1.276 0.406,2.325 1.218,3.148 z m 29.35,-8.935 c -1.488,-1.574 -3.283,-2.361 -5.384,-2.361 -2.185,0 -3.87,0.751 -5.056,2.253 V 6.851 A 0.092,0.092 0 0 0 99.345,6.759 h -3.842 a 0.092,0.092 0 0 0 -0.092,0.092 v 21.42 c 0,0.051 0.041,0.093 0.092,0.093 h 3.842 c 0.05,0 0.092,-0.042 0.092,-0.093 V 20.37 c 1.186,1.502 2.871,2.253 5.056,2.253 2.101,0 3.896,-0.787 5.384,-2.361 1.487,-1.574 2.231,-3.503 2.231,-5.787 0,-2.284 -0.744,-4.213 -2.231,-5.787 z m -9.223,8.935 c 0.812,0.803 1.841,1.204 3.09,1.204 1.248,0 2.283,-0.407 3.105,-1.22 0.822,-0.812 1.233,-1.856 1.233,-3.132 0,-1.276 -0.411,-2.32 -1.233,-3.133 -0.822,-0.812 -1.857,-1.219 -3.105,-1.219 -1.249,0 -2.278,0.407 -3.09,1.22 -0.811,0.812 -1.217,1.856 -1.217,3.132 0,1.276 0.406,2.325 1.217,3.148 z m 13.944,4.568 a 0.092,0.092 0 0 1 -0.092,-0.092 V 6.85 c 0,-0.05 0.041,-0.092 0.092,-0.092 h 3.842 c 0.051,0 0.092,0.041 0.092,0.092 V 22.1 a 0.092,0.092 0 0 1 -0.092,0.092 h -3.842 z M 42.813,12.145 c -0.552,-0.257 -0.827,-0.592 -0.827,-1.003 0,-0.391 0.171,-0.7 0.515,-0.926 0.343,-0.226 0.775,-0.34 1.295,-0.34 0.997,0 1.75,0.385 2.26,1.154 a 0.133,0.133 0 0 0 0.163,0.05 l 3.398,-1.487 a 0.092,0.092 0 0 0 0.042,-0.13 8.523,8.523 0 0 0 -0.12,-0.194 C 48.958,8.364 48.205,7.689 47.26,7.176 46.22,6.61 45.065,6.327 43.796,6.327 c -1.686,0 -3.095,0.437 -4.23,1.312 -1.133,0.874 -1.7,2.073 -1.7,3.595 0,1.009 0.276,1.847 0.827,2.516 a 4.867,4.867 0 0 0 2.013,1.466 c 0.79,0.308 1.581,0.566 2.372,0.771 0.79,0.206 1.462,0.438 2.013,0.695 0.551,0.257 0.827,0.591 0.827,1.003 0,0.885 -0.718,1.327 -2.153,1.327 -1.367,0 -2.314,-0.5 -2.841,-1.498 a 0.185,0.185 0 0 0 -0.238,-0.087 l -3.388,1.485 a 0.092,0.092 0 0 0 -0.046,0.124 l 0.038,0.077 c 1.184,2.34 3.342,3.51 6.475,3.51 1.789,0 3.282,-0.427 4.478,-1.28 1.197,-0.855 1.795,-2.074 1.795,-3.658 0,-1.05 -0.276,-1.924 -0.827,-2.624 a 4.6,4.6 0 0 0 -2.013,-1.496 20.991,20.991 0 0 0 -2.372,-0.741 c -0.791,-0.196 -1.462,-0.422 -2.013,-0.68 z" clip-rule="evenodd"/></g><g id="g1023" transform="matrix(0.07950892,0,0,0.07950892,65.115814,87.947486)"><path id="path994" fill="#10aa50" d="M 44,39.7 C 38.7,16.5 27.8,10.3 25,6 23.4,3.6 21.9,0 21.9,0 21.8,2 21.5,3.4 19.7,4.9 16.2,8 1.3,20.2 0.1,46.5 c -1.2,24.5 18,39.7 20.6,41.3 2,1 4.3,0 5.5,-0.9 C 35.4,80.6 48.1,63.6 44,39.7"/><path id="path996" fill="#b8c4c2" d="m 22.7,74.7 c -0.5,6.1 -0.8,9.6 -2.1,13.1 A 349.35,349.35 0 0 0 22,99.7 h 2 C 24.7,92.8 26.2,86.9 26.2,86.9 23.6,85.6 22.8,80 22.7,74.7 Z"/><path id="path998" fill="#12924f" d="m 26.2,86.9 v 0 C 23.6,85.7 22.8,80 22.7,74.7 23.3,67.5 23.6,58.2 23.3,48.5 23.2,43.9 23.4,6 22.2,0.5 22.7,1.6 23.9,4.1 25,6 c 2.8,4.4 13.7,10.5 19,33.7 4,23.9 -8.5,40.8 -17.8,47.2 z"/><g id="g1006" fill="#21313c"><path id="path1000" d="m 371.7,78.5 a 5.63,5.63 0 0 1 -5.7,-5.7 5.63,5.63 0 0 1 5.7,-5.7 c 3.1,0 5.7,2.5 5.7,5.6 0,3.3 -2.5,5.8 -5.7,5.8 m 0,-10.9 c -2.9,0 -5.2,2.3 -5.2,5.2 0,2.9 2.3,5.2 5.2,5.2 2.9,0 5.2,-2.3 5.2,-5.2 0,-2.9 -2.3,-5.2 -5.2,-5.2 m 1.4,8.8 -1.5,-3.2 h -1.2 v 3.2 h -0.9 v -7.2 h 2.1 c 1.6,0 2.2,0.7 2.2,2 0,1.1 -0.5,1.7 -1.4,1.9 l 1.5,3.3 z m -2.6,-3.9 h 1.2 c 1,0 1.4,-0.4 1.4,-1.3 0,-0.9 -0.4,-1.2 -1.5,-1.2 h -1.1 z M 287,73.3 c 1.5,1.2 4.6,1.7 7.3,1.7 3.5,0 7,-0.7 10.3,-3.7 3.4,-3.1 5.8,-7.9 5.8,-15.5 0,-7.3 -2.8,-13.3 -8.5,-16.7 -3.2,-2 -7.4,-2.8 -12.2,-2.8 -1.4,0 -2.8,0.1 -3.6,0.4 -0.2,0.1 -0.7,0.7 -0.7,1 -0.1,1.3 -0.1,11.2 -0.1,17.1 l 0.1,15.4 c 0.2,0.9 0.6,2.5 1.6,3.1 M 272.4,33 c 1.2,0 6,0.2 8.2,0.2 4.1,0 7,-0.2 14.7,-0.2 6.5,0 11.9,1.7 15.8,5.1 4.7,4.1 7.2,9.7 7.2,16.6 0,9.8 -4.5,15.4 -8.9,18.6 -4.5,3.3 -10.3,5.2 -18.5,5.2 -4.4,0 -11.9,-0.1 -18.3,-0.2 h -0.1 c -0.3,-0.6 0.5,-2.8 1.1,-2.9 1.7,-0.2 2.2,-0.3 3,-0.6 1.3,-0.5 1.6,-1.2 1.8,-3.6 0.2,-4.5 0.1,-9.9 0.1,-15.9 l -0.1,-15.5 c -0.2,-2.2 -1.2,-2.8 -3.1,-3.3 -1,-0.2 -2.3,-0.4 -4.1,-0.7 -0.3,-0.4 0.8,-2.3 1.2,-2.8 m 63.9,3.7 c -0.3,0.1 -0.7,0.8 -0.7,1.2 -0.1,2.6 -0.1,9.4 -0.1,14.1 0,0.1 0.2,0.4 0.4,0.4 1,0.1 3.3,0.1 5.3,0.1 2.8,0 4.4,-0.4 5.3,-0.8 2.3,-1.2 3.4,-3.7 3.4,-6.5 0,-6.3 -4.4,-8.7 -10.9,-8.7 -0.5,0.1 -1.7,0.1 -2.7,0.2 m 16.7,29 c 0,-6.4 -4.7,-10 -13.3,-10 -0.4,0 -3.1,-0.1 -3.7,0.1 -0.2,0.1 -0.4,0.2 -0.4,0.4 l 0.1,14.8 c 0.1,1.2 1,3 2.1,3.5 1.2,0.7 3.8,0.8 5.6,0.8 5.1,-0.1 9.6,-2.9 9.6,-9.6 M 323.1,33.1 c 0.7,0 2.6,0.2 7.6,0.2 l 13,-0.1 c 5.6,0 13.4,2 13.4,10.4 0,4.1 -2.9,7.5 -6.7,9.1 -0.2,0.1 -0.2,0.2 0,0.3 5.4,1.4 10.2,4.7 10.2,11.1 0,6.2 -3.9,10.1 -9.5,12.6 -3.4,1.5 -7.7,2 -12,2 -3.3,0 -12.1,-0.4 -17,-0.3 -0.5,-0.2 0.5,-2.5 0.9,-2.9 1.2,-0.1 2.1,-0.2 3.3,-0.5 1.8,-0.4 2,-1 2.2,-3.6 0.1,-2.2 0.1,-10.3 0.1,-16 V 39.7 c -0.1,-2 -0.8,-2.7 -2.2,-3 -1.1,-0.2 -2.9,-0.4 -4.4,-0.7 -0.4,-0.4 0.7,-2.6 1.1,-2.9 M 60.2,78.5 C 60.1,78.3 59.9,77.7 60,77 c 0,-0.5 0.1,-0.9 0.2,-1 1.4,-0.2 2,-0.4 2.8,-0.6 1.3,-0.3 1.8,-1 1.9,-2.7 0.2,-3.9 0.2,-11.2 0.1,-16.4 v -0.2 c 0,-0.6 0,-1.3 -0.7,-1.8 -1,-0.7 -2.3,-1.2 -3.9,-1.7 -0.6,-0.2 -1,-0.5 -0.9,-0.9 0,-0.4 0.4,-0.8 1.2,-1 2.1,-0.2 7.7,-1.5 9.9,-2.6 0.1,0.2 0.3,0.5 0.3,1 0,0.2 0,0.5 -0.1,0.7 -0.1,0.7 -0.1,1.6 -0.1,2.4 0,0.2 0.3,0.5 0.5,0.5 a 0.76,0.76 0 0 0 0.4,-0.2 c 4.2,-3.3 7.9,-4.4 9.8,-4.4 3.1,0 5.6,1.5 7.5,4.6 0.1,0.2 0.3,0.2 0.4,0.2 0.2,0 0.3,-0.1 0.4,-0.2 3.8,-2.9 7.6,-4.6 10.2,-4.6 6,0 9.6,4.5 9.6,12 v 13.3 c 0,0.4 0.5,1.3 1.2,1.5 0.9,0.4 2.1,0.6 3.7,0.9 h 0.1 c 0.1,0.4 -0.1,2.1 -0.4,2.5 -0.4,0 -0.9,0 -1.6,-0.1 -1.2,-0.1 -3,-0.2 -4.9,-0.2 -4,0 -6.1,0.1 -8.1,0.2 -0.2,-0.5 -0.2,-2.1 0,-2.4 1.2,-0.2 1.7,-0.4 2.4,-0.6 1.3,-0.4 1.6,-1 1.7,-2.7 0,-1.2 0.3,-11.7 -0.1,-14.3 -0.4,-2.6 -2.3,-5.6 -6.6,-5.6 -1.6,0 -4.2,0.7 -6.6,2.5 -0.2,0.1 -0.2,0.4 -0.2,0.6 v 0 c 0.3,1.4 0.3,2.9 0.3,5.3 v 11.9 c 0,1.4 0.9,1.8 1.5,2 0.4,0.1 0.7,0.2 1,0.2 0.6,0.1 1.2,0.3 2.1,0.4 0.1,0.3 0.1,1.1 0,1.8 -0.1,0.4 -0.2,0.6 -0.3,0.6 -2.2,-0.1 -4.5,-0.1 -7.8,-0.1 -1,0 -2.6,0 -4.1,0.1 -1.2,0 -2.3,0.1 -2.9,0.1 -0.1,-0.1 -0.2,-0.6 -0.2,-1.3 0,-0.6 0.1,-1 0.2,-1.2 0.3,-0.1 0.6,-0.1 0.9,-0.2 0.8,-0.1 1.4,-0.3 2.1,-0.4 1.1,-0.3 1.5,-0.9 1.6,-2.3 0.2,-3.2 0.4,-12.5 -0.1,-14.8 -0.8,-3.7 -2.9,-5.6 -6.3,-5.6 -2,0 -4.5,1 -6.6,2.5 -0.3,0.3 -0.6,0.9 -0.6,1.5 V 60 L 71,73 c 0.1,0.8 0.3,1.7 1.8,2 0.3,0.1 0.9,0.2 1.5,0.3 0.4,0.1 0.8,0.1 1.2,0.2 0.1,0.4 0.1,2 -0.2,2.5 -0.6,0 -1.4,0 -2.3,-0.1 -1.4,-0.1 -3.1,-0.1 -5,-0.1 -2.3,0 -3.9,0.1 -5.2,0.1 -1.1,0.6 -1.9,0.6 -2.6,0.6"/><path id="path1002" d="m 133.8,51.4 c -1.3,0 -2.6,0.3 -3.5,1 -2.5,1.5 -3.8,4.6 -3.8,9.2 0,8.5 4.3,14.4 10.4,14.4 1.8,0 3.3,-0.5 4.5,-1.6 1.9,-1.5 2.9,-4.6 2.9,-9 -0.2,-8.4 -4.3,-14 -10.5,-14 m 1.1,27.8 c -11,0 -14.9,-8.1 -14.9,-15.6 0,-5.3 2.2,-9.4 6.4,-12.3 a 18.95,18.95 0 0 1 9.9,-2.9 c 8.4,0 14.3,6 14.3,14.7 0,5.9 -2.3,10.5 -6.8,13.4 -2.1,1.3 -5.8,2.7 -8.9,2.7 m 111,-27.8 c -1.3,0 -2.6,0.3 -3.5,1 -2.5,1.5 -3.8,4.6 -3.8,9.2 0,8.5 4.3,14.4 10.4,14.4 1.8,0 3.3,-0.5 4.5,-1.6 1.9,-1.5 2.9,-4.6 2.9,-9 -0.2,-8.4 -4.3,-14 -10.5,-14 m 1.2,27.8 c -11,0 -14.9,-8.1 -14.9,-15.6 0,-5.3 2.2,-9.4 6.4,-12.3 a 18.95,18.95 0 0 1 9.9,-2.9 c 8.4,0 14.3,6 14.3,14.7 0,5.9 -2.3,10.5 -6.8,13.4 -2.2,1.3 -5.9,2.7 -8.9,2.7"/><path id="path1004" d="m 208.8,51.1 c -3.4,0 -5.6,2.7 -5.6,6.8 0,4.2 1.9,9.1 7.2,9.1 0.9,0 2.6,-0.4 3.4,-1.3 1.2,-1.1 2,-3.5 2,-6 0.1,-5.4 -2.6,-8.6 -7,-8.6 m -0.4,28.6 c -1.3,0 -2.2,0.4 -2.8,0.7 -2.7,1.7 -3.9,3.4 -3.9,5.4 0,1.9 0.7,3.4 2.3,4.7 1.9,1.6 4.4,2.4 7.8,2.4 6.6,0 9.5,-3.5 9.5,-7 0,-2.4 -1.2,-4.1 -3.7,-5 -2,-0.8 -5.2,-1.2 -9.2,-1.2 m 0.4,16.9 c -4,0 -6.8,-0.8 -9.2,-2.7 -2.4,-1.8 -3.4,-4.5 -3.4,-6.4 0,-0.5 0.1,-1.9 1.3,-3.3 0.7,-0.8 2.3,-2.2 6,-4.8 0.1,0 0.2,-0.2 0.2,-0.3 0,-0.2 -0.1,-0.3 -0.2,-0.3 -3,-1.2 -4,-3.1 -4.2,-4.1 v -0.2 c -0.1,-0.4 -0.2,-0.8 0.4,-1.2 0.4,-0.3 1.1,-0.7 1.8,-1.1 1.1,-0.6 2.3,-1.3 2.9,-1.9 0.1,-0.1 0.1,-0.3 0.1,-0.4 0,-0.2 -0.1,-0.3 -0.2,-0.3 -4.5,-1.5 -6.8,-4.9 -6.8,-9.9 0,-3.3 1.5,-6.3 4.2,-8.1 1.8,-1.4 6.3,-3.1 9.3,-3.1 h 0.2 c 3,0.1 4.7,0.7 7.1,1.6 1.3,0.5 2.5,0.7 4.2,0.7 2.5,0 3.6,-0.8 4.5,-1.7 0.1,0.1 0.2,0.5 0.2,1.3 0.1,0.8 -0.2,2.1 -0.8,3 -0.5,0.7 -1.7,1.2 -2.8,1.2 h -0.3 c -1.2,-0.1 -1.7,-0.3 -1.7,-0.3 l -0.3,0.1 c -0.1,0.1 0,0.3 0,0.5 V 55 c 0.1,0.6 0.4,2.3 0.4,2.8 0,5.3 -2.1,7.7 -4.4,9.4 -2.2,1.6 -4.7,2.6 -7.6,2.9 v 0 c -0.1,0 -0.3,0 -0.9,0.1 -0.4,0 -0.8,0.1 -0.9,0.1 h -0.1 c -0.5,0.1 -1.8,0.8 -1.8,1.9 0,0.9 0.6,2.1 3.4,2.3 0.6,0 1.2,0.1 1.8,0.1 3.7,0.3 8.3,0.6 10.4,1.3 3,1.1 4.8,3.7 4.8,7 0,4.8 -3.4,9.3 -9.1,12 -2.6,1 -5.4,1.7 -8.5,1.7 M 192,76 c -1.6,-0.2 -2.8,-0.4 -4.2,-1.1 -0.2,-0.1 -0.5,-0.8 -0.5,-1 -0.1,-2.2 -0.1,-8.8 -0.1,-13 0,-3.5 -0.6,-6.5 -2.1,-8.7 -1.8,-2.5 -4.2,-3.9 -7.5,-3.9 -2.9,0 -6.7,2 -9.8,4.6 -0.1,0.1 -0.6,0.5 -0.5,-0.2 0,-0.7 0.1,-2.2 0.2,-3.1 0.1,-0.9 -0.5,-1.3 -0.5,-1.3 -2.1,1 -7.8,2.4 -10,2.6 -1.6,0.3 -2,1.8 -0.3,2.3 1.7,0.5 2.9,1.1 3.8,1.7 0.7,0.5 0.6,1.2 0.6,1.8 0.1,4.9 0.1,12.3 -0.1,16.4 -0.1,1.6 -0.5,2.2 -1.7,2.5 h 0.1 c -0.9,0.2 -1.6,0.4 -2.7,0.5 -0.4,0.4 -0.4,2.5 0,2.9 0.7,0 4.5,-0.2 7.5,-0.2 4.3,0 6.5,0.2 7.5,0.2 0.4,-0.5 0.6,-2.5 0.3,-2.9 -1.2,-0.1 -2.1,-0.2 -3,-0.4 -1.2,-0.3 -1.5,-0.9 -1.5,-2.2 -0.1,-3.4 -0.1,-10.7 -0.1,-15.6 0,-1.4 0.4,-2 0.8,-2.4 1.5,-1.3 3.9,-2.2 6,-2.2 2.1,0 3.4,0.7 4.5,1.5 1.4,1.2 1.9,2.8 2.1,4.1 0.3,2.8 0.2,8.3 0.2,13 0,2.6 -0.2,3.3 -1.2,3.6 -0.4,0.2 -1.6,0.4 -3,0.6 -0.4,0.4 -0.3,2.5 0,2.9 1.9,0 4.1,-0.2 7.3,-0.2 4,0 6.6,0.2 7.6,0.2 0.4,-0.7 0.6,-2.5 0.3,-3 m 247.8,2.8 -5.2,-13.7 H 414.2 L 409,78.8 h -4.8 l 18.6,-45.6 h 3.6 l 18.1,45.6 z m -15.3,-40.5 -8.9,23.3 h 17.7 z m 29.2,34 c 0,1.7 0.3,3.7 2.5,3.7 1.5,0 3.1,-1.1 4.3,-1.9 V 78 c -0.8,0.6 -2.5,1.4 -5.1,1.4 -1.1,0 -3.9,-0.1 -4.9,-2.8 -0.4,-1.1 -0.5,-3.4 -0.5,-5 V 51.3 h -6.5 V 48.1 H 450 V 35 h 3.7 v 13.1 h 6.8 v 3.2 h -6.8 z m 11.9,6.5 V 33.3 h 3.9 v 45.6 h -3.9 z m 37.3,0 c -5.1,0 -7.5,-1.3 -7.5,-5.6 -0.7,2.3 -4.2,6.3 -10.9,6.3 -6.5,0 -9.7,-4 -9.7,-8.4 0,-6.1 5.2,-8.3 15.4,-10.6 l 5.2,-1.2 v -2.4 c 0,-3 -1.5,-6.3 -7.2,-6.3 -6.3,0 -8.3,2.5 -8.3,7.4 l -4.2,-0.7 c 0.8,-6.3 5,-10.1 12.1,-10.1 5.4,0 11.3,1.6 11.3,9.3 V 70 c 0,4.1 0.1,5.7 3.9,5.7 h 0.6 v 3 h -0.7 z m -7.4,-16.2 -1.9,0.5 c -10.5,2.8 -15,3.4 -15,7.9 0,2.1 1.7,5.1 6.2,5.1 3.7,0 8.3,-2.3 9.9,-5.8 0.6,-1.3 0.8,-2.6 0.8,-5.4 z m 14.8,7.4 c 0.5,2.1 2.8,6.1 8.6,6.1 5.9,0 7.9,-3.3 7.9,-6 0,-2.6 -1.5,-4.5 -6.6,-5.6 l -3.6,-0.8 c -4.8,-1 -8,-3.2 -8,-7.7 0,-1.1 0.2,-4.1 2.6,-6.3 2.1,-1.9 5.7,-2.6 8.4,-2.6 0.9,0 4.7,0 7.6,2 2.4,1.7 3.1,3.9 3.4,5 l -3.6,1 c -0.7,-3.6 -4.4,-4.6 -7.5,-4.6 -6.3,0 -7.1,3.3 -7.1,5.2 0,3.6 3.8,4.5 6.5,5 l 3.2,0.6 c 5.4,1.1 8.5,4.2 8.5,9 0,3.5 -2.8,9.2 -11.5,9.2 -2.6,0 -9.1,-0.4 -12.4,-8.3 z"/></g></g></g><g id="g1058" transform="matrix(0.73476841,0,0,0.73476841,3.280295,31.524079)"><g id="g986" transform="matrix(0.06065046,0,0,0.06065046,44.940687,138.19075)"><path id="path938" fill="#ffc24a" d="M 0,282.998 2.123,280.026 102.527,89.512 102.739,87.495 58.48,4.358 C 54.77,-2.606 44.33,-0.845 43.114,6.951 Z"/><use id="use940" width="100%" height="100%" x="0" y="0" fill="#ffa712" fill-rule="evenodd" xlink:href="#a"/><use id="use942" width="100%" height="100%" x="0" y="0" filter="url(#b)" xlink:href="#a"/><path id="path944" fill="#f4bd62" d="M 135.005,150.38 167.96,116.63 134.995,53.7 c -3.129,-5.957 -11.866,-5.975 -14.962,0 L 102.42,87.287 v 2.86 l 32.584,60.233 z"/><use id="use946" width="100%" height="100%" x="0" y="0" fill="#ffa50e" fill-rule="evenodd" xlink:href="#c"/><use id="use948" width="100%" height="100%" x="0" y="0" filter="url(#d)" xlink:href="#c"/><path id="path950" fill="#f6820c" d="m 0,282.998 0.962,-0.968 3.496,-1.42 128.477,-128 1.628,-4.431 -32.05,-61.074 z"/><path id="path952" fill="#fde068" d="M 139.121,347.551 255.396,282.704 222.192,78.209 c -1.039,-6.398 -8.888,-8.927 -13.468,-4.34 L 0,282.998 115.608,347.546 a 24.126,24.126 0 0 0 23.513,0.005"/><path id="path954" fill="#fcca3f" d="M 254.354,282.16 221.402,79.218 c -1.03,-6.35 -7.558,-8.977 -12.103,-4.424 L 1.29,282.6 115.629,346.508 a 23.943,23.943 0 0 0 23.334,0.006 l 115.392,-64.355 z"/><path id="path956" fill="#eeab37" d="m 139.12,345.64 a 24.126,24.126 0 0 1 -23.512,-0.005 l -114.677,-63.62 -0.93,0.983 115.607,64.548 a 24.126,24.126 0 0 0 23.513,0.005 l 116.275,-64.847 -0.285,-1.752 -115.99,64.689 z"/></g><g id="text1041" aria-label="Firebase" transform="matrix(1.1443671,0,0,1.1443671,5.9357486,-1.0561378)" style="font-style:normal;font-weight:400;font-size:10.5833px;line-height:1.25;font-family:sans-serif;white-space:pre;shape-inside:url(#rect1043);fill:#000;fill-opacity:.541176;stroke:none"><path style="font-style:normal;font-variant:normal;font-weight:400;font-stretch:normal;font-family:Roboto;-inkscape-font-specification:Roboto;text-align:center;text-anchor:middle;fill:#000;fill-opacity:.541176" id="path1001" d="m 57.548062,131.54291 h -3.15742 v 3.32278 h -0.992184 v -7.52406 h 4.661199 v 0.81648 h -3.669015 v 2.57348 h 3.15742 z"/><path style="font-style:normal;font-variant:normal;font-weight:400;font-stretch:normal;font-family:Roboto;-inkscape-font-specification:Roboto;text-align:center;text-anchor:middle;fill:#000;fill-opacity:.541176" id="path1003" d="m 60.137043,134.86569 h -0.956011 v -5.59137 h 0.956011 z m -1.033525,-7.07448 q 0,-0.23254 0.139526,-0.39274 0.144693,-0.16019 0.423745,-0.16019 0.279052,0 0.423746,0.16019 0.144693,0.1602 0.144693,0.39274 0,0.23254 -0.144693,0.38757 -0.144694,0.15503 -0.423746,0.15503 -0.279052,0 -0.423745,-0.15503 -0.139526,-0.15503 -0.139526,-0.38757 z"/><path style="font-style:normal;font-variant:normal;font-weight:400;font-stretch:normal;font-family:Roboto;-inkscape-font-specification:Roboto;text-align:center;text-anchor:middle;fill:#000;fill-opacity:.541176" id="path1005" d="m 64.36933,130.13215 q -0.21704,-0.0362 -0.470254,-0.0362 -0.940508,0 -1.276404,0.80099 v 3.96873 h -0.956011 v -5.59137 h 0.930173 l 0.0155,0.64595 q 0.470254,-0.7493 1.333247,-0.7493 0.279052,0 0.423746,0.0723 z"/><path style="font-style:normal;font-variant:normal;font-weight:400;font-stretch:normal;font-family:Roboto;-inkscape-font-specification:Roboto;text-align:center;text-anchor:middle;fill:#000;fill-opacity:.541176" id="path1007" d="m 67.469906,134.96905 q -1.136878,0 -1.85001,-0.74414 -0.713133,-0.74931 -0.713133,-1.99987 v -0.1757 q 0,-0.83199 0.315226,-1.48311 0.320392,-0.65629 0.888831,-1.02319 0.573607,-0.37207 1.240231,-0.37207 1.090369,0 1.694981,0.7183 0.604613,0.7183 0.604613,2.05671 v 0.39791 h -3.787871 q 0.02067,0.82682 0.48059,1.33842 0.465086,0.50642 1.178218,0.50642 0.506428,0 0.857827,-0.2067 0.351398,-0.20671 0.614947,-0.54777 l 0.583942,0.45475 q -0.702797,1.08004 -2.108392,1.08004 z m -0.118855,-5.0126 q -0.578774,0 -0.971514,0.42374 -0.39274,0.41858 -0.485757,1.17822 h 2.800854 v -0.0724 q -0.04134,-0.72863 -0.39274,-1.12654 -0.351398,-0.40307 -0.950843,-0.40307 z"/><path style="font-style:normal;font-variant:normal;font-weight:400;font-stretch:normal;font-family:Roboto;-inkscape-font-specification:Roboto;text-align:center;text-anchor:middle;fill:#000;fill-opacity:.541176" id="path1009" d="m 75.490062,132.13202 q 0,1.28157 -0.589109,2.06188 -0.58911,0.77515 -1.581294,0.77515 -1.059363,0 -1.638138,-0.74931 l -0.04651,0.64595 h -0.878497 v -7.93747 h 0.956011 v 2.96105 q 0.578774,-0.7183 1.596797,-0.7183 1.018022,0 1.596797,0.76997 0.583941,0.76998 0.583941,2.1084 z m -0.956011,-0.10852 q 0,-0.97668 -0.377236,-1.50895 -0.377237,-0.53226 -1.085202,-0.53226 -0.945676,0 -1.359086,0.87849 v 2.41845 q 0.439248,0.8785 1.369421,0.8785 0.687295,0 1.069699,-0.53227 0.382404,-0.53226 0.382404,-1.60196 z"/><path style="font-style:normal;font-variant:normal;font-weight:400;font-stretch:normal;font-family:Roboto;-inkscape-font-specification:Roboto;text-align:center;text-anchor:middle;fill:#000;fill-opacity:.541176" id="path1011" d="m 80.146094,134.86569 q -0.08268,-0.16536 -0.134358,-0.58911 -0.666624,0.69247 -1.591629,0.69247 -0.826821,0 -1.359086,-0.46509 -0.527098,-0.47026 -0.527098,-1.18856 0,-0.87332 0.661456,-1.35391 0.666624,-0.48576 1.870681,-0.48576 h 0.930173 v -0.43925 q 0,-0.50126 -0.299723,-0.79581 -0.299722,-0.29973 -0.883664,-0.29973 -0.511595,0 -0.857826,0.25839 -0.346231,0.25838 -0.346231,0.62528 h -0.961178 q 0,-0.41858 0.294554,-0.80615 0.299723,-0.39274 0.80615,-0.62012 0.511595,-0.22737 1.121375,-0.22737 0.966346,0 1.514115,0.48576 0.547768,0.48058 0.568439,1.32808 v 2.57347 q 0,0.76998 0.19637,1.22473 v 0.0827 z m -1.586461,-0.72863 q 0.449583,0 0.852658,-0.23255 0.403075,-0.23254 0.583942,-0.60461 v -1.14721 h -0.749306 q -1.756993,0 -1.756993,1.02836 0,0.44958 0.299722,0.70279 0.299722,0.25322 0.769977,0.25322 z"/><path style="font-style:normal;font-variant:normal;font-weight:400;font-stretch:normal;font-family:Roboto;-inkscape-font-specification:Roboto;text-align:center;text-anchor:middle;fill:#000;fill-opacity:.541176" id="path1013" d="m 85.706461,133.38258 q 0,-0.38757 -0.294555,-0.59944 -0.289387,-0.21704 -1.018022,-0.37207 -0.723468,-0.15503 -1.152381,-0.37207 -0.423745,-0.21704 -0.630451,-0.51676 -0.201537,-0.29972 -0.201537,-0.71313 0,-0.6873 0.578774,-1.16272 0.583942,-0.47542 1.488277,-0.47542 0.950843,0 1.539952,0.49092 0.594278,0.49093 0.594278,1.25574 h -0.961179 q 0,-0.39274 -0.335896,-0.67696 -0.330728,-0.28422 -0.837155,-0.28422 -0.521931,0 -0.816485,0.22737 -0.294555,0.22738 -0.294555,0.59428 0,0.34623 0.273884,0.52193 0.273884,0.1757 0.987017,0.3359 0.7183,0.16019 1.162716,0.3824 0.444416,0.22221 0.656289,0.53743 0.21704,0.31006 0.21704,0.75964 0,0.74931 -0.599445,1.20406 -0.599445,0.44959 -1.555456,0.44959 -0.671791,0 -1.188554,-0.23772 -0.516762,-0.23771 -0.811317,-0.66145 -0.289387,-0.42891 -0.289387,-0.92501 h 0.956011 q 0.02584,0.48059 0.382404,0.76481 0.361734,0.27905 0.950843,0.27905 0.542601,0 0.868162,-0.21704 0.330728,-0.2222 0.330728,-0.58911 z"/><path style="font-style:normal;font-variant:normal;font-weight:400;font-stretch:normal;font-family:Roboto;-inkscape-font-specification:Roboto;text-align:center;text-anchor:middle;fill:#000;fill-opacity:.541176" id="path1015" d="m 90.228133,134.96905 q -1.136878,0 -1.850011,-0.74414 -0.713132,-0.74931 -0.713132,-1.99987 v -0.1757 q 0,-0.83199 0.315225,-1.48311 0.320393,-0.65629 0.888832,-1.02319 0.573606,-0.37207 1.24023,-0.37207 1.090369,0 1.694982,0.7183 0.604612,0.7183 0.604612,2.05671 v 0.39791 h -3.78787 q 0.02067,0.82682 0.480589,1.33842 0.465086,0.50642 1.178219,0.50642 0.506427,0 0.857826,-0.2067 0.351399,-0.20671 0.614948,-0.54777 l 0.583941,0.45475 q -0.702797,1.08004 -2.108391,1.08004 z m -0.118856,-5.0126 q -0.578774,0 -0.971514,0.42374 -0.392739,0.41858 -0.485757,1.17822 h 2.800854 v -0.0724 q -0.04134,-0.72863 -0.392739,-1.12654 -0.351399,-0.40307 -0.950844,-0.40307 z"/></g></g><text id="text1079" x="21.627" y="0" transform="matrix(1.4233094,0,0,1.4233094,-16.96611,-62.89163)" xml:space="preserve" style="font-style:normal;font-weight:400;font-size:10.5833px;line-height:1.25;font-family:sans-serif;white-space:pre;shape-inside:url(#rect1081);fill:#000;fill-opacity:1;stroke:none"><tspan x="50.862" y="134.879"><tspan style="font-style:normal;font-variant:normal;font-weight:400;font-stretch:normal;font-family:'Open Sans';-inkscape-font-specification:'Open Sans';text-align:center;text-anchor:middle">+</tspan></tspan></text></g><g style="font-style:normal;font-weight:400;font-size:10.5833px;line-height:1.25;font-family:sans-serif;white-space:pre;shape-inside:url(#rect1123);fill:#333;fill-opacity:1;stroke:none" id="text1121" aria-label="Backend" transform="matrix(0.67830257,0,0,0.67830257,30.489645,98.511408)"><path id="path1665" d="m 33.798546,127.32421 h 2.13423 q 1.503779,0 2.175571,0.44958 0.671791,0.44958 0.671791,1.4211 0,0.67179 -0.377236,1.11104 -0.372069,0.43408 -1.09037,0.56327 v 0.0517 q 1.72082,0.29456 1.72082,1.80867 0,1.01286 -0.687294,1.5813 -0.682127,0.56844 -1.912022,0.56844 h -2.63549 z m 0.878497,3.23493 h 1.446935 q 0.930173,0 1.338416,-0.28939 0.408242,-0.29455 0.408242,-0.98701 0,-0.63562 -0.454751,-0.91467 -0.454751,-0.28422 -1.446936,-0.28422 h -1.291906 z m 0,0.74414 v 2.82669 h 1.576126 q 0.91467,0 1.374589,-0.3514 0.465086,-0.35657 0.465086,-1.11104 0,-0.7028 -0.475422,-1.03352 -0.470254,-0.33073 -1.4366,-0.33073 z" style="font-style:normal;font-variant:normal;font-weight:400;font-stretch:normal;font-family:'Open Sans';-inkscape-font-specification:'Open Sans';text-align:center;text-anchor:middle;fill:#333"/><path id="path1667" d="m 44.009777,134.87928 -0.170532,-0.80615 h -0.04134 q -0.423745,0.53226 -0.847491,0.72346 -0.418577,0.18604 -1.049028,0.18604 -0.842323,0 -1.322912,-0.43408 -0.475422,-0.43408 -0.475422,-1.23507 0,-1.71565 2.74401,-1.79833 l 0.961179,-0.031 v -0.35139 q 0,-0.66663 -0.289388,-0.98185 -0.284219,-0.3204 -0.91467,-0.3204 -0.707964,0 -1.601964,0.43409 l -0.263549,-0.65629 q 0.418578,-0.22738 0.91467,-0.35657 0.50126,-0.12919 1.00252,-0.12919 1.012855,0 1.498611,0.44958 0.490925,0.44959 0.490925,1.44177 v 3.86539 z m -1.93786,-0.60462 q 0.800982,0 1.255733,-0.43924 0.459919,-0.43925 0.459919,-1.2299 v -0.5116 l -0.857826,0.0362 q -1.02319,0.0362 -1.477941,0.32039 -0.449584,0.27905 -0.449584,0.87333 0,0.46509 0.279052,0.70796 0.284219,0.24288 0.790647,0.24288 z" style="font-style:normal;font-variant:normal;font-weight:400;font-stretch:normal;font-family:'Open Sans';-inkscape-font-specification:'Open Sans';text-align:center;text-anchor:middle;fill:#333"/><path id="path1669" d="m 48.676144,134.98263 q -1.229895,0 -1.906854,-0.75448 -0.671792,-0.75964 -0.671792,-2.14456 0,-1.4211 0.682127,-2.19624 0.687295,-0.77515 1.953363,-0.77515 0.408243,0 0.816485,0.0879 0.408243,0.0879 0.640786,0.20671 l -0.263549,0.72863 q -0.28422,-0.11368 -0.620115,-0.18603 -0.335896,-0.0775 -0.594277,-0.0775 -1.725988,0 -1.725988,2.2014 0,1.04387 0.418578,1.60197 0.423745,0.5581 1.250566,0.5581 0.707965,0 1.452103,-0.30489 v 0.75964 q -0.568439,0.29456 -1.431433,0.29456 z" style="font-style:normal;font-variant:normal;font-weight:400;font-stretch:normal;font-family:'Open Sans';-inkscape-font-specification:'Open Sans';text-align:center;text-anchor:middle;fill:#333"/><path id="path1671" d="m 52.298649,131.98024 q 0.222208,-0.31523 0.67696,-0.82682 l 1.829339,-1.93786 h 1.018023 l -2.294426,2.41328 2.454622,3.25044 h -1.038693 l -1.999871,-2.67683 -0.645954,0.5581 v 2.11873 h -0.84749 v -8.04083 h 0.84749 v 4.26329 q 0,0.28422 -0.04134,0.8785 z" style="font-style:normal;font-variant:normal;font-weight:400;font-stretch:normal;font-family:'Open Sans';-inkscape-font-specification:'Open Sans';text-align:center;text-anchor:middle;fill:#333"/><path id="path1673" d="m 59.398969,134.98263 q -1.255734,0 -1.984369,-0.76481 -0.723468,-0.76481 -0.723468,-2.1239 0,-1.36942 0.671792,-2.17557 0.676959,-0.80615 1.813837,-0.80615 1.064531,0 1.684646,0.7028 0.620115,0.69763 0.620115,1.84484 v 0.54261 h -3.901558 q 0.02584,0.99735 0.50126,1.51411 0.480589,0.51676 1.34875,0.51676 0.91467,0 1.80867,-0.3824 v 0.76481 q -0.454751,0.19637 -0.862994,0.27905 -0.403075,0.0879 -0.976681,0.0879 z m -0.232544,-5.15213 q -0.682126,0 -1.090369,0.44442 -0.403075,0.44442 -0.475422,1.2299 h 2.961051 q 0,-0.81132 -0.361734,-1.24023 -0.361734,-0.43409 -1.033526,-0.43409 z" style="font-style:normal;font-variant:normal;font-weight:400;font-stretch:normal;font-family:'Open Sans';-inkscape-font-specification:'Open Sans';text-align:center;text-anchor:middle;fill:#333"/><path id="path1675" d="m 66.81968,134.87928 v -3.66385 q 0,-0.69246 -0.315225,-1.03353 -0.315225,-0.34106 -0.987017,-0.34106 -0.888831,0 -1.302241,0.48059 -0.413411,0.48059 -0.413411,1.58646 v 2.97139 H 62.94396 v -5.66372 h 0.69763 l 0.139526,0.77514 h 0.04134 q 0.263549,-0.41858 0.738971,-0.64595 0.475421,-0.23255 1.059363,-0.23255 1.02319,0 1.539953,0.4961 0.516762,0.49092 0.516762,1.57612 v 3.69486 z" style="font-style:normal;font-variant:normal;font-weight:400;font-stretch:normal;font-family:'Open Sans';-inkscape-font-specification:'Open Sans';text-align:center;text-anchor:middle;fill:#333"/><path id="path1677" d="m 73.294718,134.11963 h -0.04651 q -0.594277,0.863 -1.777664,0.863 -1.11104,0 -1.731155,-0.75964 -0.614947,-0.75964 -0.614947,-2.16007 0,-1.40043 0.620115,-2.17557 0.620115,-0.77515 1.725987,-0.77515 1.152381,0 1.767328,0.83716 h 0.06718 l -0.03617,-0.40824 -0.02067,-0.39791 v -2.30476 h 0.857826 v 8.04083 h -0.69763 z m -1.715652,0.1447 q 0.878497,0 1.271236,-0.47542 0.397908,-0.48059 0.397908,-1.54512 v -0.18087 q 0,-1.20406 -0.403075,-1.71565 -0.397907,-0.51677 -1.276404,-0.51677 -0.754473,0 -1.157548,0.58911 -0.397908,0.58395 -0.397908,1.65364 0,1.08521 0.397908,1.63814 0.397907,0.55294 1.167883,0.55294 z" style="font-style:normal;font-variant:normal;font-weight:400;font-stretch:normal;font-family:'Open Sans';-inkscape-font-specification:'Open Sans';text-align:center;text-anchor:middle;fill:#333"/></g><path id="path1125" d="m 126.93183,128.73116 h 40.57475" style="fill:none;stroke:#000;stroke-width:.264583px;stroke-linecap:butt;stroke-linejoin:miter;stroke-opacity:1;marker-start:url(#TriangleInL);marker-end:url(#TriangleOutL)"/><g id="g1052" transform="matrix(0.2039017,0,0,0.2039017,199.32896,282.40206)"><path style="color:#000;font-style:normal;font-variant:normal;font-weight:400;font-stretch:normal;font-size:medium;line-height:normal;font-family:sans-serif;font-variant-ligatures:normal;font-variant-position:normal;font-variant-caps:normal;font-variant-numeric:normal;font-variant-alternates:normal;font-variant-east-asian:normal;font-feature-settings:normal;font-variation-settings:normal;text-indent:0;text-align:start;text-decoration:none;text-decoration-line:none;text-decoration-style:solid;text-decoration-color:#000;letter-spacing:normal;word-spacing:normal;text-transform:none;writing-mode:lr-tb;direction:ltr;text-orientation:mixed;dominant-baseline:auto;baseline-shift:baseline;text-anchor:start;white-space:normal;shape-padding:0;shape-margin:0;inline-size:0;clip-rule:nonzero;visibility:visible;isolation:auto;mix-blend-mode:normal;color-interpolation:sRGB;color-interpolation-filters:linearRGB;solid-color:#000;solid-opacity:1;fill:#075bb3;fill-opacity:1;fill-rule:nonzero;stroke:none;stroke-width:37.7952;stroke-linecap:butt;stroke-linejoin:miter;stroke-miterlimit:4;stroke-dasharray:none;stroke-dashoffset:0;stroke-opacity:1;color-rendering:auto;image-rendering:auto;shape-rendering:auto;text-rendering:auto" id="path2479" d="m 241.70117,117.75195 0.004,0.0254 c -2.58998,0 -5.10278,0.19698 -7.55664,0.53907 l -97.95313,7 L 137.20117,128 19.607422,139.50781 A 233.08004,233.08004 0 0 0 0.4609375,218.45898 c 0.43966417,1.1502 0.8680252,2.28938 1.3203125,3.45313 1.7012409,4.37771 3.4919149,8.85038 5.3828125,13.4043 0.6812598,1.64069 1.374288,3.28192 2.0742187,4.92382 0.6999686,1.64179 1.4097758,3.28363 2.1289068,4.92383 0.71913,1.6402 1.448715,3.27813 2.1875,4.91406 6.651061,14.7269 14.108474,29.22106 22.546874,42.48047 0.937626,1.47319 1.887493,2.9297 2.84961,4.3711 0.961814,1.44098 1.937069,2.86508 2.923828,4.27148 0.987402,1.40727 1.985209,2.79613 2.998047,4.16602 1.012535,1.36951 2.037709,2.71941 3.076172,4.04883 0.987326,1.26289 1.994472,2.51037 3.015625,3.74609 0.425386,0.5147 0.86364,1.0164 1.294922,1.52539 0.622261,0.7347 1.242257,1.47124 1.876953,2.19336 0.407055,0.4628 0.824133,0.914 1.236328,1.37109 0.698381,0.775 1.398056,1.54758 2.111328,2.30469 0.383811,0.40728 0.775905,0.80328 1.164063,1.20508 0.522368,0.54089 1.036138,1.09274 1.566406,1.62305 L 200.73438,463.9043 a 233.08004,233.08004 0 0 0 32.3457,2.25586 233.08004,233.08004 0 0 0 233.08008,-233.08008 233.08004,233.08004 0 0 0 -18.60547,-91.25391 l -96.33008,-11.26367 -5.26758,-5.26758 h -37.52734 l -0.0937,0.25196 -54.06641,-6.32032 c -0.0895,-0.0227 -0.17781,-0.0464 -0.26758,-0.0664 -0.68618,-0.1595 -1.38422,-0.29252 -2.08203,-0.42578 -0.30062,-0.0578 -0.59567,-0.12558 -0.89844,-0.17774 -0.74288,-0.12888 -1.49812,-0.22986 -2.2539,-0.32812 -0.25894,-0.034 -0.51301,-0.0807 -0.77344,-0.11133 -1.00018,-0.11528 -2.01081,-0.19967 -3.0332,-0.25977 -0.0193,0 -0.0374,-3.8e-4 -0.0566,-0.0117 h -0.002 c -1.05504,-0.0608 -2.12262,-0.0937 -3.20117,-0.0937 z" transform="matrix(0.26458333,0,0,0.26458333,-134.51857,-837.59463)"/><path style="fill:#3860c9;fill-opacity:1;stroke:none;stroke-width:1.5;stroke-linecap:round;stroke-linejoin:round;paint-order:stroke fill markers" id="path1105-6" d="m -10.05089,-775.92554 a 62.798588,62.798588 0 0 1 -62.79858,62.79859 62.798588,62.798588 0 0 1 -62.79859,-62.79859 62.798588,62.798588 0 0 1 62.79859,-62.79858 62.798588,62.798588 0 0 1 62.79858,62.79858"/><path style="fill:#0a69cd;fill-opacity:1;stroke:none;stroke-width:1.5;stroke-linecap:round;stroke-linejoin:round;paint-order:stroke fill markers" id="circle2037" d="m -10.05089,-775.92554 a 62.798588,62.798588 0 0 1 -62.79858,62.79859 62.798588,62.798588 0 0 1 -62.79859,-62.79859 62.798588,62.798588 0 0 1 62.79859,-62.79858 62.798588,62.798588 0 0 1 62.79858,62.79858"/><path id="circle2304" d="m 241.70898,136.66992 c -74.21605,0 -54.3777,192.82031 -128.59375,192.82031 -57.956145,0 -93.280967,-117.58222 -105.9785112,-169.10546 a 237.34899,237.34899 0 0 0 -11.40625,72.69531 237.34899,237.34899 0 0 0 237.3496112,237.34961 237.34899,237.34899 0 0 0 237.34961,-237.34961 237.34899,237.34899 0 0 0 -10.01758,-68.2207 c -8.76976,53.51206 -33.7556,164.63085 -90.11133,164.63085 -74.21605,0 -54.37575,-192.82031 -128.5918,-192.82031 z" clip-path="none" transform="matrix(0.26458333,0,0,0.26458333,-134.51857,-837.59463)" style="fill:#075bb3;fill-opacity:1;stroke:none;stroke-width:5.66929;stroke-linecap:round;stroke-linejoin:round;paint-order:stroke fill markers"/><path style="color:#000;font-style:normal;font-variant:normal;font-weight:400;font-stretch:normal;font-size:medium;line-height:normal;font-family:sans-serif;font-variant-ligatures:normal;font-variant-position:normal;font-variant-caps:normal;font-variant-numeric:normal;font-variant-alternates:normal;font-variant-east-asian:normal;font-feature-settings:normal;font-variation-settings:normal;text-indent:0;text-align:start;text-decoration:none;text-decoration-line:none;text-decoration-style:solid;text-decoration-color:#000;letter-spacing:normal;word-spacing:normal;text-transform:none;writing-mode:lr-tb;direction:ltr;text-orientation:mixed;dominant-baseline:auto;baseline-shift:baseline;text-anchor:start;white-space:normal;shape-padding:0;shape-margin:0;inline-size:0;clip-rule:nonzero;visibility:visible;isolation:auto;mix-blend-mode:normal;color-interpolation:sRGB;color-interpolation-filters:linearRGB;solid-color:#000;solid-opacity:1;fill:#075bb3;fill-opacity:1;fill-rule:nonzero;stroke:none;stroke-width:37.7953;stroke-linecap:butt;stroke-linejoin:miter;stroke-miterlimit:4;stroke-dasharray:none;stroke-dashoffset:0;stroke-opacity:1;color-rendering:auto;image-rendering:auto;shape-rendering:auto;text-rendering:auto" id="path2809" d="m 241.70508,117.79102 c -4.12698,0 -8.07549,0.47141 -11.85547,1.3164 0,0 -0.002,0 -0.002,0 l -56.125,6.22461 h -37.5273 L 189.125,266.47852 157.31641,234.67188 c -1.54443,5.41069 -3.0968,10.74225 -4.67188,15.91015 -1.57504,5.16779 -3.17469,10.17266 -4.81055,14.92969 -0.65688,1.91017 -1.32602,3.7474 -1.99609,5.57226 L 18.005859,143.25195 A 233.08004,233.08004 0 0 0 0.45898438,218.47852 c 1.26363152,3.3072 2.57587482,6.66853 3.94726562,10.08398 0.8971087,2.23427 1.8182231,4.49068 2.7636719,6.76758 2.7259842,6.56511 5.6000571,13.14931 8.6367191,19.66601 0.759156,1.62932 1.528801,3.2557 2.308593,4.875 0.779755,1.61942 1.570174,3.23129 2.371094,4.83789 0.26948,0.54112 0.548187,1.07586 0.820313,1.61524 2.152214,4.2661 4.372273,8.48483 6.68164,12.61914 0,0 0.002,0 0.002,0 1.410444,2.52499 2.858255,5.01245 4.330078,7.47266 0.337512,0.56401 0.66908,1.13511 1.009766,1.69531 0.350362,0.57641 0.710425,1.14071 1.064453,1.71289 2.4144,3.9024 4.901748,7.71571 7.484375,11.39648 0,0 0.002,0 0.002,0 0.98657,1.40603 1.986041,2.79535 2.998047,4.16407 0,0 0.002,0 0.002,0 1.012007,1.36868 2.036323,2.71818 3.074219,4.04687 0,0 0.002,0 0.002,0 0.04158,0.0529 0.08538,0.10491 0.126953,0.1582 0.96703,1.2353 1.949383,2.45782 2.949219,3.66602 0.274394,0.33184 0.559087,0.65311 0.835938,0.98242 0.759911,0.90369 1.522085,1.80478 2.300781,2.68945 0.429543,0.48813 0.869399,0.9635 1.304687,1.44532 0.634016,0.70159 1.267839,1.40272 1.914063,2.08984 0.507401,0.53949 1.024102,1.06574 1.539062,1.5957 0.432076,0.44451 0.855527,0.90053 1.292969,1.33789 L 200.72656,463.90234 a 233.08004,233.08004 0 0 0 32.35352,2.25782 233.08004,233.08004 0 0 0 233.08008,-233.08008 233.08004,233.08004 0 0 0 -15.25782,-82.93946 c -2.17361,10.78373 -5.08234,24.01577 -8.84179,38.4336 -0.46999,1.80238 -0.95373,3.62054 -1.44922,5.45312 -1.48664,5.49854 -3.08722,11.11902 -4.80664,16.78321 -0.33638,1.10831 -0.68584,2.22104 -1.03125,3.33203 l -88.8125,-88.81055 h -37.52735 l -9.74023,26.15625 -15.21289,-15.21289 c -0.19238,-0.19276 -0.39347,-0.37607 -0.58789,-0.56641 -0.3896,-0.38158 -0.78032,-0.76187 -1.17774,-1.13476 -0.31861,-0.29896 -0.64311,-0.59148 -0.96679,-0.88477 -0.38499,-0.34885 -0.77006,-0.6968 -1.16211,-1.03711 -0.35036,-0.30425 -0.7064,-0.60121 -1.0625,-0.89843 -0.39198,-0.32693 -0.78287,-0.65435 -1.18164,-0.97266 -0.3738,-0.2982 -0.75493,-0.58657 -1.13477,-0.87695 -0.37973,-0.29027 -0.75887,-0.58126 -1.14453,-0.86328 -0.40694,-0.29745 -0.82082,-0.58505 -1.23438,-0.87305 -0.38267,-0.26646 -0.76399,-0.53487 -1.15234,-0.79297 -0.41227,-0.27402 -0.83134,-0.53648 -1.25,-0.80078 -0.40785,-0.25739 -0.81466,-0.5157 -1.22851,-0.76367 -0.3992,-0.23925 -0.80619,-0.46522 -1.21094,-0.69532 -0.44032,-0.2502 -0.87737,-0.50497 -1.32422,-0.74414 -0.40241,-0.21543 -0.81297,-0.41683 -1.2207,-0.62304 -0.46137,-0.2332 -0.92051,-0.47019 -1.38868,-0.69141 -0.40323,-0.19049 -0.81439,-0.36546 -1.22265,-0.54687 -0.48091,-0.21355 -0.95937,-0.43231 -1.44727,-0.63282 -0.42621,-0.17499 -0.86146,-0.33303 -1.29297,-0.49804 -0.48253,-0.18444 -0.96202,-0.37567 -1.45117,-0.54688 -0.4309,-0.1508 -0.87063,-0.28349 -1.30664,-0.42383 -0.50358,-0.16214 -1.00332,-0.33032 -1.51367,-0.47851 -0.47573,-0.13796 -0.9617,-0.25549 -1.44336,-0.38086 -0.47153,-0.12284 -0.93885,-0.25487 -1.41602,-0.36524 -0.54886,-0.12699 -1.10779,-0.22948 -1.66406,-0.33984 -0.43374,-0.0858 -0.86254,-0.18418 -1.30078,-0.25977 -0.46628,-0.0809 -0.94272,-0.13629 -1.41406,-0.20507 -0.55004,-0.0801 -1.09539,-0.17088 -1.65235,-0.23438 -0.26796,-0.0302 -0.54302,-0.0442 -0.8125,-0.0703 -0.75564,-0.0748 -1.51114,-0.1499 -2.27929,-0.19336 -1.03268,-0.0582 -2.07569,-0.0898 -3.13086,-0.0898 z" transform="matrix(0.26458333,0,0,0.26458333,-134.51857,-837.59463)"/><path id="path3169" d="m -266.70898,-3047.9375 c -17.7464,0 -32.31841,8.3932 -43.42579,20.1816 l 16.22071,43.5879 c 0.94156,-2.0345 1.89761,-3.9705 2.875,-5.7851 8.15198,-15.1353 13.95898,-20.1895 24.33008,-20.1895 10.3711,0 16.17812,5.0542 24.33007,20.1895 0.73286,1.3606 1.45166,2.8069 2.16407,4.2929 l 9.29296,28.3633 17.39649,53.0918 9.28711,28.3438 c 2.55442,6.3949 5.35475,12.5932 8.52148,18.4726 11.32063,21.0183 30.86267,40.0625 57.59961,40.0625 27.16131,0 48.069918,-18.2258 63.078128,-39.789 15.008195,-21.5633 26.030419,-48.2545 34.724609,-74.5938 0.77536,-2.3489 1.52425,-4.6687 2.25,-6.959 -0.740004,-29.0694 -6.815502,-57.7554 -17.923828,-84.6289 -3.58095,18.8067 -10.207107,49.4157 -20.216797,79.7403 -8.04268,24.3654 -18.391587,48.3843 -29.851562,64.8496 -11.45998,16.4653 -22.11385,23.584 -32.06055,23.584 -10.3711,0 -16.17813,-5.0543 -24.33008,-20.1895 -20.58092,-50.4344 -32.77762,-80.7425 -51.08203,-128.6973 l -10.65039,-24.6816 c -10.99092,-11.2935 -25.2568,-19.2461 -42.52929,-19.2461 z m -105.50977,7.541 80.82617,215.5391 h 48.11133 l 20.84375,-55.5821 -17.83789,-51.7363 -27.06055,72.6778 -67.35547,-180.8985 z m 172.23828,0 -5.66601,15.2149 20.63086,44.9531 22.5625,-60.168 z m -293.68555,14.666 c -9.38245,22.0045 -15.3845,45.3009 -17.80273,69.0996 3.0534,8.3551 6.44086,17.1344 10.22266,26.2422 10.904,26.2603 24.16971,52.837 40.78515,74.1075 16.61548,21.27 37.99881,38.955 65.16016,38.955 26.7369,0 46.27894,-19.0442 57.59961,-40.0625 2.9046,-5.3928 5.50618,-11.0509 7.88867,-16.8847 l -21.28516,-56.7832 c -6.17836,21.646 -12.48171,42.0211 -19.87304,55.7441 -8.15199,15.1352 -13.95902,20.1895 -24.33008,20.1895 -9.94674,0 -22.28446,-7.6678 -35.375,-24.4258 -13.09055,-16.758 -25.51989,-40.8856 -35.66992,-65.3301 -12.86198,-30.9756 -22.18842,-62.1167 -27.32032,-80.8516 z" transform="scale(0.26458333)" style="color:#000;font-style:normal;font-variant:normal;font-weight:400;font-stretch:normal;font-size:medium;line-height:normal;font-family:sans-serif;font-variant-ligatures:normal;font-variant-position:normal;font-variant-caps:normal;font-variant-numeric:normal;font-variant-alternates:normal;font-variant-east-asian:normal;font-feature-settings:normal;font-variation-settings:normal;text-indent:0;text-align:start;text-decoration:none;text-decoration-line:none;text-decoration-style:solid;text-decoration-color:#000;letter-spacing:normal;word-spacing:normal;text-transform:none;writing-mode:lr-tb;direction:ltr;text-orientation:mixed;dominant-baseline:auto;baseline-shift:baseline;text-anchor:start;white-space:normal;shape-padding:0;shape-margin:0;inline-size:0;clip-rule:nonzero;display:inline;overflow:visible;visibility:visible;opacity:.17201;isolation:auto;mix-blend-mode:normal;color-interpolation:sRGB;color-interpolation-filters:linearRGB;solid-color:#000;solid-opacity:1;vector-effect:none;fill:#000;fill-opacity:1;fill-rule:nonzero;stroke:none;stroke-width:37.7953;stroke-linecap:butt;stroke-linejoin:miter;stroke-miterlimit:4;stroke-dasharray:none;stroke-dashoffset:0;stroke-opacity:1;filter:url(#filter3171);color-rendering:auto;image-rendering:auto;shape-rendering:auto;text-rendering:auto;enable-background:accumulate;stop-color:#000"/><path style="color:#000;font-style:normal;font-variant:normal;font-weight:400;font-stretch:normal;font-size:medium;line-height:normal;font-family:sans-serif;font-variant-ligatures:normal;font-variant-position:normal;font-variant-caps:normal;font-variant-numeric:normal;font-variant-alternates:normal;font-variant-east-asian:normal;font-feature-settings:normal;font-variation-settings:normal;text-indent:0;text-align:start;text-decoration:none;text-decoration-line:none;text-decoration-style:solid;text-decoration-color:#000;letter-spacing:normal;word-spacing:normal;text-transform:none;writing-mode:lr-tb;direction:ltr;text-orientation:mixed;dominant-baseline:auto;baseline-shift:baseline;text-anchor:start;white-space:normal;shape-padding:0;shape-margin:0;inline-size:0;clip-rule:nonzero;display:inline;overflow:visible;visibility:visible;isolation:auto;mix-blend-mode:normal;color-interpolation:sRGB;color-interpolation-filters:linearRGB;solid-color:#000;solid-opacity:1;vector-effect:none;fill:#fff;fill-opacity:1;fill-rule:nonzero;stroke:none;stroke-width:10;stroke-linecap:butt;stroke-linejoin:miter;stroke-miterlimit:4;stroke-dasharray:none;stroke-dashoffset:0;stroke-opacity:1;color-rendering:auto;image-rendering:auto;shape-rendering:auto;text-rendering:auto;enable-background:accumulate;stop-color:#000" id="path2047" d="m -70.56675,-806.43345 c -4.695402,0 -8.550913,2.2207 -11.48974,5.33971 l 4.291729,11.53263 c 0.249121,-0.53829 0.502076,-1.05052 0.760677,-1.53064 2.156878,-4.00455 3.693314,-5.3418 6.437334,-5.3418 2.74402,0 4.280461,1.33725 6.437331,5.3418 0.193902,0.35999 0.384085,0.74266 0.572577,1.13583 l 2.458762,7.50446 4.602821,14.0472 2.457215,7.4993 c 0.675857,1.69198 1.416777,3.33195 2.254641,4.88754 2.99525,5.56109 8.165748,10.59987 15.239897,10.59987 7.18643,0 12.718499,-4.82224 16.689421,-10.5275 3.970918,-5.70529 6.887215,-12.76734 9.187553,-19.73628 0.205147,-0.62148 0.403291,-1.23526 0.595312,-1.84124 -0.195792,-7.69127 -1.803268,-15.28111 -4.742346,-22.39139 -0.94746,4.97594 -2.70063,13.07457 -5.349027,21.09795 -2.127959,6.44668 -4.866108,12.80168 -7.898226,17.15813 -3.03212,4.35644 -5.850956,6.23993 -8.482687,6.23993 -2.74402,0 -4.280464,-1.33728 -6.437334,-5.34181 -5.445368,-13.3441 -8.672411,-21.36312 -13.515453,-34.05116 l -2.817916,-6.53034 c -2.908014,-2.98807 -6.682528,-5.09219 -11.252541,-5.09219 z m -27.916126,1.99522 21.385257,57.02805 h 12.729456 l 5.514909,-14.70609 -4.719609,-13.68857 -7.15977,19.22934 -17.821135,-47.86273 z m 45.571377,0 -1.499131,4.02561 5.458581,11.89384 5.969662,-15.91945 z m -77.704301,3.88038 c -2.48244,5.82202 -4.07048,11.98586 -4.71031,18.2826 0.80788,2.21062 1.70415,4.53348 2.70475,6.94325 2.88502,6.94804 6.3949,13.97979 10.79107,19.60761 4.39618,5.62769 10.05385,10.30684 17.24029,10.30684 7.074141,0 12.244639,-5.03878 15.2399,-10.59987 0.768509,-1.42684 1.456843,-2.92388 2.08721,-4.46741 l -5.631698,-15.02389 c -1.634691,5.72718 -3.302452,11.11809 -5.258075,14.74896 -2.156877,4.00453 -3.693327,5.34181 -6.437337,5.34181 -2.63174,0 -5.89609,-2.02877 -9.35963,-6.46266 -3.46354,-4.43389 -6.75214,-10.81765 -9.43767,-17.28526 -3.40306,-8.19562 -5.87068,-16.43504 -7.2285,-21.39198 z"/></g><g style="stroke:#a9a9a9;stroke-opacity:1" id="g1604" transform="matrix(0.90161789,0,0,0.90161789,27.537535,45.776611)"><circle style="fill:#fff;fill-opacity:1;stroke:#a9a9a9;stroke-width:.3;stroke-linecap:round;stroke-linejoin:round;stroke-miterlimit:4;stroke-dasharray:none;stroke-dashoffset:0;stroke-opacity:1;paint-order:stroke fill markers" id="path1595" cx="187.745" cy="99.731" r="10.203"/><g style="stroke:#a9a9a9;stroke-opacity:1" id="g902" transform="matrix(0.00522608,0,0,0.00522608,182.52202,93.266246)"><path style="stroke:#a9a9a9;stroke-opacity:1" id="path879" fill="#42a5f5" fill-opacity=".8" d="M 381,1618 0,1237 1237.1,0 H 1999 m 0,1141.5 h -761.9 l -285.4,285.4 381,381"/><path style="stroke:#a9a9a9;stroke-opacity:1" id="path881" fill="#0d47a1" d="m 951.7,2188.8 285.4,285.4 H 1999 l -666.3,-666.3"/><path style="stroke:#a9a9a9;stroke-opacity:1" id="path883" fill="#42a5f5" d="M 571.6,1808.1 952,1427.6 1332.4,1808 952,2188.5 Z"/><path style="stroke:#a9a9a9;stroke-opacity:1" id="path885" fill="url(#a)" d="m 952,2188.5 380.4,-380.4 53.1,53.1 -380.4,380.4 z"/><path style="stroke:#a9a9a9;stroke-opacity:1" id="path887" fill="url(#b)" d="M 951.7,2188.8 1517,1993.5 1332.7,1807.8"/></g></g></g></svg>