<svg xmlns="http://www.w3.org/2000/svg" xmlns:svg="http://www.w3.org/2000/svg" xmlns:xlink="http://www.w3.org/1999/xlink" id="svg178" width="287.492" height="406.053" fill="none" version="1.1" viewBox="0 0 287.492 406.053"><metadata id="metadata182"/><path style="fill:#0a69cd;fill-opacity:1;stroke:none;stroke-width:1px;stroke-linecap:butt;stroke-linejoin:miter;stroke-opacity:1" id="path1078" d="M 42.492481,13.265028 170.37293,7.6324279 50.643481,69.569068 Z"/><path style="color:#000;font-style:normal;font-variant:normal;font-weight:400;font-stretch:normal;font-size:medium;line-height:normal;font-family:sans-serif;font-variant-ligatures:normal;font-variant-position:normal;font-variant-caps:normal;font-variant-numeric:normal;font-variant-alternates:normal;font-variant-east-asian:normal;font-feature-settings:normal;font-variation-settings:normal;text-indent:0;text-align:start;text-decoration:none;text-decoration-line:none;text-decoration-style:solid;text-decoration-color:#000;letter-spacing:normal;word-spacing:normal;text-transform:none;writing-mode:lr-tb;direction:ltr;text-orientation:mixed;dominant-baseline:auto;baseline-shift:baseline;text-anchor:start;white-space:normal;shape-padding:0;shape-margin:0;inline-size:0;clip-rule:nonzero;display:inline;overflow:visible;visibility:visible;opacity:1;isolation:auto;mix-blend-mode:normal;color-interpolation:sRGB;color-interpolation-filters:linearRGB;solid-color:#000;solid-opacity:1;vector-effect:none;fill:#075bb3;fill-opacity:1;fill-rule:nonzero;stroke:none;stroke-width:10;stroke-linecap:butt;stroke-linejoin:miter;stroke-miterlimit:4;stroke-dasharray:none;stroke-dashoffset:0;stroke-opacity:1;color-rendering:auto;image-rendering:auto;shape-rendering:auto;text-rendering:auto;enable-background:accumulate;stop-color:#000;stop-opacity:1" id="path1101" d="m 46.548451,8.9098879 -9.88867,1.4765601 31.91797,213.783212 9.89062,-1.47657 z"/><path id="path2" fill="#fd9e82" d="m 227.58712,120.5069 c -0.311,0.658 -0.736,1.257 -1.255,1.768 -4.159,4.391 -9.542,7.432 -15.451,8.727 -2.087,0.48 -4.221,0.722 -6.362,0.72 -1.255,-8.095 -2.532,-16.2 -3.514,-24.327 -0.775,-6.349 -1.353,-12.687002 -1.626,-19.058002 -0.185,-3.992 -8.839,-17.9119 -7.071,-21.6427 1.953,-4.1017 16.019,9.9379 17.601,12.6106 8.785,14.7271 11.938,26.116102 17.962,38.781102 0.228,0.813 0.126,1.683 -0.284,2.421 z" style="fill:#292fc1;fill-opacity:1"/><path id="path4" fill="url(#paint0_linear)" d="m 212.29912,129.5179 c -0.421,0.548 -0.897,1.052 -1.419,1.506 -2.086,0.48 -4.22,0.722 -6.361,0.72 -1.255,-8.095 -2.532,-16.2 -3.514,-24.327 0.371,-6.385 1.044,-12.745002 2.019,-19.080002 -0.415,2.651 2.848,8.433 3.732,11.029 l 3.83,11.313002 c 1.997,5.901 6.263,13.079 1.713,18.839 z" style="fill:#0c129c;fill-opacity:1"/><path id="path6" fill="url(#paint1_linear)" d="m 207.59612,143.3609 c 0.873,5.324 1.986,10.713 4.616,15.426 1.353,2.421 3.372,4.799 6.111,5.225 1.523,0.144 3.058,-0.085 4.474,-0.666 2.933,-1.008 5.699,-2.45 8.206,-4.276 2.395,-1.836 4.652,-3.845 6.754,-6.011 3.127,-2.95 6.02,-6.137 8.654,-9.534 1.211,-1.636 2.313,-3.36 3.633,-4.92 5.456,-6.491 14.186,-9.403 20.373,-15.196 1.67,-1.549 5.053,-8.64 4.802,-10.909 -2.27,-1.309 -6.929,3.96 -9.439,4.724 -2.51,0.764 -4.856,2.007 -7.377,2.716 -3.018,0.842 -6.203,0.883 -9.242,0.12 -1.026,-0.262 -2.248,-16.439 -3.274,-16.068 -0.516,0.216 -0.979,0.544 -1.353,0.96 -2.117,2.181 -3.274,20.803 -5.031,23.224 -2.411,3.273 -5.751,5.76 -9.057,8.138 -0.295,0.208 -0.666,0.426 -0.993,0.262 -0.108,-0.08 -0.198,-0.181 -0.266,-0.298 -0.067,-0.116 -0.111,-0.245 -0.127,-0.378 -0.862,-3.196 -1.833,-6.371 -2.892,-9.502 -0.742,-2.181 -1.789,-4.581 -3.982,-5.236 -1.954,-0.578 -3.983,0.524 -5.729,1.582 -2.248,1.374 -4.518,2.727 -6.755,4.112 -1.244,0.764 -2.75,1.506 -3.339,2.913 -0.72,1.691 -0.109,4.025 0.098,5.76 0.327,2.629 0.709,5.236 1.135,7.832 z" style="fill:#eec29f;fill-opacity:1"/><g id="g1052" transform="matrix(1.7420513,0,0,1.7420513,241.18014,1648.356)"><path id="path2479" d="m 241.70117,117.75195 0.004,0.0254 c -2.58998,0 -5.10278,0.19698 -7.55664,0.53907 l -97.95313,7 L 137.20117,128 19.607422,139.50781 A 233.08004,233.08004 0 0 0 0.4609375,218.45898 c 0.43966417,1.1502 0.8680252,2.28938 1.3203125,3.45313 1.7012409,4.37771 3.4919149,8.85038 5.3828125,13.4043 0.6812598,1.64069 1.374288,3.28192 2.0742187,4.92382 0.6999686,1.64179 1.4097758,3.28363 2.1289068,4.92383 0.71913,1.6402 1.448715,3.27813 2.1875,4.91406 6.651061,14.7269 14.108474,29.22106 22.546874,42.48047 0.937626,1.47319 1.887493,2.9297 2.84961,4.3711 0.961814,1.44098 1.937069,2.86508 2.923828,4.27148 0.987402,1.40727 1.985209,2.79613 2.998047,4.16602 1.012535,1.36951 2.037709,2.71941 3.076172,4.04883 0.987326,1.26289 1.994472,2.51037 3.015625,3.74609 0.425386,0.5147 0.86364,1.0164 1.294922,1.52539 0.622261,0.7347 1.242257,1.47124 1.876953,2.19336 0.407055,0.4628 0.824133,0.914 1.236328,1.37109 0.698381,0.775 1.398056,1.54758 2.111328,2.30469 0.383811,0.40728 0.775905,0.80328 1.164063,1.20508 0.522368,0.54089 1.036138,1.09274 1.566406,1.62305 L 200.73438,463.9043 a 233.08004,233.08004 0 0 0 32.3457,2.25586 233.08004,233.08004 0 0 0 233.08008,-233.08008 233.08004,233.08004 0 0 0 -18.60547,-91.25391 l -96.33008,-11.26367 -5.26758,-5.26758 h -37.52734 l -0.0937,0.25196 -54.06641,-6.32032 c -0.0895,-0.0227 -0.17781,-0.0464 -0.26758,-0.0664 -0.68618,-0.1595 -1.38422,-0.29252 -2.08203,-0.42578 -0.30062,-0.0578 -0.59567,-0.12558 -0.89844,-0.17774 -0.74288,-0.12888 -1.49812,-0.22986 -2.2539,-0.32812 -0.25894,-0.034 -0.51301,-0.0807 -0.77344,-0.11133 -1.00018,-0.11528 -2.01081,-0.19967 -3.0332,-0.25977 -0.0193,0 -0.0374,-3.8e-4 -0.0566,-0.0117 h -0.002 c -1.05504,-0.0608 -2.12262,-0.0937 -3.20117,-0.0937 z" transform="matrix(0.26458333,0,0,0.26458333,-134.51857,-837.59463)" style="color:#000;font-style:normal;font-variant:normal;font-weight:400;font-stretch:normal;font-size:medium;line-height:normal;font-family:sans-serif;font-variant-ligatures:normal;font-variant-position:normal;font-variant-caps:normal;font-variant-numeric:normal;font-variant-alternates:normal;font-variant-east-asian:normal;font-feature-settings:normal;font-variation-settings:normal;text-indent:0;text-align:start;text-decoration:none;text-decoration-line:none;text-decoration-style:solid;text-decoration-color:#000;letter-spacing:normal;word-spacing:normal;text-transform:none;writing-mode:lr-tb;direction:ltr;text-orientation:mixed;dominant-baseline:auto;baseline-shift:baseline;text-anchor:start;white-space:normal;shape-padding:0;shape-margin:0;inline-size:0;clip-rule:nonzero;visibility:visible;isolation:auto;mix-blend-mode:normal;color-interpolation:sRGB;color-interpolation-filters:linearRGB;solid-color:#000;solid-opacity:1;fill:#075bb3;fill-opacity:1;fill-rule:nonzero;stroke:none;stroke-width:37.7952;stroke-linecap:butt;stroke-linejoin:miter;stroke-miterlimit:4;stroke-dasharray:none;stroke-dashoffset:0;stroke-opacity:1;color-rendering:auto;image-rendering:auto;shape-rendering:auto;text-rendering:auto"/><path id="path1105-6" d="m -10.05089,-775.92554 a 62.798588,62.798588 0 0 1 -62.79858,62.79859 62.798588,62.798588 0 0 1 -62.79859,-62.79859 62.798588,62.798588 0 0 1 62.79859,-62.79858 62.798588,62.798588 0 0 1 62.79858,62.79858" style="fill:#3860c9;fill-opacity:1;stroke:none;stroke-width:1.5;stroke-linecap:round;stroke-linejoin:round;paint-order:stroke fill markers"/><path id="circle2037" d="m -10.05089,-775.92554 a 62.798588,62.798588 0 0 1 -62.79858,62.79859 62.798588,62.798588 0 0 1 -62.79859,-62.79859 62.798588,62.798588 0 0 1 62.79859,-62.79858 62.798588,62.798588 0 0 1 62.79858,62.79858" style="fill:#0a69cd;fill-opacity:1;stroke:none;stroke-width:1.5;stroke-linecap:round;stroke-linejoin:round;paint-order:stroke fill markers"/><path style="fill:#075bb3;fill-opacity:1;stroke:none;stroke-width:5.66929;stroke-linecap:round;stroke-linejoin:round;paint-order:stroke fill markers" id="circle2304" d="m 241.70898,136.66992 c -74.21605,0 -54.3777,192.82031 -128.59375,192.82031 -57.956145,0 -93.280967,-117.58222 -105.9785112,-169.10546 a 237.34899,237.34899 0 0 0 -11.40625,72.69531 237.34899,237.34899 0 0 0 237.3496112,237.34961 237.34899,237.34899 0 0 0 237.34961,-237.34961 237.34899,237.34899 0 0 0 -10.01758,-68.2207 c -8.76976,53.51206 -33.7556,164.63085 -90.11133,164.63085 -74.21605,0 -54.37575,-192.82031 -128.5918,-192.82031 z" clip-path="none" transform="matrix(0.26458333,0,0,0.26458333,-134.51857,-837.59463)"/><path id="path2809" d="m 241.70508,117.79102 c -4.12698,0 -8.07549,0.47141 -11.85547,1.3164 0,0 -0.002,0 -0.002,0 l -56.125,6.22461 h -37.5273 L 189.125,266.47852 157.31641,234.67188 c -1.54443,5.41069 -3.0968,10.74225 -4.67188,15.91015 -1.57504,5.16779 -3.17469,10.17266 -4.81055,14.92969 -0.65688,1.91017 -1.32602,3.7474 -1.99609,5.57226 L 18.005859,143.25195 A 233.08004,233.08004 0 0 0 0.45898438,218.47852 c 1.26363152,3.3072 2.57587482,6.66853 3.94726562,10.08398 0.8971087,2.23427 1.8182231,4.49068 2.7636719,6.76758 2.7259842,6.56511 5.6000571,13.14931 8.6367191,19.66601 0.759156,1.62932 1.528801,3.2557 2.308593,4.875 0.779755,1.61942 1.570174,3.23129 2.371094,4.83789 0.26948,0.54112 0.548187,1.07586 0.820313,1.61524 2.152214,4.2661 4.372273,8.48483 6.68164,12.61914 0,0 0.002,0 0.002,0 1.410444,2.52499 2.858255,5.01245 4.330078,7.47266 0.337512,0.56401 0.66908,1.13511 1.009766,1.69531 0.350362,0.57641 0.710425,1.14071 1.064453,1.71289 2.4144,3.9024 4.901748,7.71571 7.484375,11.39648 0,0 0.002,0 0.002,0 0.98657,1.40603 1.986041,2.79535 2.998047,4.16407 0,0 0.002,0 0.002,0 1.012007,1.36868 2.036323,2.71818 3.074219,4.04687 0,0 0.002,0 0.002,0 0.04158,0.0529 0.08538,0.10491 0.126953,0.1582 0.96703,1.2353 1.949383,2.45782 2.949219,3.66602 0.274394,0.33184 0.559087,0.65311 0.835938,0.98242 0.759911,0.90369 1.522085,1.80478 2.300781,2.68945 0.429543,0.48813 0.869399,0.9635 1.304687,1.44532 0.634016,0.70159 1.267839,1.40272 1.914063,2.08984 0.507401,0.53949 1.024102,1.06574 1.539062,1.5957 0.432076,0.44451 0.855527,0.90053 1.292969,1.33789 L 200.72656,463.90234 a 233.08004,233.08004 0 0 0 32.35352,2.25782 233.08004,233.08004 0 0 0 233.08008,-233.08008 233.08004,233.08004 0 0 0 -15.25782,-82.93946 c -2.17361,10.78373 -5.08234,24.01577 -8.84179,38.4336 -0.46999,1.80238 -0.95373,3.62054 -1.44922,5.45312 -1.48664,5.49854 -3.08722,11.11902 -4.80664,16.78321 -0.33638,1.10831 -0.68584,2.22104 -1.03125,3.33203 l -88.8125,-88.81055 h -37.52735 l -9.74023,26.15625 -15.21289,-15.21289 c -0.19238,-0.19276 -0.39347,-0.37607 -0.58789,-0.56641 -0.3896,-0.38158 -0.78032,-0.76187 -1.17774,-1.13476 -0.31861,-0.29896 -0.64311,-0.59148 -0.96679,-0.88477 -0.38499,-0.34885 -0.77006,-0.6968 -1.16211,-1.03711 -0.35036,-0.30425 -0.7064,-0.60121 -1.0625,-0.89843 -0.39198,-0.32693 -0.78287,-0.65435 -1.18164,-0.97266 -0.3738,-0.2982 -0.75493,-0.58657 -1.13477,-0.87695 -0.37973,-0.29027 -0.75887,-0.58126 -1.14453,-0.86328 -0.40694,-0.29745 -0.82082,-0.58505 -1.23438,-0.87305 -0.38267,-0.26646 -0.76399,-0.53487 -1.15234,-0.79297 -0.41227,-0.27402 -0.83134,-0.53648 -1.25,-0.80078 -0.40785,-0.25739 -0.81466,-0.5157 -1.22851,-0.76367 -0.3992,-0.23925 -0.80619,-0.46522 -1.21094,-0.69532 -0.44032,-0.2502 -0.87737,-0.50497 -1.32422,-0.74414 -0.40241,-0.21543 -0.81297,-0.41683 -1.2207,-0.62304 -0.46137,-0.2332 -0.92051,-0.47019 -1.38868,-0.69141 -0.40323,-0.19049 -0.81439,-0.36546 -1.22265,-0.54687 -0.48091,-0.21355 -0.95937,-0.43231 -1.44727,-0.63282 -0.42621,-0.17499 -0.86146,-0.33303 -1.29297,-0.49804 -0.48253,-0.18444 -0.96202,-0.37567 -1.45117,-0.54688 -0.4309,-0.1508 -0.87063,-0.28349 -1.30664,-0.42383 -0.50358,-0.16214 -1.00332,-0.33032 -1.51367,-0.47851 -0.47573,-0.13796 -0.9617,-0.25549 -1.44336,-0.38086 -0.47153,-0.12284 -0.93885,-0.25487 -1.41602,-0.36524 -0.54886,-0.12699 -1.10779,-0.22948 -1.66406,-0.33984 -0.43374,-0.0858 -0.86254,-0.18418 -1.30078,-0.25977 -0.46628,-0.0809 -0.94272,-0.13629 -1.41406,-0.20507 -0.55004,-0.0801 -1.09539,-0.17088 -1.65235,-0.23438 -0.26796,-0.0302 -0.54302,-0.0442 -0.8125,-0.0703 -0.75564,-0.0748 -1.51114,-0.1499 -2.27929,-0.19336 -1.03268,-0.0582 -2.07569,-0.0898 -3.13086,-0.0898 z" transform="matrix(0.26458333,0,0,0.26458333,-134.51857,-837.59463)" style="color:#000;font-style:normal;font-variant:normal;font-weight:400;font-stretch:normal;font-size:medium;line-height:normal;font-family:sans-serif;font-variant-ligatures:normal;font-variant-position:normal;font-variant-caps:normal;font-variant-numeric:normal;font-variant-alternates:normal;font-variant-east-asian:normal;font-feature-settings:normal;font-variation-settings:normal;text-indent:0;text-align:start;text-decoration:none;text-decoration-line:none;text-decoration-style:solid;text-decoration-color:#000;letter-spacing:normal;word-spacing:normal;text-transform:none;writing-mode:lr-tb;direction:ltr;text-orientation:mixed;dominant-baseline:auto;baseline-shift:baseline;text-anchor:start;white-space:normal;shape-padding:0;shape-margin:0;inline-size:0;clip-rule:nonzero;visibility:visible;isolation:auto;mix-blend-mode:normal;color-interpolation:sRGB;color-interpolation-filters:linearRGB;solid-color:#000;solid-opacity:1;fill:#075bb3;fill-opacity:1;fill-rule:nonzero;stroke:none;stroke-width:37.7953;stroke-linecap:butt;stroke-linejoin:miter;stroke-miterlimit:4;stroke-dasharray:none;stroke-dashoffset:0;stroke-opacity:1;color-rendering:auto;image-rendering:auto;shape-rendering:auto;text-rendering:auto"/><path style="color:#000;font-style:normal;font-variant:normal;font-weight:400;font-stretch:normal;font-size:medium;line-height:normal;font-family:sans-serif;font-variant-ligatures:normal;font-variant-position:normal;font-variant-caps:normal;font-variant-numeric:normal;font-variant-alternates:normal;font-variant-east-asian:normal;font-feature-settings:normal;font-variation-settings:normal;text-indent:0;text-align:start;text-decoration:none;text-decoration-line:none;text-decoration-style:solid;text-decoration-color:#000;letter-spacing:normal;word-spacing:normal;text-transform:none;writing-mode:lr-tb;direction:ltr;text-orientation:mixed;dominant-baseline:auto;baseline-shift:baseline;text-anchor:start;white-space:normal;shape-padding:0;shape-margin:0;inline-size:0;clip-rule:nonzero;display:inline;overflow:visible;visibility:visible;opacity:.17201;isolation:auto;mix-blend-mode:normal;color-interpolation:sRGB;color-interpolation-filters:linearRGB;solid-color:#000;solid-opacity:1;vector-effect:none;fill:#000;fill-opacity:1;fill-rule:nonzero;stroke:none;stroke-width:37.7953;stroke-linecap:butt;stroke-linejoin:miter;stroke-miterlimit:4;stroke-dasharray:none;stroke-dashoffset:0;stroke-opacity:1;filter:url(#filter3171);color-rendering:auto;image-rendering:auto;shape-rendering:auto;text-rendering:auto;enable-background:accumulate;stop-color:#000" id="path3169" d="m -266.70898,-3047.9375 c -17.7464,0 -32.31841,8.3932 -43.42579,20.1816 l 16.22071,43.5879 c 0.94156,-2.0345 1.89761,-3.9705 2.875,-5.7851 8.15198,-15.1353 13.95898,-20.1895 24.33008,-20.1895 10.3711,0 16.17812,5.0542 24.33007,20.1895 0.73286,1.3606 1.45166,2.8069 2.16407,4.2929 l 9.29296,28.3633 17.39649,53.0918 9.28711,28.3438 c 2.55442,6.3949 5.35475,12.5932 8.52148,18.4726 11.32063,21.0183 30.86267,40.0625 57.59961,40.0625 27.16131,0 48.069918,-18.2258 63.078128,-39.789 15.008195,-21.5633 26.030419,-48.2545 34.724609,-74.5938 0.77536,-2.3489 1.52425,-4.6687 2.25,-6.959 -0.740004,-29.0694 -6.815502,-57.7554 -17.923828,-84.6289 -3.58095,18.8067 -10.207107,49.4157 -20.216797,79.7403 -8.04268,24.3654 -18.391587,48.3843 -29.851562,64.8496 -11.45998,16.4653 -22.11385,23.584 -32.06055,23.584 -10.3711,0 -16.17813,-5.0543 -24.33008,-20.1895 -20.58092,-50.4344 -32.77762,-80.7425 -51.08203,-128.6973 l -10.65039,-24.6816 c -10.99092,-11.2935 -25.2568,-19.2461 -42.52929,-19.2461 z m -105.50977,7.541 80.82617,215.5391 h 48.11133 l 20.84375,-55.5821 -17.83789,-51.7363 -27.06055,72.6778 -67.35547,-180.8985 z m 172.23828,0 -5.66601,15.2149 20.63086,44.9531 22.5625,-60.168 z m -293.68555,14.666 c -9.38245,22.0045 -15.3845,45.3009 -17.80273,69.0996 3.0534,8.3551 6.44086,17.1344 10.22266,26.2422 10.904,26.2603 24.16971,52.837 40.78515,74.1075 16.61548,21.27 37.99881,38.955 65.16016,38.955 26.7369,0 46.27894,-19.0442 57.59961,-40.0625 2.9046,-5.3928 5.50618,-11.0509 7.88867,-16.8847 l -21.28516,-56.7832 c -6.17836,21.646 -12.48171,42.0211 -19.87304,55.7441 -8.15199,15.1352 -13.95902,20.1895 -24.33008,20.1895 -9.94674,0 -22.28446,-7.6678 -35.375,-24.4258 -13.09055,-16.758 -25.51989,-40.8856 -35.66992,-65.3301 -12.86198,-30.9756 -22.18842,-62.1167 -27.32032,-80.8516 z" transform="scale(0.26458333)"/><path id="path2047" d="m -70.56675,-806.43345 c -4.695402,0 -8.550913,2.2207 -11.48974,5.33971 l 4.291729,11.53263 c 0.249121,-0.53829 0.502076,-1.05052 0.760677,-1.53064 2.156878,-4.00455 3.693314,-5.3418 6.437334,-5.3418 2.74402,0 4.280461,1.33725 6.437331,5.3418 0.193902,0.35999 0.384085,0.74266 0.572577,1.13583 l 2.458762,7.50446 4.602821,14.0472 2.457215,7.4993 c 0.675857,1.69198 1.416777,3.33195 2.254641,4.88754 2.99525,5.56109 8.165748,10.59987 15.239897,10.59987 7.18643,0 12.718499,-4.82224 16.689421,-10.5275 3.970918,-5.70529 6.887215,-12.76734 9.187553,-19.73628 0.205147,-0.62148 0.403291,-1.23526 0.595312,-1.84124 -0.195792,-7.69127 -1.803268,-15.28111 -4.742346,-22.39139 -0.94746,4.97594 -2.70063,13.07457 -5.349027,21.09795 -2.127959,6.44668 -4.866108,12.80168 -7.898226,17.15813 -3.03212,4.35644 -5.850956,6.23993 -8.482687,6.23993 -2.74402,0 -4.280464,-1.33728 -6.437334,-5.34181 -5.445368,-13.3441 -8.672411,-21.36312 -13.515453,-34.05116 l -2.817916,-6.53034 c -2.908014,-2.98807 -6.682528,-5.09219 -11.252541,-5.09219 z m -27.916126,1.99522 21.385257,57.02805 h 12.729456 l 5.514909,-14.70609 -4.719609,-13.68857 -7.15977,19.22934 -17.821135,-47.86273 z m 45.571377,0 -1.499131,4.02561 5.458581,11.89384 5.969662,-15.91945 z m -77.704301,3.88038 c -2.48244,5.82202 -4.07048,11.98586 -4.71031,18.2826 0.80788,2.21062 1.70415,4.53348 2.70475,6.94325 2.88502,6.94804 6.3949,13.97979 10.79107,19.60761 4.39618,5.62769 10.05385,10.30684 17.24029,10.30684 7.074141,0 12.244639,-5.03878 15.2399,-10.59987 0.768509,-1.42684 1.456843,-2.92388 2.08721,-4.46741 l -5.631698,-15.02389 c -1.634691,5.72718 -3.302452,11.11809 -5.258075,14.74896 -2.156877,4.00453 -3.693327,5.34181 -6.437337,5.34181 -2.63174,0 -5.89609,-2.02877 -9.35963,-6.46266 -3.46354,-4.43389 -6.75214,-10.81765 -9.43767,-17.28526 -3.40306,-8.19562 -5.87068,-16.43504 -7.2285,-21.39198 z" style="color:#000;font-style:normal;font-variant:normal;font-weight:400;font-stretch:normal;font-size:medium;line-height:normal;font-family:sans-serif;font-variant-ligatures:normal;font-variant-position:normal;font-variant-caps:normal;font-variant-numeric:normal;font-variant-alternates:normal;font-variant-east-asian:normal;font-feature-settings:normal;font-variation-settings:normal;text-indent:0;text-align:start;text-decoration:none;text-decoration-line:none;text-decoration-style:solid;text-decoration-color:#000;letter-spacing:normal;word-spacing:normal;text-transform:none;writing-mode:lr-tb;direction:ltr;text-orientation:mixed;dominant-baseline:auto;baseline-shift:baseline;text-anchor:start;white-space:normal;shape-padding:0;shape-margin:0;inline-size:0;clip-rule:nonzero;display:inline;overflow:visible;visibility:visible;isolation:auto;mix-blend-mode:normal;color-interpolation:sRGB;color-interpolation-filters:linearRGB;solid-color:#000;solid-opacity:1;vector-effect:none;fill:#fff;fill-opacity:1;fill-rule:nonzero;stroke:none;stroke-width:10;stroke-linecap:butt;stroke-linejoin:miter;stroke-miterlimit:4;stroke-dasharray:none;stroke-dashoffset:0;stroke-opacity:1;color-rendering:auto;image-rendering:auto;shape-rendering:auto;text-rendering:auto;enable-background:accumulate;stop-color:#000"/></g><path id="path12" fill="url(#paint3_linear)" d="m 168.30142,248.9909 c 4.3649,1.571 9.1117,2.695 12.6907,5.673 3.176,2.629 5.107,6.436 6.668,10.243 5.202,12.777 7.079,26.664 5.456,40.363 -0.437,3.644 -1.092,7.396 -0.142,10.909 0.949,3.513 4.19,6.807 7.835,6.371 5.052,-10.036 5.161,-21.753 5.172,-32.989 0,-8.203 0,-16.581 -2.75,-24.315 -2.248,-6.371 -6.22,-12 -10.323,-17.356 -14.96,-19.636 -33.0636,-37.952 -56.1102,-46.777 -0.9556,-0.489 -2.0533,-0.624 -3.0991,-0.382 -4.7468,1.734 -3.972,10.178 -2.1278,13.57 2.6187,4.687 5.5346,9.202 8.7297,13.516 7.0094,9.695 16.7617,17.07 28.0007,21.174 z" style="fill:#00468f;fill-opacity:1"/><path id="path14" fill="url(#paint4_linear)" d="m 125.14362,232.3379 c 0.0648,-1.468 0.2546,-2.928 0.5674,-4.364 0.168,-0.712 0.5286,-1.365 1.0424,-1.886 0.5138,-0.522 1.1611,-0.892 1.8712,-1.07 0.5994,-0.016 1.1972,-0.071 1.7896,-0.164 1.2112,-0.371 1.7241,-1.778 2.0733,-2.989 l 3.8738,-13.527 c 0.7421,-2.618 1.495,-5.367 0.9276,-8.018 -0.8948,-4.145 -4.7032,-6.949 -8.4133,-8.978 -2.6953,-1.483 -5.7289,-2.803 -8.7298,-2.247 -4.6486,0.862 -7.3439,5.662 -9.0789,10.058 -2.0193,4.71 -3.2612,9.717 -3.6774,14.825 -0.3056,5.902 -0.8075,20.356 2.8481,25.516 5.0632,7.243 14.0985,-0.611 14.906,-7.156 z" style="fill:#00468f;fill-opacity:1"/><path id="path16" fill="#525263" d="m 184.00412,207.2649 c 9.897,3.349 20.449,4.757 29.987,9.022 0.307,0.093 0.592,0.248 0.836,0.457 0.244,0.208 0.442,0.465 0.582,0.754 0.083,0.472 0.023,0.959 -0.174,1.396 -8.055,23.946 -12.598,48.932 -13.488,74.18 5.707,1.027 11.539,1.156 17.285,0.382 0.646,-0.04 1.272,-0.239 1.822,-0.578 0.53,-0.464 0.929,-1.058 1.157,-1.724 9.232,-20.719 17.518,-41.828 24.858,-63.326 1.299,-3.807 2.586,-7.788 2.062,-11.781 -0.753,-5.815 -5.128,-10.396 -9.286,-14.531 l -32.398,-32.312 c -0.824,-0.928 -1.836,-1.672 -2.968,-2.181 -1.304,-0.388 -2.681,-0.455 -4.016,-0.197 -12.778,1.582 -30.2268,2.073 -53.7098,1.091 -3.0445,-0.131 12.0034,17.203 13.2583,20.531 1.0039,2.64 4.1794,6.043 6.1218,8.094 4.8668,5.105 11.4357,8.476 18.0707,10.723 z"/><path id="path18" fill="url(#paint5_linear)" d="m 184.00412,207.2649 c 9.897,3.349 20.449,4.757 29.987,9.022 0.307,0.093 0.592,0.248 0.836,0.457 0.244,0.208 0.442,0.465 0.582,0.754 0.083,0.472 0.023,0.959 -0.174,1.396 -8.055,23.946 -12.598,48.932 -13.488,74.18 5.707,1.027 11.539,1.156 17.285,0.382 0.646,-0.04 1.272,-0.239 1.822,-0.578 0.53,-0.464 0.929,-1.058 1.157,-1.724 9.232,-20.719 17.518,-41.828 24.858,-63.326 1.299,-3.807 2.586,-7.788 2.062,-11.781 -0.753,-5.815 -5.128,-10.396 -9.286,-14.531 l -32.398,-32.312 c -0.824,-0.928 -1.836,-1.672 -2.968,-2.181 -1.304,-0.388 -2.681,-0.455 -4.016,-0.197 -12.778,1.582 -30.2268,2.073 -53.7098,1.091 -3.0445,-0.131 12.0034,17.203 13.2583,20.531 1.0039,2.64 4.1794,6.043 6.1218,8.094 4.8668,5.105 11.4357,8.476 18.0707,10.723 z" style="fill:#000;fill-opacity:1"/><path id="path20" fill="#2e2e3f" d="m 200.08812,307.3969 c -0.795,1.237 -1.333,2.621 -1.582,4.069 -0.582,2.536 -1.012,5.104 -1.288,7.691 -0.218,2.007 -0.294,4.189 0.852,5.836 1.145,1.647 3.033,2.247 4.801,2.935 4.45,1.83 8.774,3.955 12.942,6.359 2.815,1.55 5.75,3.153 8.959,3.273 3.208,0.12 6.754,-1.636 7.485,-4.756 0.254,-1.502 0.126,-3.044 -0.371,-4.484 -1.751,-6.259 -5.186,-11.918 -9.93,-16.363 -0.831,-0.811 -1.758,-1.518 -2.76,-2.105 -0.962,-0.497 -1.966,-0.906 -3.001,-1.222 -2.915,-1.066 -5.901,-1.923 -8.937,-2.564 -2.652,-0.425 -5.336,-1.211 -7.17,1.331 z"/><path id="path22" fill="url(#paint6_linear)" d="m 200.08812,307.3969 c -0.795,1.237 -1.333,2.621 -1.582,4.069 -0.582,2.536 -1.012,5.104 -1.288,7.691 -0.218,2.007 -0.294,4.189 0.852,5.836 1.145,1.647 3.033,2.247 4.801,2.935 4.45,1.83 8.774,3.955 12.942,6.359 2.815,1.55 5.75,3.153 8.959,3.273 3.208,0.12 6.754,-1.636 7.485,-4.756 0.254,-1.502 0.126,-3.044 -0.371,-4.484 -1.751,-6.259 -5.186,-11.918 -9.93,-16.363 -0.831,-0.811 -1.758,-1.518 -2.76,-2.105 -0.962,-0.497 -1.966,-0.906 -3.001,-1.222 -2.915,-1.066 -5.901,-1.923 -8.937,-2.564 -2.652,-0.425 -5.336,-1.211 -7.17,1.331 z" style="fill:#1f1f1f;fill-opacity:1"/><path id="path24" fill="url(#paint7_linear)" d="m 203.32912,293.8919 c -0.827,4.315 -1.258,8.697 -1.287,13.091 0,1.931 0.131,4.069 1.517,5.454 1.311,1.042 2.983,1.521 4.648,1.331 2.007,-0.074 3.988,-0.483 5.86,-1.211 0.415,-0.129 0.791,-0.362 1.091,-0.676 0.221,-0.31 0.374,-0.663 0.448,-1.037 1.665,-6.244 2.548,-12.671 2.629,-19.134 0.107,-1.013 -0.103,-2.034 -0.6,-2.923 -1.036,-1.451 -3.186,-1.386 -4.932,-1.036 -2.235,0.478 -4.426,1.146 -6.547,1.996 -2.008,0.698 -2.423,2.073 -2.827,4.145 z" style="fill:#eec29f;fill-opacity:1"/><path id="path26" fill="url(#paint8_linear)" d="m 224.84812,314.4009 c 0.789,1.938 1.431,3.933 1.921,5.967 0.338,1.582 0.534,3.273 1.549,4.538 1.288,1.582 3.525,1.985 5.565,2.018 1.682,0.095 3.364,-0.188 4.922,-0.829 0.81,-0.318 1.488,-0.903 1.92,-1.658 0.304,-0.746 0.409,-1.558 0.306,-2.356 -0.16,-5.543 -1.542,-10.981 -4.049,-15.927 -1.437,-2.557 -3.056,-5.007 -4.845,-7.331 -0.564,-1.046 -1.516,-1.829 -2.651,-2.182 -0.584,-0.02 -1.165,0.076 -1.711,0.284 -0.545,0.208 -1.043,0.523 -1.465,0.927 -1.8,1.353 -5.761,3.611 -5.347,6.174 0.524,3.415 2.663,7.135 3.885,10.375 z" style="fill:#eec29f;fill-opacity:1"/><path id="path28" fill="#2e2e3f" d="m 238.07412,318.4259 c -1.235,0.691 -2.433,1.444 -3.59,2.258 -1.801,0.993 -3.918,1.189 -5.893,1.757 -0.521,0.099 -1,0.354 -1.375,0.73 -0.272,0.368 -0.441,0.801 -0.491,1.255 -0.371,2.978 -0.249,5.996 0.36,8.934 1.004,6.356 2.175,12.687 3.514,18.992 0.556,2.597 1.222,5.335 3.11,7.2 1.888,1.866 4.758,2.509 7.442,2.586 2.512,0.144 5.021,-0.324 7.311,-1.364 1.822,-0.975 3.4,-2.348 4.617,-4.018 1.217,-1.67 2.041,-3.593 2.411,-5.625 0.71,-4.087 0.21,-8.292 -1.441,-12.098 -1.12,-2.603 -2.426,-5.122 -3.906,-7.538 -1.965,-3.375 -3.921,-6.749 -5.871,-10.124 -1.484,-2.574 -2.837,-4.374 -6.198,-2.945 z"/><path id="path30" fill="url(#paint9_linear)" d="m 238.07412,318.4259 c -1.235,0.691 -2.433,1.444 -3.59,2.258 -1.801,0.993 -3.918,1.189 -5.893,1.757 -0.521,0.099 -1,0.354 -1.375,0.73 -0.272,0.368 -0.441,0.801 -0.491,1.255 -0.371,2.978 -0.249,5.996 0.36,8.934 1.004,6.356 2.175,12.687 3.514,18.992 0.556,2.597 1.222,5.335 3.11,7.2 1.888,1.866 4.758,2.509 7.442,2.586 2.512,0.144 5.021,-0.324 7.311,-1.364 1.822,-0.975 3.4,-2.348 4.617,-4.018 1.217,-1.67 2.041,-3.593 2.411,-5.625 0.71,-4.087 0.21,-8.292 -1.441,-12.098 -1.12,-2.603 -2.426,-5.122 -3.906,-7.538 -1.965,-3.375 -3.921,-6.749 -5.871,-10.124 -1.484,-2.574 -2.837,-4.374 -6.198,-2.945 z" style="fill:#000;fill-opacity:1"/><path id="path32" fill="url(#paint10_linear)" d="m 105.86172,118.7509 c -0.9548,2.402 -1.593,4.917 -1.8987,7.484 -1.038,6.644 -1.7011,13.342 -1.986,20.061 -0.5456,12.829 0.2837,25.679 -0.0764,38.508 -0.371,13.341 -1.942399,27.174 2.859,39.621 0.7477,2.258 2.0104,4.312 3.6883,6 0.8491,0.83 1.896,1.43 3.0416,1.743 1.1457,0.313 2.3523,0.329 3.5057,0.046 1.0438,-0.402 1.9807,-1.039 2.7378,-1.863 0.7571,-0.823 1.3139,-1.809 1.6271,-2.883 0.6016,-2.15 0.8666,-4.38 0.7857,-6.61 l 0.1746,-12.196 c 0,-0.251 0,-0.546 0.251,-0.655 0.1051,-0.036 0.2179,-0.044 0.3271,-0.023 0.1092,0.021 0.2109,0.07 0.2949,0.143 0.9389,0.811 1.8314,1.674 2.6734,2.585 0.9712,0.786 2.5208,1.168 3.3828,0.262 0.2387,-0.317 0.4078,-0.682 0.4961,-1.069 0.0884,-0.387 0.0941,-0.788 0.0168,-1.178 -0.5238,-5.28 -5.1287,-9.087 -7.8677,-13.636 -3.9502,-6.545 -3.9502,-14.792 -2.9572,-22.407 1.2331,-9.534 3.8084,-18.839 6.3727,-28.112 l 2.1825,-7.843 c 1.6477,-5.956 3.2736,-12.458 0.873,-18.163 -0.9639,-2.192 -2.432,-4.124 -4.2847,-5.641 -1.8526,-1.517 -4.0375,-2.574 -6.3766,-3.086 -4.5613,-0.84 -8.195,5.203 -9.8428,8.912 z" style="fill:#eec29f;fill-opacity:1"/><path id="path34" fill="#fd9e82" d="m 207.17012,168.3539 c -1.407,3.785 -9.351,-0.633 -13.891,1.636 -8.664,4.363 -18.5505,-0.12 -28.2078,0 -10.2793,0.185 -17.3722,10.309 -27.5751,11.596 -0.7415,0.153 -1.5064,0.153 -2.2479,0 -1.4077,-0.415 -2.237,-1.822 -2.8372,-3.142 -0.8805,-2.036 -1.5107,-4.172 -1.8769,-6.36 -1.2658,-7.243 0,-15.01 1.3532,-22.374 1.1348,-6.239 2.2661,-12.483 3.3936,-18.73 1.3095,-7.273 2.6299,-14.589 3.9612,-21.949 0.7764,-4.855 1.8699,-9.654002 3.2736,-14.367002 0.2619,-0.818 0.5347,-1.614 0.8294,-2.399 2.5383,-6.398 5.6004,-12.5751 9.1553,-18.4691 2.1824,-3.7853 4.3649,-7.6361 7.7367,-10.5051 3.7647,-3.1745 8.6206,-4.7563 13.4984,-5.5199 4.3865,-0.8266 8.9095,-0.5644 13.1705,0.7636 2.434,0.8509 3.351,3.4254 5.282,5.0072 2.448,1.8133 4.633,3.9573 6.493,6.3707 1.888,2.9138 3.237,6.1432 3.983,9.5343 6.842,26.595302 -3.056,55.286302 3.448,81.958302 0.742,3.13 2.182,3.96 1.058,6.949 z" style="fill:#292fc1;fill-opacity:1"/><path id="path36" fill="url(#paint11_linear)" d="m 197.87312,74.930298 0.851,5.5746 -3.273,-1.8219 v 14.7709 l -3.732,-16.4073 3.612,-5.258 z" style="fill:#0c129c;fill-opacity:1"/><path id="path38" fill="url(#paint12_linear)" d="m 170.15632,74.570398 2.0624,1.0908 3.2734,2.8472 -8.7295,23.410502 c 0,0 12.6795,-19.505002 13.0945,-29.453902 0.257,-6.1197 -0.507,-12.2394 -2.259,-18.1087 z" style="fill:#0c129c;fill-opacity:1"/><path id="path40" fill="url(#paint13_linear)" d="m 142.19932,141.6709 c -0.6929,5.359 -0.6929,10.785 0,16.145 0.4474,3.37 1.1676,6.73 0.9385,10.112 0.0104,0.661 -0.2009,1.306 -0.6002,1.833 -0.5125,0.416 -1.1415,0.664 -1.8005,0.709 -3.4119,0.538 -6.8274,1.087 -10.2466,1.647 -1.2658,-7.243 0,-15.01 1.3531,-22.374 1.1349,-6.24 2.2661,-12.483 3.3937,-18.73 1.3095,-7.273 2.6299,-14.589 3.9612,-21.949 0.7764,-4.855 1.8699,-9.654002 3.2736,-14.367002 0.2619,-0.818 0.5347,-1.614 0.8293,-2.4 3.3828,-1.876 8.086,-3.272 10.1811,-0.24 2.1825,3.273 -0.6874,10.909002 -1.5386,14.182002 -3.099,11.858 -8.1841,23.192 -9.7446,35.432 z" style="fill:#0c129c;fill-opacity:1"/><path id="path42" fill="url(#paint14_linear)" d="m 220.69112,47.090998 c 0.113,1.3565 0.073,2.7215 -0.121,4.069 -0.11,0.6718 -0.445,1.2861 -0.951,1.7421 -0.506,0.4559 -1.151,0.7264 -1.831,0.7669 -3.405,-0.2509 -5.86,3.0109 -8.566,5.1054 -2.123,1.5904 -4.644,2.5653 -7.285,2.8174 -2.641,0.2521 -5.301,-0.2283 -7.687,-1.3884 -0.474,-0.1704 -0.995,-0.1522 -1.456,0.0508 -0.461,0.203 -0.827,0.5754 -1.021,1.0401 -0.34,0.9623 -0.416,1.9985 -0.218,2.9999 l 1.255,11.9343 c 0.24,2.3017 0.262,5.1164 -1.692,6.3594 -1.953,1.244 -4.266,0.164 -5.881,-1.243 -2.539,-2.441 -4.374,-5.5193 -5.314,-8.9127 -2.134,-6.8753 -2.44,-14.1876 -0.889,-21.2171 1.552,-7.0295 4.908,-13.5338 9.738,-18.8728 1.814,-2.0263 3.939,-3.7498 6.297,-5.1053 2.467,-1.2805 5.117,-2.1745 7.856,-2.6509 2.452,-0.5784 4.986,-0.7187 7.486,-0.4145 3.358,0.6103 6.411,2.3362 8.665,4.8981 1.658,1.8108 3.273,7.2107 5.019,8.0943 -1.298,3.2945 -3.35,6.2071 -3.404,9.927 z" style="fill:#eec29f;fill-opacity:1"/><path id="path44" fill="#2e2e3f" d="m 194.72012,0.24859788 c -1.6,-0.3741 -3.27,-0.3253 -4.845,0.1418 -3.078,1.09090002 -4.802,4.30900002 -5.915,7.37440002 -1.113,3.0654001 -2.029,6.4144001 -4.452,8.5852001 -2.084,1.8763 -5.0413,2.629 -6.9182,4.7017 -2.1824,2.4109 -2.3898,5.978 -2.1824,9.218 0,2.4307 0.6845,4.8124 1.9751,6.8725 1.1567,1.5709 2.9355,2.6618 3.8415,4.3635 1.025,1.9527 1.375,4.9745 3.579,5.1054 0.919,-0.0465 1.787,-0.4357 2.433,-1.0909 2.228,-1.9253 3.907,-4.4054 4.867,-7.1889 0.535,-1.5491 0.884,-3.2727 2.062,-4.3636 1.179,-1.0908 3.58,-1.1563 4.114,0.3928 0.151,0.9855 -0.002,1.9935 -0.436,2.8908 -0.284,0.96 -0.164,2.2581 0.775,2.5854 1.767,-2.7272 2.76,-5.9344 4.856,-8.4107 1.188,-1.3927 2.68,-2.4949 4.361,-3.2224 1.681,-0.7274 3.506,-1.0607 5.335,-0.9743 1.829,0.0863 3.615,0.59 5.22,1.4724 1.604,0.8825 2.986,2.1204 4.038,3.6188 1.091,1.56 1.833,3.4145 3.361,4.5272 1.439,0.8766 3.084,1.3582 4.769,1.3963 3.753,0.3709 7.725,0.5127 11.108,-1.1563 3.383,-1.6691 5.882,-5.7163 4.583,-9.2616 -1.025,-2.7818 -3.95,-4.3635 -6.787,-5.2581 -2.837,-0.8945 -5.871,-1.3417 -8.37,-2.9344 -3.393,-2.1818 -5.205,-6.0653 -7.18,-9.5889 -1.975,-3.5235001 -4.649,-7.1453001 -8.599,-7.9743001 -1.612,-0.2509 -3.254,-0.2509 -4.867,0 -1.573,0.3337 -3.184,0.4584 -4.79,0.3709 -1.964,-0.4037 -3.863,-1.73450002 -5.936,-2.19270002 z" style="fill:#2a232b;fill-opacity:1"/><path id="path46" fill="#f2f2f2" d="m 194.72012,89.885898 c 2.492,12.620002 3.226,25.524002 2.182,38.345002 -0.862,10.669 -2.913,21.261 -2.837,31.963 0.16,3.009 0.069,6.027 -0.273,9.021 -0.48,2.968 -20.3839,1.833 -23.2865,1.8 -4.8887,-0.065 1.3095,6.546 -2.3679,3.36 -5.7726,-5.029 -8.3479,-12.872 -9.0572,-20.487 -1.0148,-10.854 1.2113,-21.719 3.6338,-32.355 1.6805,-7.364 3.4701,-14.749 6.4818,-21.676002 3.732,-8.563 9.636,-19.461 11.534,-28.6138 0.273,-1.3417 -4.365,-6.218 -2.368,-6.1525 1.299,0 0.688,2.0181 0.917,3.0217 0.409,1.5282 1.193,2.9304 2.281,4.0799 1.522,1.7767 3.583,3.0066 5.87,3.5017 1.473,0.2728 3.154,0.2073 4.223,1.2546 1.299,1.2654 1.092,3.7304 1.463,5.4544 0.534,2.465 1.102,4.963 1.604,7.483 z"/><path id="path48" fill="#fd9e82" d="m 150.53632,57.432598 c -5.2815,2.4218 -9.821,6.1744 -14.1095,10.1016 -3.5497,3.1976 -6.9023,6.6074 -10.0392,10.2106 -2.7717,3.2731 -5.3033,6.6651 -8.2278,9.7521 -4.0375,4.244 -9.079,8.346 -9.8755,14.182002 -0.2438,3.043 0.2893,6.099 1.5495,8.88 1.0385,2.839 2.5717,5.472 4.5286,7.778 2.483,2.746 5.7588,4.652 9.3735,5.454 1.133,0.295 2.3156,0.347 3.4701,0.153 1.6258,-0.463 3.1207,-1.3 4.3649,-2.444 2.8446,-2.152 5.5389,-4.495 8.0641,-7.014 2.5752,-2.673 4.7577,-5.716 7.2675,-8.455 2.1824,-2.356 4.5067,-4.483 6.6892,-6.796002 2.608,-2.771 4.9323,-5.792 7.2566,-8.814 3.2887,-4.099 6.3034,-8.41 9.0244,-12.9052 2.2726,-3.9672 4.0778,-8.1843 5.3797,-12.5669 0.8397,-2.8581 2.1827,-6.4799 -0.7202,-8.5416 -6.1654,-4.3417 -17.8524,-1.8436 -23.9959,1.0254 z"/><path id="path50" fill="#fd9e82" d="m 150.53632,57.432598 c -5.2815,2.4218 -9.821,6.1744 -14.1095,10.1016 -3.5497,3.1976 -6.9023,6.6074 -10.0392,10.2106 -2.7717,3.2731 -5.3033,6.6651 -8.2278,9.7521 -4.0375,4.244 -9.079,8.346 -9.8755,14.182002 -0.2438,3.043 0.2893,6.099 1.5495,8.88 1.0385,2.839 2.5717,5.472 4.5286,7.778 2.483,2.746 5.7588,4.652 9.3735,5.454 1.133,0.295 2.3156,0.347 3.4701,0.153 1.6258,-0.463 3.1207,-1.3 4.3649,-2.444 2.8446,-2.152 5.5389,-4.495 8.0641,-7.014 2.5752,-2.673 4.7577,-5.716 7.2675,-8.455 2.1824,-2.356 4.5067,-4.483 6.6892,-6.796002 2.608,-2.771 4.9323,-5.792 7.2566,-8.814 3.2887,-4.099 6.3034,-8.41 9.0244,-12.9052 2.2726,-3.9672 4.0778,-8.1843 5.3797,-12.5669 0.8397,-2.8581 2.1827,-6.4799 -0.7202,-8.5416 -6.1654,-4.3417 -17.8524,-1.8436 -23.9959,1.0254 z" style="fill:#292fc1;fill-opacity:1"/><path id="path52" fill="#3d3d54" d="m 242.01312,107.2419 c -1.18,0.745 -2.023,1.921 -2.351,3.277 -0.328,1.356 -0.115,2.787 0.594,3.989 1.832,3.185 4.289,5.968 7.224,8.181 1.746,1.876 5.674,2.182 9.166,0.131 3.492,-2.051 20.155,-11.116 28.481,-17.039 0.611,-0.42 1.13,-0.96 1.525,-1.587 0.395,-0.627 0.659,-1.327 0.774,-2.059 0.115,-0.732 0.08,-1.48 -0.103,-2.198002 -0.183,-0.718 -0.511,-1.391 -0.963,-1.978 l -6.973,-8.727 c -0.826,-1.033 -2.005,-1.724 -3.31,-1.942 -1.305,-0.217 -2.644,0.055 -3.761,0.764 z"/><path id="path54" fill="#525263" d="m 131.26522,201.2649 c 1.231,4.519 3.4151,8.722 6.4055,12.327 3.2736,3.819 7.7258,6.546 12.0034,9.142 l 18.016,10.963 c 2.6421,1.519 5.1695,3.229 7.5621,5.117 5.9039,4.865 9.8209,11.65 13.6289,18.283 l 26.277,45.784 c 1.331,2.345 3.197,4.996 5.893,4.909 1.451,-0.188 2.816,-0.795 3.928,-1.745 3.372,-2.368 6.995,-5.062 7.999,-9.066 0.698,-2.792 0,-5.727 -0.841,-8.498 -4.037,-13.646 -10.366,-26.497 -16.717,-39.271 -10.09,-20.218 -20.329,-40.396 -30.718,-60.533 -2.761,-5.346 -6.111,-13.669 -10.672,-17.596 0,0 -42.383,-2.575 -43.4524,1.625 -2.3818,9.404 -2.1441,19.281 0.6875,28.559 z"/><path id="path56" fill="url(#paint15_linear)" d="m 131.26522,201.2649 c 1.231,4.519 3.4151,8.722 6.4055,12.327 3.2736,3.819 7.7258,6.546 12.0034,9.142 l 18.016,10.963 c 2.6421,1.519 5.1695,3.229 7.5621,5.117 5.9039,4.865 9.8209,11.65 13.6289,18.283 l 26.277,45.784 c 1.331,2.345 3.197,4.996 5.893,4.909 1.451,-0.188 2.816,-0.795 3.928,-1.745 3.372,-2.368 6.995,-5.062 7.999,-9.066 0.698,-2.792 0,-5.727 -0.841,-8.498 -4.037,-13.646 -10.366,-26.497 -16.717,-39.271 -10.09,-20.218 -20.329,-40.396 -30.718,-60.533 -2.761,-5.346 -6.111,-13.669 -10.672,-17.596 0,0 -42.383,-2.575 -43.4524,1.625 -2.3818,9.404 -2.1441,19.281 0.6875,28.559 z" style="fill:#000;fill-opacity:1"/><path id="path58" fill="#fd9e82" d="m 178.93012,51.454498 -5.991,2.3672 -3.6338,20.3232 12.0798,-0.5455 z" style="fill:#4a4fc8;fill-opacity:1"/><path id="path60" fill="#fd9e82" d="m 191.61012,73.108598 c 0,0.9163 0,1.8326 0,2.749 0,0.3972 0.021,0.7942 0.065,1.189 0.065,0.4009 0.153,0.7979 0.262,1.1891 l 1.506,5.9342 0.622,-9.6432 c 1.779,0.8618 3.601,1.6472 5.456,2.3345 -0.14,-1.4452 -0.508,-2.8591 -1.091,-4.189 -1.091,-2.7927 -2.095,-5.5962 -3.274,-8.3343 -0.275,-0.7314 -0.674,-1.4103 -1.178,-2.0073 -0.255,-0.296 -0.574,-0.5289 -0.934,-0.6804 -0.36,-0.1514 -0.75,-0.2172 -1.14,-0.1923 -1.091,0.4582 -0.403,4.549 -0.392,5.4544 z" style="fill:#4a4fc8;fill-opacity:1"/><path id="path62" fill="#fd9e82" d="m 279.88912,102.4639 -22.173,14.018 c -0.389,0.21 -0.837,0.281 -1.272,0.202 -0.434,-0.08 -0.829,-0.305 -1.118,-0.638 l -7.049,-7.942 c -0.145,-0.135 -0.258,-0.301 -0.329,-0.486 -0.071,-0.185 -0.099,-0.384 -0.082,-0.582 0.016,-0.197 0.078,-0.388 0.179,-0.559 0.102,-0.17 0.241,-0.315 0.406,-0.424 l 22.218,-14.007002 c 0.388,-0.209 0.837,-0.28 1.271,-0.201 0.434,0.079 0.829,0.304 1.118,0.638 l 7.05,7.930002 c 0.142,0.139 0.252,0.308 0.32,0.495 0.067,0.187 0.092,0.386 0.07,0.584 -0.021,0.198 -0.086,0.388 -0.192,0.556 -0.105,0.169 -0.248,0.311 -0.417,0.416 z" style="fill:#65b0ff;fill-opacity:1"/><defs id="defs176"><rect id="rect1082" width="137.548" height="45.053" x="-312.092" y="337.738"/><linearGradient id="paint0_linear" x1="105.939" x2="150.723" y1="130.033" y2="129.345" gradientTransform="translate(75.293121,-19.649102)" gradientUnits="userSpaceOnUse"><stop id="stop64" offset=".01"/><stop id="stop66" offset=".13" stop-opacity=".69"/><stop id="stop68" offset="1" stop-opacity="0"/></linearGradient><linearGradient id="paint1_linear" x1="116.884" x2="183.978" y1="153.814" y2="137.288" gradientTransform="translate(75.293121,-19.649102)" gradientUnits="userSpaceOnUse"><stop id="stop71" stop-color="#E5C5D5"/><stop id="stop73" offset=".42" stop-color="#EAD4D1"/><stop id="stop75" offset="1" stop-color="#F0E9CB"/></linearGradient><linearGradient id="paint2_linear" x1="83779.102" x2="41480" y1="12742.4" y2="77945.703" gradientUnits="userSpaceOnUse"><stop id="stop78" offset=".01" stop-color="#DE708B"/><stop id="stop80" offset=".13" stop-color="#CB5272"/><stop id="stop82" offset="1" stop-color="#FDBB9F" stop-opacity=".33"/></linearGradient><linearGradient id="paint3_linear" x1="22799.1" x2="12801.2" y1="25441" y2="31935.199" gradientTransform="translate(75.293121,-19.649102)" gradientUnits="userSpaceOnUse"><stop id="stop85" offset=".01"/><stop id="stop87" offset=".13" stop-opacity=".69"/><stop id="stop89" offset="1" stop-opacity="0"/></linearGradient><linearGradient id="paint4_linear" x1="5161.75" x2="9700.33" y1="10515.5" y2="12128.3" gradientTransform="translate(75.293121,-19.649102)" gradientUnits="userSpaceOnUse"><stop id="stop92" offset=".01"/><stop id="stop94" offset=".13" stop-opacity=".69"/><stop id="stop96" offset="1" stop-opacity="0"/></linearGradient><linearGradient id="paint5_linear" x1="23405.301" x2="33109.102" y1="30026.199" y2="30026.199" gradientTransform="translate(75.293121,-19.649102)" gradientUnits="userSpaceOnUse"><stop id="stop99" offset=".01"/><stop id="stop101" offset=".13" stop-opacity=".69"/><stop id="stop103" offset="1" stop-opacity="0"/></linearGradient><linearGradient id="paint6_linear" x1="11120.6" x2="10217" y1="10673.4" y2="10417.3" gradientTransform="translate(75.293121,-19.649102)" gradientUnits="userSpaceOnUse"><stop id="stop106" offset=".01"/><stop id="stop108" offset=".13" stop-opacity=".69"/><stop id="stop110" offset="1" stop-opacity="0"/></linearGradient><linearGradient id="paint7_linear" x1="125.068" x2="138.162" y1="320.719" y2="320.844" gradientTransform="translate(75.293121,-19.649102)" gradientUnits="userSpaceOnUse"><stop id="stop113" stop-color="#E5C5D5"/><stop id="stop115" offset=".42" stop-color="#EAD4D1"/><stop id="stop117" offset="1" stop-color="#F0E9CB"/></linearGradient><linearGradient id="paint8_linear" x1="144.164" x2="162.711" y1="333.264" y2="331.577" gradientTransform="translate(75.293121,-19.649102)" gradientUnits="userSpaceOnUse"><stop id="stop120" stop-color="#E5C5D5"/><stop id="stop122" offset=".42" stop-color="#EAD4D1"/><stop id="stop124" offset="1" stop-color="#F0E9CB"/></linearGradient><linearGradient id="paint9_linear" x1="8949.47" x2="9737.33" y1="15161.4" y2="15161.4" gradientTransform="translate(75.293121,-19.649102)" gradientUnits="userSpaceOnUse"><stop id="stop127" offset=".01"/><stop id="stop129" offset=".13" stop-opacity=".69"/><stop id="stop131" offset="1" stop-opacity="0"/></linearGradient><linearGradient id="paint10_linear" x1="17.038" x2="51.535" y1="197.449" y2="204.147" gradientTransform="translate(75.293121,-19.649102)" gradientUnits="userSpaceOnUse"><stop id="stop134" stop-color="#E5C5D5"/><stop id="stop136" offset=".42" stop-color="#EAD4D1"/><stop id="stop138" offset="1" stop-color="#F0E9CB"/></linearGradient><linearGradient id="paint11_linear" x1="1518.88" x2="1825.42" y1="1847.38" y2="1929.84" gradientTransform="translate(75.293121,-19.649102)" gradientUnits="userSpaceOnUse"><stop id="stop141" offset=".01"/><stop id="stop143" offset=".13" stop-opacity=".69"/><stop id="stop145" offset="1" stop-opacity="0"/></linearGradient><linearGradient id="paint12_linear" x1="3704.39" x2="2934.35" y1="4134.89" y2="4219.17" gradientTransform="translate(75.293121,-19.649102)" gradientUnits="userSpaceOnUse"><stop id="stop148" offset=".01"/><stop id="stop150" offset=".13" stop-opacity=".69"/><stop id="stop152" offset="1" stop-opacity="0"/></linearGradient><linearGradient id="paint13_linear" x1="4636.85" x2="6182.63" y1="11955.6" y2="11939.7" gradientTransform="translate(75.293121,-19.649102)" gradientUnits="userSpaceOnUse"><stop id="stop155" offset=".01"/><stop id="stop157" offset=".13" stop-opacity=".69"/><stop id="stop159" offset="1" stop-opacity="0"/></linearGradient><linearGradient id="paint14_linear" x1="107.063" x2="140.765" y1="76.362" y2="72.097" gradientTransform="translate(75.293121,-19.649102)" gradientUnits="userSpaceOnUse"><stop id="stop162" stop-color="#E5C5D5"/><stop id="stop164" offset=".42" stop-color="#EAD4D1"/><stop id="stop166" offset="1" stop-color="#F0E9CB"/></linearGradient><linearGradient id="paint15_linear" x1="25245.1" x2="33180.301" y1="34391.199" y2="31859.5" gradientTransform="translate(75.293121,-19.649102)" gradientUnits="userSpaceOnUse"><stop id="stop169" offset=".01"/><stop id="stop171" offset=".13" stop-opacity=".69"/><stop id="stop173" offset="1" stop-opacity="0"/></linearGradient><rect id="rect2384" width="85.951" height="94.85" x="-105.178" y="-816.669"/><rect id="rect1966" width="312.949" height="193.911" x="-387.085" y="-396.852"/><linearGradient id="linearGradient1910"><stop id="stop1906" offset="0" style="stop-color:#3256bb;stop-opacity:1"/><stop id="stop1908" offset="1" style="stop-color:#3157c0;stop-opacity:0"/></linearGradient><clipPath id="clipPath933" clipPathUnits="userSpaceOnUse"><circle id="circle935" cx="104.321" cy="-120.073" r="22.719" style="fill:none;stroke:#000;stroke-width:1.55765;stroke-linecap:round;stroke-linejoin:round;paint-order:stroke fill markers"/></clipPath><clipPath id="clipPath1087" clipPathUnits="userSpaceOnUse"><circle id="circle1089" cx="120.117" cy="-243.652" r="189.387" style="fill:none;stroke:#000;stroke-width:1.33847;stroke-linecap:round;stroke-linejoin:round;paint-order:stroke fill markers"/></clipPath><clipPath id="clipPath1142" clipPathUnits="userSpaceOnUse"><path id="path1144" d="m -200.74589,-420.11079 a 73.492783,41.546574 0 0 0 -63.38583,20.55792 73.492783,41.546574 0 0 0 63.42512,20.55844 73.492783,41.546574 0 0 0 63.42515,-20.55844 73.492783,41.546574 0 0 0 -63.42515,-20.55792 73.492783,41.546574 0 0 0 -0.0393,0 z" style="fill:none;fill-opacity:1;stroke:#ffcd40;stroke-width:1.33001;stroke-linecap:round;stroke-linejoin:round;stroke-miterlimit:4;stroke-dasharray:none;stroke-opacity:1;paint-order:stroke fill markers"/></clipPath><linearGradient id="linearGradient1912" x1="-664.019" x2="-538.492" y1="-1531.701" y2="-1398.739" gradientUnits="userSpaceOnUse" xlink:href="#linearGradient1910"/><clipPath id="clipPath1935" clipPathUnits="userSpaceOnUse"><circle style="fill:#3860c9;fill-opacity:1;stroke:none;stroke-width:1.5;stroke-linecap:round;stroke-linejoin:round;paint-order:stroke fill markers" id="circle1937" cx="-200.707" cy="-410.485" r="62.799"/></clipPath><clipPath id="clipPath2023" clipPathUnits="userSpaceOnUse"><path style="fill:none;stroke:#fff;stroke-width:10;stroke-linecap:butt;stroke-linejoin:miter;stroke-miterlimit:4;stroke-dasharray:none;stroke-opacity:1" id="path2025" d="m -273.09501,-746.55699 c 0,0 9.81817,51.01667 29.4545,51.01667 19.63633,0 14.38718,-51.01667 34.02351,-51.01667 19.63633,0 14.38715,51.01667 34.02348,51.01667 19.63633,0 24.88555,-51.01667 24.88555,-51.01667 h 27.27773 v 149.95068 h -182.40574 l 2.35739,-162.14387 z"/></clipPath><clipPath id="clipPath2334" clipPathUnits="userSpaceOnUse"><circle style="fill:#3860c9;fill-opacity:1;stroke:none;stroke-width:1.5;stroke-linecap:round;stroke-linejoin:round;paint-order:stroke fill markers" id="circle2336" cx="-211.9" cy="-721.049" r="62.799"/></clipPath><filter id="filter3171" width="1.05" height="1.102" x="-.025" y="-.051" style="color-interpolation-filters:sRGB"><feGaussianBlur id="feGaussianBlur3173" stdDeviation="4.913"/></filter></defs><path id="path1086" d="m 77.096801,41.497538 -5.12086,1.09751 -3.03219,-6.65596 q -0.20366,-0.41512 -0.72457,-1.66831 -0.50994,-1.25553 -0.80761,-2.10927 0.065,0.73155 0.0957,1.83751 0.0283,1.09498 0.0209,2.02548 0.005,0.92815 -0.0483,7.53409 l -5.12088,1.09752 -7.40538,-15.18072 4.17784,-0.89539 3.46615,7.66399 q 1.16322,2.5377 1.72095,4.06972 -0.0971,-1.14904 -0.14658,-3.14554 -0.0384,-1.99885 0.009,-3.32803 l 0.11492,-6.36706 4.01334,-0.86015 2.67032,5.77013 q 0.66345,1.38319 1.43423,3.21363 0.77078,1.83043 1.09351,2.7476 -0.11825,-1.24772 -0.12621,-4.38855 l 0.0491,-8.44034 4.17782,-0.89539 z" style="font-style:normal;font-variant:normal;font-weight:400;font-stretch:normal;font-size:40px;line-height:1.25;font-family:'Open Sans ExtraBold';-inkscape-font-specification:'Open Sans ExtraBold, ';white-space:pre;fill:#fff;fill-opacity:1;stroke:none;stroke-width:.57418"/><path id="path1088" d="m 88.791251,22.450748 4.05884,-0.89483 -1.43879,14.39512 -4.27004,0.9414 -7.34007,-12.45971 4.07721,-0.89887 3.32755,6.40164 q 1.06939,2.14266 1.32086,3.02126 -0.0774,-0.65698 -0.0972,-1.6637 -0.0193,-1.00673 0.006,-1.59008 z" style="font-style:normal;font-variant:normal;font-weight:400;font-stretch:normal;font-size:40px;line-height:1.25;font-family:'Open Sans ExtraBold';-inkscape-font-specification:'Open Sans ExtraBold, ';white-space:pre;fill:#fff;fill-opacity:1;stroke:none;stroke-width:.481455"/><path id="path1090" d="m 105.02097,26.369538 q 0.40695,1.06235 0.18515,2.09681 -0.22479,1.02666 -1.06374,1.87654 -0.84192,0.84205 -2.2089,1.3657 -1.14046,0.43687 -1.973649,0.57687 -0.83615,0.13218 -1.82458,0.054 l -1.05327,-2.7496 q 1.05617,0.11552 2.10798,0.008 1.048729,-0.1151 1.845479,-0.42031 0.68741,-0.26332 0.91791,-0.62034 0.2275,-0.36484 0.0839,-0.73979 -0.0898,-0.23433 -0.2884,-0.35531 -0.1938,-0.1318 -0.55164,-0.20074 -0.35004,-0.0719 -1.796689,-0.15376 -1.31151,-0.0799 -2.05647,-0.34089 -0.73714,-0.26404 -1.24693,-0.77641 -0.50197,-0.51536 -0.82514,-1.35899 -0.60443,-1.5779 0.20571,-2.90045 0.81015,-1.32255 2.81766,-2.09156 1.773189,-0.67926 3.930859,-0.56523 l -0.0325,2.74454 q -1.88262,-0.12082 -3.046499,0.32499 -0.60148,0.2304 -0.79408,0.54604 -0.19261,0.31564 -0.0731,0.62808 0.12864,0.33589 0.5741,0.4698 0.45324,0.13101 2.261389,0.2445 1.7307,0.0984 2.59417,0.6455 0.86829,0.53628 1.31115,1.69237 z" style="font-style:normal;font-variant:normal;font-weight:400;font-stretch:normal;font-size:40px;line-height:1.25;font-family:'Open Sans ExtraBold';-inkscape-font-specification:'Open Sans ExtraBold, ';white-space:pre;fill:#fff;fill-opacity:1;stroke:none;stroke-width:.428282"/><path id="path1092" d="m 117.37581,15.555318 1.44267,6.43837 q 0.47051,2.09978 -0.46302,3.52298 -0.92786,1.41426 -3.16666,1.9159 -2.18757,0.49019 -3.61633,-0.36525 -1.42144,-0.85711 -1.89196,-2.95688 l -1.45743,-6.50421 2.90458,-0.65085 1.40661,6.2774 q 0.25411,1.13404 0.79321,1.55109 0.53911,0.41706 1.36586,0.23181 0.88527,-0.19838 1.16724,-0.79172 0.28763,-0.60232 0.0286,-1.7583 l -1.40334,-6.26277 z" style="font-style:normal;font-variant:normal;font-weight:400;font-stretch:normal;font-size:40px;line-height:1.25;font-family:'Open Sans ExtraBold';-inkscape-font-specification:'Open Sans ExtraBold, ';white-space:pre;fill:#fff;fill-opacity:1;stroke:none;stroke-width:.383885"/><path style="fill:#fff;fill-opacity:1;stroke:none;stroke-width:1px;stroke-linecap:butt;stroke-linejoin:miter;stroke-opacity:1" id="path1103" d="m 249.31358,109.27166 c 0,0 4.01621,-3.49014 6.4621,-4.37657 2.62638,-0.95185 5.93802,0.59117 8.33869,-0.83735 1.95583,-1.16382 1.81062,-4.615562 3.84019,-5.645412 1.46214,-0.74192 4.91593,0.16882 4.91593,0.16882 0,0 -3.31249,0.37783 -4.44978,1.444872 -1.84117,1.72744 -0.90198,5.36755 -2.79305,7.04022 -2.07045,1.83132 -5.74791,0.52504 -8.02373,2.09384 -1.76688,1.21798 -3.73544,5.24353 -3.73544,5.24353 z"/><path style="fill:#fdd835;fill-opacity:1;stroke-width:.0469407" id="path1119" d="m 272.19291,96.013608 c -2.00012,-2.48675 -4.27499,-6.10951 -5.90252,-9.39978 -1.9048,-3.85077 -3.13359,-7.51926 -3.70508,-11.06132 -0.25371,-1.57246 -0.41893,-3.78853 -0.35472,-4.7577 0.28231,-4.26104 3.54131,-7.88537 7.97156,-8.86521 0.86571,-0.19147 1.35583,-0.24026 2.40264,-0.23919 1.77429,0.002 3.22811,0.33399 4.7547,1.08632 3.30327,1.62785 5.36925,4.68713 5.57331,8.25279 0.0284,0.49428 -0.0567,2.03412 -0.16985,3.07461 -0.63411,5.83561 -3.25539,12.3694 -7.52339,18.75281 -0.97177,1.45338 -2.55305,3.59096 -2.65644,3.59096 -0.0224,0 -0.19812,-0.19544 -0.39023,-0.43429 z m 1.3507,-18.03593 c 1.50384,-0.21705 2.78091,-0.83295 3.84353,-1.85367 1.09033,-1.04732 1.74896,-2.3251 1.95739,-3.79736 0.0758,-0.53481 0.0292,-1.64938 -0.0904,-2.16552 -0.29376,-1.26786 -0.83997,-2.24946 -1.76398,-3.1701 -1.01112,-1.00746 -2.18002,-1.62547 -3.60722,-1.90724 -0.74384,-0.14692 -1.85929,-0.14692 -2.60312,0 -1.39937,0.27627 -2.59352,0.90041 -3.55958,1.86047 -0.6188,0.61497 -0.89566,0.99548 -1.26466,1.73823 -0.62243,1.25293 -0.81826,2.54175 -0.58952,3.87978 0.22782,1.33256 0.82902,2.47137 1.83015,3.46659 0.58322,0.5798 1.08185,0.94199 1.7636,1.28101 1.25571,0.62442 2.72252,0.86429 4.08386,0.66781 z"/></svg>