<svg width="98" height="98" viewBox="0 0 98 98" fill="none" xmlns="http://www.w3.org/2000/svg">
<g clip-path="url(#clip0)">
<g opacity="0.17201" filter="url(#filter0_f)">
<path d="M50.5888 25.7939C47.0895 25.7939 44.216 27.4527 42.0258 29.7823L45.2243 38.3964C45.41 37.9943 45.5985 37.6117 45.7912 37.2531C47.3987 34.262 48.5438 33.2631 50.5888 33.2631C52.6339 33.2631 53.779 34.262 55.3864 37.2531C55.5309 37.522 55.6727 37.8078 55.8131 38.1015L57.6456 43.7067L61.076 54.199L62.9073 59.8004C63.411 61.0642 63.9632 62.2891 64.5876 63.451C66.8199 67.6048 70.6734 71.3683 75.9456 71.3683C81.3014 71.3683 85.4244 67.7665 88.3838 63.5051C91.3432 59.2436 93.5167 53.9688 95.2311 48.7635C95.3839 48.2993 95.5316 47.8409 95.6747 47.3883C95.5288 41.6434 94.3308 35.9744 92.1404 30.6635C91.4342 34.3802 90.1277 40.4293 88.1539 46.4221C86.5679 51.2373 84.5273 55.9841 82.2675 59.238C80.0077 62.4919 77.9069 63.8988 75.9456 63.8988C73.9005 63.8988 72.7554 62.8999 71.148 59.9088C67.0897 49.9418 64.6846 43.9522 61.0752 34.4751L58.9751 29.5974C56.8078 27.3656 53.9948 25.7939 50.5888 25.7939ZM29.7836 27.2842L45.7215 69.88H55.2085L59.3186 58.8956L55.8012 48.6713L50.4652 63.0342L37.1835 27.2842H29.7836ZM63.7469 27.2842L62.6296 30.2911L66.6978 39.1749L71.1468 27.2842H63.7469ZM5.83568 30.1826C3.98557 34.5312 2.80204 39.1352 2.3252 43.8384C2.92729 45.4895 3.59525 47.2245 4.34098 49.0245C6.49111 54.2141 9.10695 59.4663 12.3833 63.6699C15.6597 67.8733 19.8762 71.3683 25.2321 71.3683C30.5043 71.3683 34.3577 67.6048 36.59 63.451C37.1628 62.3853 37.6758 61.2671 38.1456 60.1142L33.9484 48.8924C32.7301 53.1702 31.4872 57.1968 30.0297 59.9088C28.4222 62.8999 27.2771 63.8988 25.2321 63.8988C23.2707 63.8988 20.8379 62.3834 18.2566 59.0716C15.6753 55.7598 13.2244 50.9917 11.2229 46.1608C8.68668 40.0393 6.84762 33.8851 5.83568 30.1826Z" fill="black"/>
</g>
<path d="M50.5888 25.7939C47.0895 25.7939 44.216 27.4527 42.0258 29.7823L45.2243 38.3964C45.41 37.9943 45.5985 37.6117 45.7912 37.2531C47.3987 34.262 48.5438 33.2632 50.5888 33.2632C52.6339 33.2632 53.779 34.262 55.3864 37.2531C55.5309 37.522 55.6727 37.8078 55.8132 38.1015L57.6456 43.7067L61.076 54.199L62.9073 59.8004C63.411 61.0642 63.9632 62.2891 64.5876 63.451C66.8199 67.6048 70.6734 71.3684 75.9456 71.3684C81.3014 71.3684 85.4244 67.7665 88.3838 63.5051C91.3432 59.2436 93.5167 53.9688 95.2311 48.7635C95.3839 48.2993 95.5316 47.8409 95.6747 47.3883C95.5288 41.6434 94.3308 35.9744 92.1404 30.6636C91.4342 34.3802 90.1277 40.4293 88.1539 46.4221C86.5679 51.2373 84.5273 55.9841 82.2675 59.238C80.0077 62.4919 77.9069 63.8988 75.9456 63.8988C73.9005 63.8988 72.7554 62.8999 71.148 59.9088C67.0897 49.9418 64.6846 43.9522 61.0752 34.4751L58.9751 29.5975C56.8078 27.3656 53.9948 25.7939 50.5888 25.7939ZM29.7836 27.2842L45.7215 69.88H55.2085L59.3186 58.8956L55.8012 48.6713L50.4652 63.0342L37.1835 27.2842H29.7836ZM63.7469 27.2842L62.6296 30.2911L66.6978 39.1749L71.1468 27.2842H63.7469ZM5.83568 30.1826C3.98558 34.5312 2.80205 39.1351 2.3252 43.8383C2.92729 45.4895 3.59526 47.2246 4.34099 49.0245C6.49113 54.2142 9.10695 59.4664 12.3833 63.6699C15.6597 67.8734 19.8762 71.3684 25.2321 71.3684C30.5043 71.3684 34.3577 67.6048 36.59 63.451C37.1628 62.3853 37.6758 61.2671 38.1456 60.1142L33.9484 48.8925C32.7301 53.1702 31.4872 57.1968 30.0297 59.9088C28.4222 62.8999 27.2771 63.8988 25.2321 63.8988C23.2707 63.8988 20.8379 62.3834 18.2566 59.0717C15.6753 55.7599 13.2244 50.9916 11.2229 46.1608C8.68669 40.0393 6.84763 33.8851 5.83568 30.1826Z" fill="white"/>
</g>
<circle cx="49" cy="49" r="47" stroke="white" stroke-width="4"/>
<defs>
<filter id="filter0_f" x="-0.274768" y="23.194" width="98.5495" height="50.7743" filterUnits="userSpaceOnUse" color-interpolation-filters="sRGB">
<feFlood flood-opacity="0" result="BackgroundImageFix"/>
<feBlend mode="normal" in="SourceGraphic" in2="BackgroundImageFix" result="shape"/>
<feGaussianBlur stdDeviation="1.29998" result="effect1_foregroundBlur"/>
</filter>
<clipPath id="clip0">
<rect width="98" height="93.812" fill="white" transform="translate(0 1.6752)"/>
</clipPath>
</defs>
</svg>
