<?xml version="1.0" encoding="UTF-8" standalone="no"?>
<svg
   xmlns:dc="http://purl.org/dc/elements/1.1/"
   xmlns:cc="http://creativecommons.org/ns#"
   xmlns:rdf="http://www.w3.org/1999/02/22-rdf-syntax-ns#"
   xmlns:svg="http://www.w3.org/2000/svg"
   xmlns="http://www.w3.org/2000/svg"
   xmlns:xlink="http://www.w3.org/1999/xlink"
   xmlns:sodipodi="http://sodipodi.sourceforge.net/DTD/sodipodi-0.dtd"
   xmlns:inkscape="http://www.inkscape.org/namespaces/inkscape"
   sodipodi:docname="icon.svg"
   inkscape:version="1.0 (4035a4fb49, 2020-05-01)"
   id="svg8"
   version="1.1"
   viewBox="0 0 123.33819 123.33819"
   height="123.33819mm"
   width="123.33819mm">
  <defs
     id="defs2">
    <linearGradient
       id="linearGradient3081"
       inkscape:collect="always">
      <stop
         id="stop3077"
         offset="0"
         style="stop-color:#4078e2;stop-opacity:1;" />
      <stop
         id="stop3079"
         offset="1"
         style="stop-color:#4078e2;stop-opacity:0;" />
    </linearGradient>
    <rect
       id="rect2384"
       height="94.849861"
       width="85.950905"
       y="-816.66888"
       x="-105.17817" />
    <rect
       id="rect1966"
       height="193.91077"
       width="312.94864"
       y="-396.85205"
       x="-387.08539" />
    <linearGradient
       id="linearGradient1910"
       inkscape:collect="always">
      <stop
         id="stop1906"
         offset="0"
         style="stop-color:#3256bb;stop-opacity:1" />
      <stop
         id="stop1908"
         offset="1"
         style="stop-color:#3157c0;stop-opacity:0" />
    </linearGradient>
    <clipPath
       id="clipPath933"
       clipPathUnits="userSpaceOnUse">
      <circle
         r="22.71944"
         cy="-120.07259"
         cx="104.32143"
         id="circle935"
         style="fill:none;stroke:#000000;stroke-width:1.55765;stroke-linecap:round;stroke-linejoin:round;paint-order:stroke fill markers" />
    </clipPath>
    <clipPath
       id="clipPath1087"
       clipPathUnits="userSpaceOnUse">
      <circle
         r="189.3868"
         cy="-243.65167"
         cx="120.11729"
         id="circle1089"
         style="fill:none;stroke:#000000;stroke-width:1.33847;stroke-linecap:round;stroke-linejoin:round;paint-order:stroke fill markers" />
    </clipPath>
    <clipPath
       id="clipPath1142"
       clipPathUnits="userSpaceOnUse">
      <path
         id="path1144"
         style="fill:none;fill-opacity:1;stroke:#ffcd40;stroke-width:1.33001;stroke-linecap:round;stroke-linejoin:round;stroke-miterlimit:4;stroke-dasharray:none;stroke-opacity:1;paint-order:stroke fill markers"
         d="m -200.74589,-420.11079 a 73.492783,41.546574 0 0 0 -63.38583,20.55792 73.492783,41.546574 0 0 0 63.42512,20.55844 73.492783,41.546574 0 0 0 63.42515,-20.55844 73.492783,41.546574 0 0 0 -63.42515,-20.55792 73.492783,41.546574 0 0 0 -0.0393,0 z" />
    </clipPath>
    <linearGradient
       gradientUnits="userSpaceOnUse"
       y2="-1398.7391"
       x2="-538.49152"
       y1="-1531.7014"
       x1="-664.01898"
       id="linearGradient1912"
       xlink:href="#linearGradient1910"
       inkscape:collect="always" />
    <clipPath
       id="clipPath1935"
       clipPathUnits="userSpaceOnUse">
      <circle
         style="fill:#3860c9;fill-opacity:1;stroke:none;stroke-width:1.5;stroke-linecap:round;stroke-linejoin:round;paint-order:stroke fill markers"
         id="circle1937"
         cx="-200.70659"
         cy="-410.48511"
         r="62.798588" />
    </clipPath>
    <clipPath
       id="clipPath2023"
       clipPathUnits="userSpaceOnUse">
      <path
         style="fill:none;stroke:#ffffff;stroke-width:10;stroke-linecap:butt;stroke-linejoin:miter;stroke-miterlimit:4;stroke-dasharray:none;stroke-opacity:1"
         d="m -273.09501,-746.55699 c 0,0 9.81817,51.01667 29.4545,51.01667 19.63633,0 14.38718,-51.01667 34.02351,-51.01667 19.63633,0 14.38715,51.01667 34.02348,51.01667 19.63633,0 24.88555,-51.01667 24.88555,-51.01667 h 27.27773 v 149.95068 h -182.40574 l 2.35739,-162.14387 z"
         id="path2025"
         sodipodi:nodetypes="csssc" />
    </clipPath>
    <clipPath
       id="clipPath2306"
       clipPathUnits="userSpaceOnUse">
      <path
         sodipodi:nodetypes="csssc"
         id="path2308"
         d="m -273.09501,-746.55701 c 0,0 9.81817,51.01669 29.4545,51.01669 19.63633,0 14.38718,-51.01669 34.02351,-51.01669 19.63633,0 14.38715,51.01669 34.02348,51.01669 19.63633,0 24.88555,-51.01669 24.88555,-51.01669 h 27.27773 v 149.9507 h -182.40574 l 2.35739,-162.14389 z"
         style="fill:none;stroke:#ffffff;stroke-width:10;stroke-linecap:butt;stroke-linejoin:miter;stroke-miterlimit:4;stroke-dasharray:none;stroke-opacity:1" />
    </clipPath>
    <clipPath
       id="clipPath2334"
       clipPathUnits="userSpaceOnUse">
      <circle
         style="fill:#3860c9;fill-opacity:1;stroke:none;stroke-width:1.5;stroke-linecap:round;stroke-linejoin:round;paint-order:stroke fill markers"
         id="circle2336"
         cx="-211.90002"
         cy="-721.04865"
         r="62.798588" />
    </clipPath>
    <clipPath
       id="clipPath2378"
       clipPathUnits="userSpaceOnUse">
      <circle
         r="61.669094"
         cy="-721.04865"
         cx="-211.90002"
         id="circle2380"
         style="opacity:0.2;fill:#ff0000;fill-opacity:1;stroke:none;stroke-width:14.3556;stroke-linecap:round;stroke-linejoin:round;stroke-miterlimit:4;stroke-dasharray:none;stroke-opacity:1;paint-order:stroke fill markers" />
    </clipPath>
    <linearGradient
       gradientUnits="userSpaceOnUse"
       y2="-677.9483"
       x2="-177.4175"
       y1="-734.6842"
       x1="-216.81531"
       id="linearGradient3083"
       xlink:href="#linearGradient3081"
       inkscape:collect="always" />
    <filter
       height="1.102267"
       y="-0.051133487"
       width="1.0498177"
       x="-0.024908857"
       id="filter3171"
       style="color-interpolation-filters:sRGB"
       inkscape:collect="always">
      <feGaussianBlur
         id="feGaussianBlur3173"
         stdDeviation="4.9133166"
         inkscape:collect="always" />
    </filter>
  </defs>
  <sodipodi:namedview
     fit-margin-bottom="0"
     fit-margin-right="0"
     fit-margin-left="0"
     fit-margin-top="0"
     inkscape:window-maximized="1"
     inkscape:window-y="27"
     inkscape:window-x="0"
     inkscape:window-height="1016"
     inkscape:window-width="1920"
     showgrid="false"
     inkscape:document-rotation="0"
     inkscape:current-layer="layer1"
     inkscape:document-units="mm"
     inkscape:cy="231.10691"
     inkscape:cx="634.50263"
     inkscape:zoom="0.22246148"
     inkscape:pageshadow="2"
     inkscape:pageopacity="0.0"
     borderopacity="1.0"
     bordercolor="#666666"
     pagecolor="#ffffff"
     id="base" />
  <metadata
     id="metadata5">
    <rdf:RDF>
      <cc:Work
         rdf:about="">
        <dc:format>image/svg+xml</dc:format>
        <dc:type
           rdf:resource="http://purl.org/dc/dcmitype/StillImage" />
        <dc:title></dc:title>
      </cc:Work>
    </rdf:RDF>
  </metadata>
  <g
     transform="translate(134.51857,837.59463)"
     id="layer1"
     inkscape:groupmode="layer"
     inkscape:label="Layer 1">
    <g
       inkscape:export-ydpi="105.44017"
       inkscape:export-xdpi="105.44017"
       transform="translate(139.05055,-54.876892)"
       clip-path="url(#clipPath2378)"
       id="g2326">
      <path
         transform="matrix(0.26458333,0,0,0.26458333,-139.05055,54.876892)"
         d="m -266.71094,-3047.9355 c -2.58998,0 -5.10278,0.1968 -7.55664,0.539 l -97.95312,7 h 0.002 -0.002 l 1.00586,2.6836 -122.45313,11.9824 a 237.34869,237.34869 0 0 0 -1.6582,3.9961 c -0.0432,0.1067 -0.0859,0.2136 -0.12891,0.3203 a 237.34869,237.34869 0 0 0 -1.54101,3.9122 c -0.0157,0.041 -0.0312,0.082 -0.0469,0.123 a 237.34869,237.34869 0 0 0 -0.0215,0.057 237.34869,237.34869 0 0 0 -1.50391,4.0508 c -0.012,0.033 -0.0232,0.066 -0.0352,0.1 a 237.34869,237.34869 0 0 0 -1.4375,4.1035 c -0.0131,0.038 -0.026,0.077 -0.0391,0.1153 a 237.34869,237.34869 0 0 0 -1.34375,4.0762 c -0.0301,0.094 -0.0598,0.1888 -0.0898,0.2832 a 237.34869,237.34869 0 0 0 -1.2168,3.9414 c -0.0339,0.1133 -0.0678,0.2265 -0.10156,0.3398 a 237.34869,237.34869 0 0 0 -1.17383,4.0762 c -0.0149,0.053 -0.0301,0.1067 -0.0449,0.1601 a 237.34869,237.34869 0 0 0 -1.11719,4.1758 c -0.007,0.028 -0.0143,0.056 -0.0215,0.084 a 237.34869,237.34869 0 0 0 -1.03711,4.1816 237.34869,237.34869 0 0 0 -0.0137,0.057 c -0.0133,0.056 -0.0258,0.112 -0.0391,0.168 a 237.34869,237.34869 0 0 0 -0.94531,4.1523 c -0.0155,0.071 -0.0295,0.142 -0.0449,0.2129 a 237.34869,237.34869 0 0 0 -0.88867,4.2695 c -2.5e-4,0 2.4e-4,0 0,0 a 237.34869,237.34869 0 0 0 -0.80078,4.2422 c -0.0208,0.1158 -0.04,0.2318 -0.0605,0.3477 a 237.34869,237.34869 0 0 0 -0.70703,4.1894 c -0.003,0.02 -0.007,0.039 -0.01,0.059 a 237.34869,237.34869 0 0 0 -0.0137,0.086 237.34869,237.34869 0 0 0 -0.62109,4.1543 c -0.0154,0.1095 -0.0316,0.2187 -0.0469,0.3282 a 237.34869,237.34869 0 0 0 -0.53906,4.1386 c -0.0104,0.086 -0.0209,0.1719 -0.0312,0.2579 a 237.34869,237.34869 0 0 0 -0.0117,0.1015 237.34869,237.34869 0 0 0 -0.4707,4.2363 c 0.76349,2.0875 1.54937,4.2022 2.35547,6.3418 2.1e-4,6e-4 -2.2e-4,0 0,0 0.80589,2.1391 1.63397,4.304 2.48437,6.4922 2.2e-4,6e-4 -2.2e-4,0 0,0 1.70127,4.3777 3.49192,8.8504 5.38281,13.4043 0.68127,1.6407 1.37427,3.282 2.07422,4.9239 2.4e-4,5e-4 -2.3e-4,0 0,0 0.69997,1.6418 1.40978,3.2836 2.12891,4.9238 2.4e-4,6e-4 -2.4e-4,0 0,0 0.71913,1.6402 1.44872,3.2782 2.1875,4.9141 2.4e-4,5e-4 -2.5e-4,0 0,0 6.65106,14.7269 14.10846,29.2211 22.54687,42.4805 0.93765,1.4732 1.88749,2.9297 2.84961,4.3711 3e-4,4e-4 -3e-4,0 0,0 0.96184,1.441 1.93705,2.8651 2.92383,4.2715 0.98737,1.4073 1.98522,2.7961 2.99805,4.166 1.01253,1.3695 2.03771,2.7195 3.07617,4.0489 3.2e-4,4e-4 -3.2e-4,0 0,0 0.98734,1.2629 1.99445,2.5104 3.01562,3.7461 0.42536,0.5147 0.86364,1.0164 1.29493,1.5254 0.62227,0.7347 1.24225,1.4713 1.87695,2.1934 0.40705,0.4628 0.82413,0.9139 1.23633,1.371 0.69838,0.775 1.39809,1.5476 2.11133,2.3047 0.38381,0.4073 0.77592,0.8033 1.16406,1.2051 0.52239,0.5409 1.03613,1.0928 1.5664,1.6231 l 353.552739,353.5488 c 14.517656,14.52 31.995142,24.9902 52.894531,24.9902 26.736869,0 46.2789795,-19.0483 57.599609,-40.0683 1.611214,-2.9899 3.121484,-6.07 4.560547,-9.209 l 41.748047,41.748 h 48.111327 l 20.27149,-54.0625 43.11328,43.1133 c 10.88698,10.89 24.89932,18.4785 41.77929,18.4785 27.16197,0 48.07015,-18.2291 63.07813,-39.789 15.00898,-21.57 26.03062,-48.2597 34.72461,-74.5996 0.775,-2.34 1.524,-4.6612 2.25,-6.9512 -0.74,-29.07 -6.81584,-57.7589 -17.92383,-84.6289 l -353.552734,-353.5606 -101.197266,-11.832 -5.26758,-5.2676 h -37.52734 l -0.0937,0.252 -54.06641,-6.3203 c -0.0895,-0.021 -0.17784,-0.046 -0.26758,-0.066 -0.68618,-0.1596 -1.38422,-0.2925 -2.08203,-0.4258 -0.30062,-0.058 -0.59566,-0.1273 -0.89843,-0.1797 -0.74288,-0.1288 -1.49813,-0.2299 -2.25391,-0.3281 -0.25892,-0.034 -0.51301,-0.079 -0.77344,-0.1094 -1.00018,-0.1153 -2.01081,-0.2016 -3.0332,-0.2617 -0.0191,0 -0.0375,0 -0.0566,-0.01 -6.5e-4,0 -0.001,0 -0.002,0 -1.05504,-0.061 -2.12262,-0.094 -3.20117,-0.094 z"
         style="color:#000000;font-style:normal;font-variant:normal;font-weight:normal;font-stretch:normal;font-size:medium;line-height:normal;font-family:sans-serif;font-variant-ligatures:normal;font-variant-position:normal;font-variant-caps:normal;font-variant-numeric:normal;font-variant-alternates:normal;font-variant-east-asian:normal;font-feature-settings:normal;font-variation-settings:normal;text-indent:0;text-align:start;text-decoration:none;text-decoration-line:none;text-decoration-style:solid;text-decoration-color:#000000;letter-spacing:normal;word-spacing:normal;text-transform:none;writing-mode:lr-tb;direction:ltr;text-orientation:mixed;dominant-baseline:auto;baseline-shift:baseline;text-anchor:start;white-space:normal;shape-padding:0;shape-margin:0;inline-size:0;clip-rule:nonzero;visibility:visible;isolation:auto;mix-blend-mode:normal;color-interpolation:sRGB;color-interpolation-filters:linearRGB;solid-color:#000000;solid-opacity:1;fill:#4078e2;fill-opacity:1;fill-rule:nonzero;stroke:none;stroke-width:37.7952;stroke-linecap:butt;stroke-linejoin:miter;stroke-miterlimit:4;stroke-dasharray:none;stroke-dashoffset:0;stroke-opacity:1;color-rendering:auto;image-rendering:auto;shape-rendering:auto;text-rendering:auto"
         id="path2479" />
      <path
         d="m -149.10144,-721.04865 a 62.798588,62.798588 0 0 1 -62.79858,62.79859 62.798588,62.798588 0 0 1 -62.79859,-62.79859 62.798588,62.798588 0 0 1 62.79859,-62.79858 62.798588,62.798588 0 0 1 62.79858,62.79858"
         style="fill:#3860c9;fill-opacity:1;stroke:none;stroke-width:1.5;stroke-linecap:round;stroke-linejoin:round;paint-order:stroke fill markers"
         id="path1105-6" />
      <path
         d="m -149.10144,-721.04865 a 62.798588,62.798588 0 0 1 -62.79858,62.79859 62.798588,62.798588 0 0 1 -62.79859,-62.79859 62.798588,62.798588 0 0 1 62.79859,-62.79858 62.798588,62.798588 0 0 1 62.79858,62.79858"
         style="fill:#4c8bf5;fill-opacity:1;stroke:none;stroke-width:1.5;stroke-linecap:round;stroke-linejoin:round;paint-order:stroke fill markers"
         id="circle2037" />
      <path
         d="m -149.10144,-721.04865 a 62.798588,62.798588 0 0 1 -62.79858,62.79859 62.798588,62.798588 0 0 1 -62.79859,-62.79859 62.798588,62.798588 0 0 1 62.79859,-62.79858 62.798588,62.798588 0 0 1 62.79858,62.79858"
         style="fill:#4078e2;fill-opacity:1;stroke:none;stroke-width:1.5;stroke-linecap:round;stroke-linejoin:round;paint-order:stroke fill markers"
         clip-path="url(#clipPath2306)"
         id="circle2304" />
      <path
         id="path2809"
         style="color:#000000;font-style:normal;font-variant:normal;font-weight:normal;font-stretch:normal;font-size:medium;line-height:normal;font-family:sans-serif;font-variant-ligatures:normal;font-variant-position:normal;font-variant-caps:normal;font-variant-numeric:normal;font-variant-alternates:normal;font-variant-east-asian:normal;font-feature-settings:normal;font-variation-settings:normal;text-indent:0;text-align:start;text-decoration:none;text-decoration-line:none;text-decoration-style:solid;text-decoration-color:#000000;letter-spacing:normal;word-spacing:normal;text-transform:none;writing-mode:lr-tb;direction:ltr;text-orientation:mixed;dominant-baseline:auto;baseline-shift:baseline;text-anchor:start;white-space:normal;shape-padding:0;shape-margin:0;inline-size:0;clip-rule:nonzero;visibility:visible;isolation:auto;mix-blend-mode:normal;color-interpolation:sRGB;color-interpolation-filters:linearRGB;solid-color:#000000;solid-opacity:1;fill:url(#linearGradient3083);fill-opacity:1;fill-rule:nonzero;stroke:none;stroke-width:10;stroke-linecap:butt;stroke-linejoin:miter;stroke-miterlimit:4;stroke-dasharray:none;stroke-dashoffset:0;stroke-opacity:1;color-rendering:auto;image-rendering:auto;shape-rendering:auto;text-rendering:auto"
         d="m -209.61786,-751.5523 c -1.09193,0 -2.13664,0.12473 -3.13676,0.3483 -1.6e-4,2e-5 -2.6e-4,-3e-5 -5.3e-4,0 l -14.84974,1.64692 h -9.9291 l 14.00431,37.34501 -8.41603,-8.41549 c -0.40863,1.43158 -0.81936,2.84221 -1.2361,4.20955 -4e-5,1.5e-4 5e-5,0 0,0 -0.41673,1.36731 -0.83997,2.69152 -1.27279,3.95015 -5e-5,1.3e-4 6e-5,0 0,0 -0.1738,0.5054 -0.35084,0.9915 -0.52813,1.47433 l -34.68418,-34.6842 a 62.798587,62.798587 0 0 0 -0.42685,1.02682 c -0.0176,0.0434 -0.0352,0.0868 -0.0527,0.13023 a 62.798587,62.798587 0 0 0 -0.40411,1.02836 c -0.003,0.008 -0.006,0.0151 -0.009,0.0227 a 62.798587,62.798587 0 0 0 -0.006,0.0164 62.798587,62.798587 0 0 0 -0.39842,1.0723 c -0.003,0.008 -0.006,0.0172 -0.009,0.0259 a 62.798587,62.798587 0 0 0 -0.36586,1.04439 c -0.0124,0.0365 -0.0248,0.073 -0.0372,0.10956 a 62.798587,62.798587 0 0 0 -0.002,0.005 62.798587,62.798587 0 0 0 -0.34003,1.03455 c -0.008,0.0251 -0.0163,0.0503 -0.0243,0.0755 a 62.798587,62.798587 0 0 0 -0.33642,1.09088 62.798587,62.798587 0 0 0 -0.32762,1.13742 62.798587,62.798587 0 0 0 -0.30593,1.14307 62.798587,62.798587 0 0 0 -0.27699,1.1162 62.798587,62.798587 0 0 0 -0.006,0.0254 c -0.002,0.006 -0.003,0.0127 -0.004,0.019 a 62.798587,62.798587 0 0 0 -0.25994,1.14205 62.798587,62.798587 0 0 0 -0.24081,1.15755 c -7e-5,0 7e-5,0 0,0 a 62.798587,62.798587 0 0 0 -0.21549,1.14052 c -0.003,0.0145 -0.005,0.0293 -0.008,0.0439 a 62.798587,62.798587 0 0 0 -0.36691,2.30579 c -0.001,0.0103 -0.003,0.0206 -0.004,0.031 a 62.798587,62.798587 0 0 0 -0.1509,1.15808 62.798587,62.798587 0 0 0 -0.13126,1.17872 c 0.606,1.6575 1.26135,3.37902 1.97352,5.15268 0.23736,0.59115 0.48108,1.18813 0.73123,1.79056 0.72125,1.73702 1.48168,3.47909 2.28513,5.2033 0.20086,0.43109 0.4045,0.8614 0.61082,1.28984 0.20631,0.42847 0.41544,0.85495 0.62735,1.28003 0.0713,0.14317 0.14504,0.28467 0.21704,0.42738 0.56944,1.12874 1.15683,2.24494 1.76785,3.33881 1.1e-4,2.1e-4 5.3e-4,0 5.3e-4,0 0.37318,0.66807 0.75625,1.32619 1.14567,1.97712 0.0893,0.14923 0.17702,0.30033 0.26716,0.44855 0.0927,0.15251 0.18797,0.30182 0.28164,0.45321 0.63881,1.03251 1.29692,2.04145 1.98024,3.01532 1.4e-4,1.9e-4 2.6e-4,0 5.3e-4,0 0.26103,0.37201 0.52547,0.73959 0.79323,1.10173 1.5e-4,1.8e-4 2.7e-4,0 5.3e-4,0 0.26776,0.36213 0.53878,0.71919 0.81339,1.07074 1.5e-4,1.9e-4 2.6e-4,0 5.3e-4,0 0.011,0.014 0.0226,0.0278 0.0336,0.0419 0.25586,0.32684 0.51577,0.65029 0.78031,0.96996 0.0726,0.0878 0.14792,0.1728 0.22117,0.25993 0.20106,0.2391 0.40273,0.47752 0.60876,0.71159 0.11365,0.12915 0.23002,0.25493 0.34519,0.38241 0.16775,0.18563 0.33545,0.37115 0.50643,0.55295 0.13425,0.14274 0.27096,0.28197 0.40721,0.42219 0.11432,0.11761 0.22636,0.23824 0.3421,0.35396 l 353.553106,353.55311 c 3.84098,3.84201 8.466004,6.61202 13.995004,6.61202 7.07501,0 12.24489,-5.03889 15.23989,-10.59987 0.42686,-0.79209 0.82664,-1.60753 1.2077,-2.43862 l 11.04529,11.0453 h 12.72895 l 5.3635,-14.30351 11.40756,11.40757 c 2.88002,2.88001 6.58813,4.88913 11.05411,4.88913 7.186,0 12.71791,-4.82206 16.68891,-10.52807 3.971,-5.705 6.88808,-12.76725 9.18808,-19.73625 0.205,-0.621 0.40277,-1.23473 0.59478,-1.8407 -0.196,-7.69102 -1.80282,-15.28093 -4.74183,-22.39193 l -353.55423,-353.54883 c -0.59213,3.11002 -1.49899,7.43972 -2.74247,12.20857 -0.12435,0.47688 -0.25234,0.95792 -0.38344,1.44279 -0.39334,1.45482 -0.81683,2.94191 -1.27176,4.44056 -0.089,0.29324 -0.18146,0.58767 -0.27285,0.88162 l -23.49831,-23.49781 h -9.92911 l -2.5771,6.92052 -4.02508,-4.02508 c -0.0509,-0.051 -0.1041,-0.0995 -0.15554,-0.14986 -0.10308,-0.10096 -0.20646,-0.20158 -0.31161,-0.30024 -0.0843,-0.0791 -0.17016,-0.15651 -0.2558,-0.23411 -0.10186,-0.0923 -0.20374,-0.18436 -0.30747,-0.2744 -0.0927,-0.0805 -0.1869,-0.15906 -0.28112,-0.2377 -0.10371,-0.0865 -0.20714,-0.17314 -0.31265,-0.25736 -0.0989,-0.0789 -0.19974,-0.15518 -0.30024,-0.23201 -0.10047,-0.0768 -0.20078,-0.1538 -0.30282,-0.22842 -0.10767,-0.0787 -0.21718,-0.15478 -0.3266,-0.23098 -0.10125,-0.0705 -0.20214,-0.14152 -0.30489,-0.20981 -0.10908,-0.0725 -0.21996,-0.14195 -0.33073,-0.21188 -0.10791,-0.0681 -0.21554,-0.13645 -0.32504,-0.20206 -0.10562,-0.0633 -0.2133,-0.12309 -0.32039,-0.18397 -0.1165,-0.0662 -0.23214,-0.13359 -0.35037,-0.19687 -0.10647,-0.057 -0.2151,-0.11031 -0.32298,-0.16487 -0.12207,-0.0617 -0.24355,-0.1244 -0.36742,-0.18293 -0.10669,-0.0504 -0.21547,-0.0967 -0.32349,-0.1447 -0.12724,-0.0565 -0.25384,-0.11438 -0.38293,-0.16743 -0.11277,-0.0463 -0.22792,-0.0881 -0.34209,-0.13176 -0.12767,-0.0488 -0.25454,-0.0994 -0.38396,-0.1447 -0.11401,-0.0399 -0.23035,-0.075 -0.34571,-0.11213 -0.13324,-0.0429 -0.26547,-0.0874 -0.4005,-0.12661 -0.12587,-0.0365 -0.25445,-0.0676 -0.38189,-0.10077 -0.12476,-0.0325 -0.2484,-0.0674 -0.37465,-0.0966 -0.14522,-0.0336 -0.2931,-0.0607 -0.44028,-0.0899 -0.11476,-0.0227 -0.22822,-0.0487 -0.34417,-0.0687 -0.12337,-0.0214 -0.24942,-0.0361 -0.37413,-0.0543 -0.14553,-0.0212 -0.28983,-0.0452 -0.43719,-0.062 -0.0709,-0.008 -0.14367,-0.0116 -0.21497,-0.0185 -0.19993,-0.0198 -0.39983,-0.0397 -0.60307,-0.0512 -0.27323,-0.0154 -0.54919,-0.0238 -0.82837,-0.0238 z" />
      <path
         id="path3169"
         style="color:#000000;font-style:normal;font-variant:normal;font-weight:normal;font-stretch:normal;font-size:medium;line-height:normal;font-family:sans-serif;font-variant-ligatures:normal;font-variant-position:normal;font-variant-caps:normal;font-variant-numeric:normal;font-variant-alternates:normal;font-variant-east-asian:normal;font-feature-settings:normal;font-variation-settings:normal;text-indent:0;text-align:start;text-decoration:none;text-decoration-line:none;text-decoration-style:solid;text-decoration-color:#000000;letter-spacing:normal;word-spacing:normal;text-transform:none;writing-mode:lr-tb;direction:ltr;text-orientation:mixed;dominant-baseline:auto;baseline-shift:baseline;text-anchor:start;white-space:normal;shape-padding:0;shape-margin:0;inline-size:0;clip-rule:nonzero;display:inline;overflow:visible;visibility:visible;opacity:0.17201;isolation:auto;mix-blend-mode:normal;color-interpolation:sRGB;color-interpolation-filters:linearRGB;solid-color:#000000;solid-opacity:1;vector-effect:none;fill:#000000;fill-opacity:1;fill-rule:nonzero;stroke:none;stroke-width:37.7953;stroke-linecap:butt;stroke-linejoin:miter;stroke-miterlimit:4;stroke-dasharray:none;stroke-dashoffset:0;stroke-opacity:1;filter:url(#filter3171);color-rendering:auto;image-rendering:auto;shape-rendering:auto;text-rendering:auto;enable-background:accumulate;stop-color:#000000;stop-opacity:1"
         d="m -266.70898,-3047.9375 c -17.7464,0 -32.31841,8.3932 -43.42579,20.1816 l 16.22071,43.5879 c 0.94156,-2.0345 1.89761,-3.9705 2.875,-5.7851 8.15198,-15.1353 13.95898,-20.1895 24.33008,-20.1895 10.3711,0 16.17812,5.0542 24.33007,20.1895 0.73286,1.3606 1.45166,2.8069 2.16407,4.2929 l 9.29296,28.3633 17.39649,53.0918 9.28711,28.3438 c 2.55442,6.3949 5.35475,12.5932 8.52148,18.4726 11.32063,21.0183 30.86267,40.0625 57.59961,40.0625 27.16131,0 48.069918,-18.2258 63.078128,-39.789 15.008195,-21.5633 26.030419,-48.2545 34.724609,-74.5938 0.77536,-2.3489 1.52425,-4.6687 2.25,-6.959 -0.740004,-29.0694 -6.815502,-57.7554 -17.923828,-84.6289 -3.58095,18.8067 -10.207107,49.4157 -20.216797,79.7403 -8.04268,24.3654 -18.391587,48.3843 -29.851562,64.8496 -11.45998,16.4653 -22.11385,23.584 -32.06055,23.584 -10.3711,0 -16.17813,-5.0543 -24.33008,-20.1895 -20.58092,-50.4344 -32.77762,-80.7425 -51.08203,-128.6973 l -10.65039,-24.6816 c -10.99092,-11.2935 -25.2568,-19.2461 -42.52929,-19.2461 z m -105.50977,7.541 80.82617,215.5391 h 48.11133 l 20.84375,-55.5821 -17.83789,-51.7363 -27.06055,72.6778 -67.35547,-180.8985 z m 172.23828,0 -5.66601,15.2149 20.63086,44.9531 22.5625,-60.168 z m -293.68555,14.666 c -9.38245,22.0045 -15.3845,45.3009 -17.80273,69.0996 3.0534,8.3551 6.44086,17.1344 10.22266,26.2422 10.904,26.2603 24.16971,52.837 40.78515,74.1075 16.61548,21.27 37.99881,38.955 65.16016,38.955 26.7369,0 46.27894,-19.0442 57.59961,-40.0625 2.9046,-5.3928 5.50618,-11.0509 7.88867,-16.8847 l -21.28516,-56.7832 c -6.17836,21.646 -12.48171,42.0211 -19.87304,55.7441 -8.15199,15.1352 -13.95902,20.1895 -24.33008,20.1895 -9.94674,0 -22.28446,-7.6678 -35.375,-24.4258 -13.09055,-16.758 -25.51989,-40.8856 -35.66992,-65.3301 -12.86198,-30.9756 -22.18842,-62.1167 -27.32032,-80.8516 z"
         sodipodi:nodetypes="sccsssccccssssccssscccscccccccccccccccssssccssssc"
         transform="matrix(0.26458333,0,0,0.26458333,-139.05055,54.876892)" />
      <path
         transform="matrix(0.26458333,0,0,0.26458333,-139.05055,54.876892)"
         sodipodi:nodetypes="sccsssccccssssccssscccscccccccccccccccssssccssssc"
         d="m -266.70898,-3047.9375 c -17.7464,0 -32.31841,8.3932 -43.42579,20.1816 l 16.22071,43.5879 c 0.94156,-2.0345 1.89761,-3.9705 2.875,-5.7851 8.15198,-15.1353 13.95898,-20.1895 24.33008,-20.1895 10.3711,0 16.17812,5.0542 24.33007,20.1895 0.73286,1.3606 1.45166,2.8069 2.16407,4.2929 l 9.29296,28.3633 17.39649,53.0918 9.28711,28.3438 c 2.55442,6.3949 5.35475,12.5932 8.52148,18.4726 11.32063,21.0183 30.86267,40.0625 57.59961,40.0625 27.16131,0 48.069918,-18.2258 63.078128,-39.789 15.008195,-21.5633 26.030419,-48.2545 34.724609,-74.5938 0.77536,-2.3489 1.52425,-4.6687 2.25,-6.959 -0.740004,-29.0694 -6.815502,-57.7554 -17.923828,-84.6289 -3.58095,18.8067 -10.207107,49.4157 -20.216797,79.7403 -8.04268,24.3654 -18.391587,48.3843 -29.851562,64.8496 -11.45998,16.4653 -22.11385,23.584 -32.06055,23.584 -10.3711,0 -16.17813,-5.0543 -24.33008,-20.1895 -20.58092,-50.4344 -32.77762,-80.7425 -51.08203,-128.6973 l -10.65039,-24.6816 c -10.99092,-11.2935 -25.2568,-19.2461 -42.52929,-19.2461 z m -105.50977,7.541 80.82617,215.5391 h 48.11133 l 20.84375,-55.5821 -17.83789,-51.7363 -27.06055,72.6778 -67.35547,-180.8985 z m 172.23828,0 -5.66601,15.2149 20.63086,44.9531 22.5625,-60.168 z m -293.68555,14.666 c -9.38245,22.0045 -15.3845,45.3009 -17.80273,69.0996 3.0534,8.3551 6.44086,17.1344 10.22266,26.2422 10.904,26.2603 24.16971,52.837 40.78515,74.1075 16.61548,21.27 37.99881,38.955 65.16016,38.955 26.7369,0 46.27894,-19.0442 57.59961,-40.0625 2.9046,-5.3928 5.50618,-11.0509 7.88867,-16.8847 l -21.28516,-56.7832 c -6.17836,21.646 -12.48171,42.0211 -19.87304,55.7441 -8.15199,15.1352 -13.95902,20.1895 -24.33008,20.1895 -9.94674,0 -22.28446,-7.6678 -35.375,-24.4258 -13.09055,-16.758 -25.51989,-40.8856 -35.66992,-65.3301 -12.86198,-30.9756 -22.18842,-62.1167 -27.32032,-80.8516 z"
         style="color:#000000;font-style:normal;font-variant:normal;font-weight:normal;font-stretch:normal;font-size:medium;line-height:normal;font-family:sans-serif;font-variant-ligatures:normal;font-variant-position:normal;font-variant-caps:normal;font-variant-numeric:normal;font-variant-alternates:normal;font-variant-east-asian:normal;font-feature-settings:normal;font-variation-settings:normal;text-indent:0;text-align:start;text-decoration:none;text-decoration-line:none;text-decoration-style:solid;text-decoration-color:#000000;letter-spacing:normal;word-spacing:normal;text-transform:none;writing-mode:lr-tb;direction:ltr;text-orientation:mixed;dominant-baseline:auto;baseline-shift:baseline;text-anchor:start;white-space:normal;shape-padding:0;shape-margin:0;inline-size:0;clip-rule:nonzero;display:inline;overflow:visible;visibility:visible;opacity:1;isolation:auto;mix-blend-mode:normal;color-interpolation:sRGB;color-interpolation-filters:linearRGB;solid-color:#000000;solid-opacity:1;vector-effect:none;fill:#ffffff;fill-opacity:1;fill-rule:nonzero;stroke:none;stroke-width:37.7953;stroke-linecap:butt;stroke-linejoin:miter;stroke-miterlimit:4;stroke-dasharray:none;stroke-dashoffset:0;stroke-opacity:1;color-rendering:auto;image-rendering:auto;shape-rendering:auto;text-rendering:auto;enable-background:accumulate;stop-color:#000000;stop-opacity:1"
         id="path2047" />
    </g>
  </g>
</svg>
